<?xml version="1.0"?><svg version="1.2" baseProfile="tiny-ps" viewBox="0 0 300 300" xmlns="http://www.w3.org/2000/svg" xmlns:xlink="http://www.w3.org/1999/xlink"><title>Wilco Contractors Southwest Inc</title><g><g fill="#fefefd" transform="matrix(.1 0 0 -.1 0 300)"><path d="M300 1505V710h2400v1590H300v-795z"/></g><g fill="#e7d9cf" transform="matrix(.1 0 0 -.1 0 300)"><path d="M761 2144c-5-22-22-87-37-146-14-59-32-114-38-123l-12-16-23 20c-13 11-27 19-31 16l-7-4 13-98c6-54 15-126 18-160l7-63h-8c-4 0-21 21-38 45l-30 45-10-3-10-4-6-42c-3-23-10-46-16-52l-10-10-43 11c-23 6-44 9-47 6s5-47 18-98c12-51 22-102 21-112 0-10-15-36-31-57l-31-37 85-57c46-31 91-65 98-76l14-20-11-62-12-62-58-55c-55-52-82-87-74-96 3-2 43 12 90 31 179 72 412 131 648 166l135 20 200 6 200 6 135-12c238-21 455-62 623-117 42-14 82-24 88-22l11 4-62 57-62 57-76 45-77 45h42l26 25 25 25 10 43c6 23 20 128 33 232l22 190-7 37-7 38-24 27-23 28h-230l-25-23-24-23-11-37c-6-20-19-93-28-162s-22-165-29-215l-12-90-7 17-8 18h-138v28c0 39 40 334 47 344l5 10 72-4 71-3 6 30c4 17 7 42 8 57l1 27-16 15-15 16h-194l-25-13-25-13-14-29-15-30-29-212-30-213h-146l-5 9c-6 9 49 426 59 453l6 15-16 17-16 16h-49c-27 0-55-3-64-6l-16-6v-37c-1-49-56-450-64-458-3-4-9-4-12 0-7 7 49 432 60 458l7 16-16 17-16 16h-120l11 20 11 21-6 19-6 20h-141l5-22 6-21-40-155c-21-86-41-158-44-160-3-3-5 71-5 164v169l-9 13-8 13-68-3-68-3-28-75-28-75v50c0 28 6 106 13 175l14 125-7 7-7 8-24-47c-14-25-29-46-34-47l-9-1-34 100c-19 55-38 104-43 109l-9 9-10-39zm523-692-27-207-11-7c-13-9-56-11-56-2 0 3 23 94 51 202 29 108 54 208 57 222l5 25 5-13c2-7-9-106-24-220zm1036 175c0-19-52-362-56-368-3-5-21-9-40-9h-34l5 23c2 12 14 92 26 177 11 85 22 161 24 168l4 12h36c19 0 35-1 35-3z"/></g><g fill="#c7ab91" transform="matrix(.1 0 0 -.1 0 300)"><path d="M740 2028c-18-73-39-143-47-156l-14-23-22 16c-12 8-24 15-27 15s0-46 7-102c7-57 12-129 13-160v-58h-8c-5 0-23 21-42 48l-34 47-9-54-9-54-54 6-54 6v-10c0-5 9-42 20-81 11-40 20-86 20-103v-30l-30-36-29-36 72-48c40-26 82-57 95-68l22-20v-36c0-20-5-54-11-76l-11-39-44-39c-24-21-53-52-65-68l-21-29 54 21c295 118 631 187 988 204l135 6 174-11 175-11 142-24c152-26 276-55 364-86 75-26 79-24 39 17-32 33-134 105-210 148l-34 19 31 7c41 9 52 17 68 48 16 33 20 55 46 252 29 222 26 272-15 313l-16 17h-112l-112-1-17-13c-10-7-24-29-33-49l-15-35-25-186c-14-103-25-204-25-226v-40h-29l-3 17-3 16-72-2-73-2v31c0 18 9 102 21 188l21 157 11 13 10 13 66-2 66-3 9 47c4 26 6 54 2 62l-5 15h-219l-22-18-22-18-13-51c-7-28-24-132-36-232l-23-181h-176v7c0 20 62 448 66 454 2 4 1 14-2 23l-6 16h-123l-29-221c-16-121-32-234-35-252l-7-32-17-3-17-3v23c0 13 14 120 30 238s30 223 30 233v17h-140v13c0 6 4 18 9 26l9 13-5 19-5 19h-118v-74l-36-135c-19-75-40-152-47-171l-12-35-5 205-5 205H977l-32-84-32-85-12-4-12-4 5 39c3 21 10 90 16 153s13 128 15 144l5 28-14-11c-8-6-19-25-26-41-22-54-37-38-75 80-15 47-31 89-35 93l-7 8-33-133zm555-546c-18-134-35-245-37-247-1-2-20-6-40-10l-38-7v13c0 10 50 209 122 484l10 39 8-14 8-15-33-243zm1028 151c6-11-46-366-56-380l-8-13h-69v33c0 33 35 302 45 345l5 22h40c21 0 41-3 43-7z"/></g><g fill="#e58c2b" transform="matrix(.1 0 0 -.1 0 300)"><path d="m741 2006-32-135-15-12-16-13-20 13c-11 7-21 11-23 9s3-59 11-128 14-138 12-154l-3-29-11-4-11-4-27 41-27 41-9-6c-6-4-10-19-10-34v-29l-15-12-14-12-41 7-40 7v-9c0-4 10-50 22-100l22-93-31-44-32-44 79-52c43-28 86-60 96-71l18-20-11-66-12-66-63-65-63-65 20 6c11 3 74 24 140 47 475 163 1001 203 1520 115l140-24 124-36c68-19 126-34 128-31 7 7-159 127-218 157l-58 29h-75c-73 0-106 6-106 19 0 3 56 6 124 6h124l21 19 21 19 10 36c14 55 50 349 50 414v58l-15 28c-19 38-30 41-138 41h-92l-25-13-25-12-16-45-17-45-21-164c-12-91-23-191-23-223l-1-58h-27l-4-22c-3-13-7-32-8-43l-3-20-110-3-110-3-18 13-17 13 112-3 112-4 13 18 13 18v76h-150v21c0 12 10 98 21 193l22 171 10 13 9 12h138l6 24c3 13 4 37 2 52l-3 29-101 3-100 3-27-21-27-21-9-37c-8-31-61-396-61-422v-9l-95-3-95-3v8c0 5 14 111 31 235 18 125 32 236 33 247l1 20h-120l-3-35c-3-44-51-417-57-447l-5-22-19-6-20-6-6-64-7-65h-138v19l63 3 62 3 3 30c1 17 18 147 38 290 19 143 36 269 37 280l2 20-58 3-57 3-4-13c-2-7-18-125-36-263l-33-250-11-7c-6-4-21-8-33-8s-28-6-36-14l-14-14-13-61-13-61h-147v20h128l11 33c5 17 40 149 76 292 60 237 98 375 112 411l5 14h-112v-22c0-20-68-291-91-365-6-18-15-33-20-33h-9v420H983l-32-85-33-85-19-10-19-11v-218l-10-6-10-6 5 88c3 48 7 137 10 197l5 109 10 12c9 11 29 129 30 175v15l-20-33-21-33-17 3-17 3-30 87c-16 47-33 89-36 93l-7 6-31-135zm1585-361 6-15-26-185c-14-102-28-190-31-195l-6-10h-89v29c0 38 48 370 56 382l5 9h80l5-15zM988 1473c-3-16-23-93-46-173-22-80-45-164-52-187l-11-43H730v19l67 3 68 3 52 189c29 104 54 195 57 202 9 24 18 15 14-13zm742-307-11-56h-288l-6 10-6 9 142 3 143 3 8 35c13 52 18 63 24 57 3-3 1-31-6-61z"/></g><g fill="#726c5a" transform="matrix(.1 0 0 -.1 0 300)"><path d="M718 1843c-2-5-1-174 2-378l5-370h140l55 197c30 108 58 200 63 204l7 7v-413h138l11 33c5 17 40 149 76 292 60 237 98 375 112 411l5 14h-112v-22c0-20-68-291-91-365-6-18-15-33-20-33h-9v420H981l-10-37c-5-21-29-112-52-203s-45-169-49-173l-7-8 4 143c2 79 8 172 13 208 4 36 6 68 3 73l-4 7H721l-3-7zm618-95c-2-7-18-125-36-263-18-137-39-272-46-298l-13-48 13-5c8-3 38-4 67-2l54 3 3 30c1 17 18 147 38 290 19 143 36 269 37 280l2 20-58 3-57 3-4-13zm171 6c-4-4-7-23-7-43 0-39-55-438-70-511-5-25-9-51-10-58v-13l142 3 142 3 12 50c7 27 11 51 9 54-3 2-41 3-85 2l-80-2v11c0 7 14 114 31 238 18 125 32 236 33 247l1 20-55 3c-31 2-59 0-63-4zm340-14-27-21-9-37c-6-20-22-125-36-232s-28-201-30-209c-3-7 0-31 5-52l11-39 19-10 19-10h200l11 19c5 11 10 36 10 55v36h-150v21c0 12 10 98 21 193l22 171 10 13 9 12h138l6 24c3 13 4 37 2 52l-3 29-101 3-100 3-27-21zm323 7-25-12-16-45-17-45-22-165c-12-91-22-196-22-235v-69l23-19 23-19 112 4 112 3 21 19 21 19 10 36c14 55 50 349 50 414v58l-15 28c-19 38-30 41-138 41h-92l-25-13zm156-102 6-15-26-185c-14-102-28-190-31-195l-6-10h-89v29c0 38 48 370 56 382l5 9h80l5-15z"/></g><g fill="#1b3628" transform="matrix(.1 0 0 -.1 0 300)"><path d="M724 1809c3-17 6-184 6-370v-339h127l58 213c31 116 60 216 62 221l6 8 8-13 9-14v-416l62 3 62 3 58 225c70 269 124 468 133 493l7 17h-98l-1-37c-2-34-98-411-108-421-2-2-9-1-15 3l-12 7 2 207c1 113 2 214 1 224l-1 17h-99l-11-37c-5-21-31-121-57-223-44-176-56-211-68-198-8 7 11 418 20 441l7 17H718l6-31zm587-306c-18-137-39-274-46-305l-13-58h118v29c0 35 68 538 76 563l5 18h-107l-33-247zm199 218c0-34-54-430-70-510-5-29-10-58-10-62v-9h268l6 31c3 17 6 39 6 48v17l-71-4-71-4-9 9-10 10 31 229c17 126 34 239 37 252l5 22h-112v-29zm336 14c-24-24-35-73-65-296l-29-206 5-29c3-16 12-37 21-46l15-18h205l6 16c3 9 6 29 6 45v29h-125l-14 9-15 10 23 183c13 101 27 193 32 205l8 22 73 3 73 3 3 43 3 42h-210l-15-15zm321 3c-9-7-23-29-31-49l-15-36-26-198c-14-108-25-212-25-231v-34l20-20 20-20h199l24 9 25 10 16 43 16 43 24 197 24 197-8 36c-4 19-14 42-20 50l-12 15h-214l-17-12zm163-83 12-14-27-188c-14-103-31-195-36-205l-10-18h-90l-6 16-6 17 26 191 27 191 17 13 17 12h64l12-15z"/></g></g></svg>