<?xml version="1.0" encoding="UTF-8"?>
<svg width="512" height="512" version="1.2" viewBox="0 0 163.84 163.84" xmlns="http://www.w3.org/2000/svg">
 <g transform="translate(-2.2333 1.6242)">
  <path d="m24.96 117.44c0.18844-0.35211 1.8654-2.163 3.7266-4.0242 3.7161-3.7161 4.0475-4.3669 4.471-8.7796 0.1953-2.0347 0.17576-2.1077-0.82557-3.0867-0.56408-0.5515-2.8824-2.2057-5.1519-3.676-2.2695-1.4703-4.1294-2.8199-4.1333-2.9991-0.0038-0.17923 0.547-0.99628 1.2241-1.8157 2.2839-2.7639 2.2908-2.8497 0.7227-8.9856-0.75829-2.9671-1.3175-5.4558-1.2428-5.5306s1.2459 0.10495 2.6026 0.39935c3.0741 0.66712 3.2525 0.53327 3.8473-2.8873 0.39802-2.2889 0.67192-3.0803 0.95098-2.7477 0.06153 0.07333 0.85792 1.2493 1.7698 2.6133 2.27 3.3957 2.7537 3.3337 2.4959-0.32-0.10865-1.54-0.51718-5.4969-0.90784-8.793-0.39066-3.2962-0.61599-6.0873-0.50073-6.2026 0.11526-0.11526 0.72341 0.2416 1.3514 0.79302 1.3545 1.1892 1.9218 1.2549 2.4431 0.28259 0.21232-0.396 1.2614-4.1661 2.3313-8.3781 1.0699-4.212 2.0892-7.7035 2.2652-7.7589 0.176-0.05544 1.2006 2.4547 2.2769 5.5781 2.3615 6.8532 2.6086 7.0602 4.2865 3.592 0.60494-1.2505 1.3071-2.4445 1.5604-2.6533 0.39626-0.32674 0.43054-0.06711 0.24557 1.8603-0.11824 1.232-0.5669 5.8348-0.99702 10.228s-0.71446 8.0561-0.63186 8.1387c0.32768 0.32768 0.7963-0.62209 2.3374-4.7373 0.88364-2.3596 1.7946-4.4121 2.0244-4.5611 0.68578-0.44477 6.7515-0.17972 6.8478 0.29923 0.04509 0.2244 0.0088 0.2604-0.08068 0.08-0.23917-0.48226-6.4087-0.4297-6.7096 0.05716-0.13092 0.21184-0.96759 2.3202-1.8593 4.6854-1.5864 4.208-2.4478 5.5077-3.0308 4.5733-0.22977-0.36828-0.29917-0.36828-0.44563 0-0.26337 0.66225-0.21096-4.4469 0.06557-6.3917 0.13356-0.93933 0.41813-1.8162 0.63237-1.9486 0.39022-0.24117 1.3234-7.2673 1.2995-9.7835l-0.01219-1.28-0.91931 1.7798c-1.0535 2.0396-1.6408 2.631-2.3446 2.361-0.58386-0.22405-0.48695 0.0024-2.5255-5.9008-0.88128-2.552-1.7218-4.7663-1.8678-4.9207-0.29534-0.31232-0.3253-0.21003-2.3784 8.1207-0.80245 3.256-1.6715 6.388-1.9311 6.96-0.59132 1.3026-1.5476 1.3656-2.7816 0.18333-0.49179-0.47117-0.96196-0.78889-1.0448-0.70604-0.08285 0.08285 0.20292 3.0963 0.63505 6.6967 0.91166 7.5956 1.0083 10.713 0.34001 10.97-0.63152 0.24234-1.191-0.28946-2.7266-2.5919-1.2957-1.9426-1.9445-2.2859-1.9445-1.0288 0 0.33295-0.15796 1.3419-0.35102 2.2421-0.46686 2.1769-1.1085 2.4771-3.9378 1.8424-1.1555-0.25921-2.154-0.41821-2.2189-0.35333-0.06488 0.06488 0.43605 2.2392 1.1132 4.8318 0.67712 2.5926 1.2319 5.1537 1.2328 5.6912 0.0018 1.0266-1.3403 3.3966-2.5099 4.4322-0.37863 0.33528-0.68842 0.71048-0.68842 0.83378s1.7973 1.399 3.994 2.8349c2.1967 1.4359 4.5007 3.0556 5.12 3.5994 1.0151 0.89127 1.1258 1.151 1.1235 2.6355-0.0014 0.90576-0.2618 2.7302-0.57872 4.0543l-0.57622 2.4075-3.4682 3.4389c-1.9075 1.8914-3.3873 3.5198-3.2884 3.6188 0.09892 0.0989 2.244-0.61277 4.7669-1.5815 5.7299-2.2002 11.733-4.0531 18.347-5.663 5.2024-1.2663 13.852-2.8967 15.032-2.8332 0.35645 0.0192-0.50391 0.23726-1.9119 0.48464-12.792 2.2474-22.902 4.956-32.221 8.6322-4.9375 1.9478-5.2356 2.0162-4.7389 1.0881zm23.935-50.24-0.0088-1.12-0.26476 1.28c-0.14562 0.704-0.25382 1.928-0.24044 2.72l0.02431 1.44 0.24921-1.6c0.13707-0.88 0.24527-2.104 0.24044-2.72zm88.065 45.862c-4.175-1.5065-10.638-3.182-17.12-4.4384-2.992-0.57991-5.1169-1.0654-4.7221-1.079 2.2226-0.0761 15.542 3.0294 21.279 4.9612 1.7792 0.59919 3.2878 1.0366 3.3523 0.97214 0.24485-0.24485-4.2483-4.0909-6.9009-5.907-1.5223-1.0423-4.1478-2.6321-5.8345-3.533l-3.0666-1.6379h-4.3238c-3.7113 0-4.3956-0.0793-4.8311-0.56-0.4819-0.53191-0.17214-0.55537 6.1759-0.46773l6.6832 0.0923 1.2927-1.1678c0.90484-0.81747 1.4378-1.6564 1.7762-2.7961 0.41056-1.3825 2.772-19.166 3.1312-23.581 0.0984-1.2088 0.12614-1.1199 0.17307 0.5542 0.0717 2.5563-2.3128 21.463-2.9906 23.713-0.70738 2.3477-2.1651 3.8804-3.9137 4.1149-0.74789 0.10031-1.3598 0.30535-1.3598 0.45565 0 0.15029 0.828 0.69254 1.84 1.205 4.4247 2.2406 12.57 8.4236 12.822 9.7332 0.13026 0.67639 0.20873 0.69076-3.4621-0.63382zm-24.24-5.7625c0.308-0.0805 0.812-0.0805 1.12 0s0.056 0.14635-0.56 0.14635-0.868-0.0659-0.56-0.14635zm-47.68-0.32c0.308-0.0805 0.812-0.0805 1.12 0s0.056 0.14635-0.56 0.14635-0.868-0.0659-0.56-0.14635zm45.44 0c0.308-0.0805 0.812-0.0805 1.12 0s0.056 0.14635-0.56 0.14635-0.868-0.0659-0.56-0.14635zm-42-0.40982c7.2906-1.1708 24.742-1.4205 35.039-0.50126 3.3434 0.29848 6.1514 0.62195 6.24 0.71884 0.0886 0.0969-0.84684 0.0834-2.0788-0.0299-8.1571-0.75028-11.564-0.90785-19.68-0.91009-5.016-1e-3 -10.92 0.1599-13.12 0.35841-2.2 0.1985-4.936 0.4252-6.08 0.50377l-2.08 0.14286zm-27.947-1.1829c-0.58917-0.58916 0.06631-0.74666 3.1075-0.74666 2.269 0 3.4244-0.1267 3.6478-0.4 0.17982-0.22 1.599-5.008 3.1536-10.64s2.8775-9.979 2.9395-9.66c0.13201 0.67843-5.3003 20.669-5.7773 21.26-0.34362 0.4258-6.6651 0.59267-7.0711 0.18666zm14.4 0c-0.59367-0.59366 0.0853-0.74666 3.3135-0.74666 3.3525 0 3.5422-0.0356 3.8363-0.72 0.17017-0.396 1.3216-4.716 2.5587-9.6 3.6009-14.216 6.9416-26.859 7.4621-28.241 0.26486-0.70321 0.56859-1.6746 0.67494-2.1586l0.19337-0.88h-3.3438c-3.0911 0-3.3548 0.04875-3.4887 0.6449-0.12048 0.53646-0.13767 0.52301-0.10226-0.08 0.0415-0.70656 0.13139-0.7249 3.5528-0.7249h3.5102l0.05457 1.0851c0.03001 0.59681-0.1456 1.5642-0.39025 2.1497-0.24465 0.58554-0.44482 1.1367-0.44482 1.2247 0 0.08807 1.6819 0.20069 3.7375 0.25028l3.7375 0.09015 0.25851 0.96c0.14489 0.53805 0.12328 1.3819-0.04917 1.92-0.16923 0.528-0.95729 5.784-1.7513 11.68s-1.5304 11.26-1.6365 11.92c-0.18718 1.1645-0.16426 1.2 0.77398 1.2 0.80566 0 0.99148-0.14673 1.1144-0.88 0.14022-0.83613 0.14526-0.83214 0.10126 0.08-0.03838 0.79551-0.19712 0.97735-0.92644 1.0613-1.1045 0.12708-1.3883 0.66845-1.6769 3.1984-0.1267 1.1108-0.30638 1.9436-0.39927 1.8507-0.20658-0.20658 0.14332-3.0719 2.2311-18.27 0.89454-6.512 1.6902-12.452 1.768-13.2l0.1416-1.36h-7.4244v0.81889c0 0.45039-0.13621 0.7347-0.3027 0.63181-0.16648-0.10289-0.432 0.28461-0.59004 0.86112-2.2327 8.1444-6.8342 26.548-6.6772 26.705 0.114 0.114 1.0305 0.07587 2.0366-0.08472 1.563-0.24948 1.8614-0.40849 2.0494-1.092 0.19405-0.70542 0.22384-0.71951 0.25197-0.11918 0.04455 0.95091-0.52783 1.324-2.4151 1.5744-0.89706 0.119-1.8037 0.3231-2.0148 0.45355-0.21108 0.13045-0.78497 1.8229-1.2753 3.7609-0.49034 1.938-0.99258 3.6872-1.1161 3.887-0.24322 0.39353-6.9527 0.53076-7.3334 0.14999zm13.547-2.8073c0-0.36838 0.73712-0.48053 3.6806-0.56 3.3301-0.0899 3.6806-0.046 3.68 0.46063-5.62e-4 0.50083-0.38944 0.56-3.6806 0.56-2.989 0-3.68-0.0865-3.68-0.46063zm9.6-0.0194c0-0.41302 1.0468-0.48 7.5011-0.48 5.0199 0 7.5717-0.11417 7.7144-0.34515 0.11732-0.18983 0.4823-1.3778 0.81106-2.64 0.49024-1.8821 0.57316-2.0358 0.46103-0.85486-0.0752 0.792-0.29961 2.196-0.49869 3.12l-0.36197 1.68h-7.8135c-6.732 0-7.8135-0.0664-7.8135-0.48zm19.661 0.0102c-0.55288-0.41818 0.09043-0.47094 5.8527-0.48l6.4739-0.0102 0.22755-0.88c0.12515-0.484 0.23589-1.888 0.24609-3.12 0.0182-2.2005 0.027-2.2234 0.49856-1.2991 0.88198 1.7289 1.2437 1.3786 1.3617-1.3189l0.10946-2.502 0.0644 2.64c0.0635 2.6026 0.0533 2.64-0.716 2.64-0.68956 0-0.80369 0.17691-0.98058 1.52-0.11011 0.836-0.27437 1.916-0.36504 2.4l-0.16483 0.88h-5.9934c-4.7744 0-6.1197-0.0956-6.6146-0.46983zm4.7454-7.1262c-0.28609-0.74554 2.0536-19.47 2.5652-20.53 0.40169-0.8318 0.41465-0.83429 4.2978-0.82895 4.4815 0.0062 4.1115 0.30971 4.4634-3.6625 0.15145-1.7096 0.28194-2.1843 0.46465-1.6904 0.21807 0.58949-6e-3 2.8393-0.54105 5.4276-0.14472 0.70035-0.25798 0.72-4.1506 0.72-3.8573 0-4.0115 0.026-4.2698 0.72-0.40772 1.0955-2.6811 19.397-2.4758 19.932 0.0988 0.25737 0.10756 0.46794 0.0196 0.46794-0.088 0-0.25601-0.25019-0.37335-0.55598zm7.0601 0.34265c0.11734-0.11733 0.30934-0.11733 0.42667 0 0.11733 0.11733 0.0213 0.21333-0.21333 0.21333-0.23467 0-0.33067-0.096-0.21334-0.21333zm9.7047-0.24821c-0.0974-0.25385-0.10737-0.93785-0.0221-1.52 0.0852-0.58215 0.71983-5.1253 1.4102-10.096s1.41-9.3265 1.5992-9.68c0.28905-0.5401 0.66863-0.64267 2.3784-0.64267 1.56 0 2.0798 0.11805 2.2287 0.50617 0.29612 0.77169 0.2339 0.94149-0.18976 0.51783-0.58436-0.58436-2.9599-0.47233-3.732 0.176-0.58275 0.4893-0.83268 1.7518-1.9797 10-0.72201 5.192-1.2548 9.836-1.1839 10.32 0.13547 0.92544-0.20654 1.2066-0.50898 0.41845zm3.9486 0.30155c0-0.088 0.072-0.16 0.16-0.16s0.16 0.072 0.16 0.16-0.072 0.16-0.16 0.16-0.16-0.072-0.16-0.16zm-37.76-0.40236c0-0.56508 2.8717-21.633 3.2601-23.918 0.20946-1.232 0.35362-2.348 0.32036-2.48-0.03326-0.132 0.08352-0.24 0.25952-0.24 0.39998 0 0.40539 0.78904 0.01538 2.24-0.32964 1.2263-3.2154 22.149-3.2154 23.313 0 0.71833 0.01241 0.72 4.6405 0.62381 2.5523-0.05304 4.6403 0.01156 4.64 0.14356-2.74e-4 0.132-2.0047 0.24-4.4543 0.24s-4.6816 0.08741-4.96 0.19424c-0.2784 0.10683-0.50617 0.05436-0.50617-0.1166zm38.4-0.077641c0-0.23467 0.096-0.33067 0.21333-0.21333 0.11733 0.11733 0.11733 0.30933 0 0.42667-0.11733 0.11733-0.21333 0.02133-0.21333-0.21333zm0.34526-1.1467c0.0154-0.37278 0.0912-0.44861 0.19333-0.19333 0.0924 0.231 0.0811 0.507-0.0253 0.61333-0.10633 0.10633-0.18196-0.08267-0.16807-0.42zm-55.003-0.93333c0.0065-0.528 0.07824-0.70526 0.15937-0.39391 0.08113 0.31135 0.0758 0.74335-0.01186 0.96-0.08765 0.21665-0.15404-0.03809-0.14752-0.56609zm26.252-0.48c0-0.616 0.06585-0.868 0.14634-0.56 0.08049 0.308 0.08049 0.812 0 1.12s-0.14634 0.056-0.14634-0.56zm-16.652-0.48c0.0065-0.528 0.07824-0.70526 0.15937-0.39391 0.08113 0.31135 0.0758 0.74335-0.01186 0.96-0.08765 0.21665-0.15404-0.03809-0.14752-0.56609zm45.76-0.32c7e-3 -0.528 0.0782-0.70526 0.15937-0.39391 0.0811 0.31135 0.0758 0.74335-0.0119 0.96-0.0877 0.21665-0.15404-0.03809-0.14752-0.56609zm-11.828-0.8c0-0.616 0.0658-0.868 0.14634-0.56 0.0805 0.308 0.0805 0.812 0 1.12s-0.14634 0.056-0.14634-0.56zm-43.212-0.16c0.0065-0.528 0.07824-0.70526 0.15937-0.39391 0.08113 0.31135 0.0758 0.74335-0.01186 0.96-0.08765 0.21665-0.15404-0.03809-0.14752-0.56609zm26.228-0.8c0-0.44 0.07263-0.62 0.1614-0.4 0.08877 0.22 0.08877 0.58 0 0.8s-0.1614 0.04-0.1614-0.4zm-16.64-0.32c0-0.44 0.07263-0.62 0.1614-0.4 0.08877 0.22 0.08877 0.58 0 0.8s-0.1614 0.04-0.1614-0.4zm45.772-0.16c7e-3 -0.528 0.0782-0.70526 0.15937-0.39391 0.0811 0.31135 0.0758 0.74335-0.0118 0.96-0.0877 0.21665-0.15404-0.03809-0.14752-0.56609zm-11.84-0.96c7e-3 -0.528 0.0782-0.70526 0.15937-0.39391 0.0811 0.31135 0.0758 0.74335-0.0118 0.96-0.0877 0.21665-0.15404-0.03809-0.14752-0.56609zm-43.212-0.16c0-0.44 0.07263-0.62 0.1614-0.4 0.08877 0.22 0.08877 0.58 0 0.8s-0.1614 0.04-0.1614-0.4zm26.24-0.64c0-0.44 0.07263-0.62 0.1614-0.4 0.08877 0.22 0.08877 0.58 0 0.8s-0.1614 0.04-0.1614-0.4zm-16.64-0.32c0-0.44 0.07263-0.62 0.1614-0.4 0.08877 0.22 0.08877 0.58 0 0.8s-0.1614 0.04-0.1614-0.4zm45.772-0.16c7e-3 -0.528 0.0782-0.70526 0.15937-0.39391 0.0811 0.31135 0.0758 0.74335-0.0119 0.96-0.0877 0.21665-0.15404-0.03809-0.14752-0.56609zm-55.04-1.28c0.0065-0.528 0.07824-0.70526 0.15937-0.39391 0.08113 0.31135 0.0758 0.74335-0.01186 0.96-0.08765 0.21665-0.15404-0.03809-0.14752-0.56609zm43.2 0c7e-3 -0.528 0.0782-0.70526 0.15937-0.39391 0.0811 0.31135 0.0758 0.74335-0.0118 0.96-0.0877 0.21665-0.15404-0.03809-0.14752-0.56609zm-16.96-0.64c0.0065-0.528 0.07824-0.70526 0.15937-0.39391 0.08113 0.31135 0.0758 0.74335-0.01186 0.96-0.08766 0.21665-0.15404-0.03809-0.14752-0.56609zm-16.64-0.32c0.0065-0.528 0.07824-0.70526 0.15937-0.39391 0.08113 0.31135 0.0758 0.74335-0.01186 0.96-0.08765 0.21665-0.15404-0.03809-0.14752-0.56609zm45.76 0c7e-3 -0.528 0.0782-0.70526 0.15937-0.39391 0.0811 0.31135 0.0758 0.74335-0.0118 0.96-0.0877 0.21665-0.15404-0.03809-0.14752-0.56609zm-64.947-10.48 0.07534-10.96 0.08915 10.16c0.05619 6.4032 0.20582 10.16 0.40466 10.16 0.17353 0 0.3155-0.24 0.3155-0.53333 0-0.29333 0.08635-0.44698 0.19189-0.34144 0.26804 0.26804-0.49588 2.4748-0.85671 2.4748-0.17596 0-0.26475-4.4265-0.21984-10.96zm9.907 9.2c0.0065-0.528 0.07824-0.70526 0.15937-0.39391 0.08113 0.31135 0.0758 0.74335-0.01186 0.96-0.08765 0.21665-0.15404-0.03809-0.14752-0.56609zm43.2 0c7e-3 -0.528 0.0782-0.70526 0.15937-0.39391 0.0811 0.31135 0.0758 0.74335-0.0118 0.96-0.0877 0.21665-0.15404-0.03809-0.14752-0.56609zm-16.96-0.64c0.0065-0.528 0.07824-0.70526 0.15937-0.39391 0.08113 0.31135 0.0758 0.74335-0.01186 0.96-0.08766 0.21665-0.15404-0.03809-0.14752-0.56609zm-16.64-0.64c0.0065-0.528 0.07824-0.70526 0.15937-0.39391 0.08113 0.31135 0.0758 0.74335-0.01186 0.96-0.08765 0.21665-0.15404-0.03809-0.14752-0.56609zm45.748 0.16c0-0.44 0.0726-0.62 0.16141-0.4 0.0888 0.22 0.0888 0.58 0 0.8s-0.16141 0.04-0.16141-0.4zm-64.051-0.32c0-0.23467 0.096-0.33067 0.21333-0.21333 0.11733 0.11733 0.11733 0.30933 0 0.42667-0.11733 0.11733-0.21333 0.02133-0.21333-0.21333zm9.0224-1.12c0.0065-0.528 0.07824-0.70526 0.15937-0.39391 0.08113 0.31135 0.0758 0.74335-0.01186 0.96-0.08765 0.21665-0.15404-0.03809-0.14752-0.56609zm43.2 0c7e-3 -0.528 0.0782-0.70526 0.15937-0.39391 0.0811 0.31135 0.0758 0.74335-0.0118 0.96-0.0877 0.21665-0.15404-0.03809-0.14752-0.56609zm-51.902-0.16c0-0.23467 0.096-0.33067 0.21333-0.21333s0.11733 0.30933 0 0.42667c-0.11733 0.11733-0.21333 0.02133-0.21333-0.21333zm34.942-0.48c0.0065-0.528 0.07824-0.70526 0.15937-0.39391 0.08113 0.31135 0.0758 0.74335-0.01186 0.96-0.08766 0.21665-0.15404-0.03809-0.14752-0.56609zm-16.652-0.16c0-0.44 0.07263-0.62 0.1614-0.4 0.08877 0.22 0.08877 0.58 0 0.8s-0.1614 0.04-0.1614-0.4zm45.76 0c0-0.44 0.0726-0.62 0.16141-0.4 0.0888 0.22 0.0888 0.58 0 0.8s-0.16141 0.04-0.16141-0.4zm-78.331-3.36c7.22e-4 -1.936 0.05343-2.6867 0.11712-1.6683 0.0637 1.0184 0.06311 2.6024-0.0013 3.52-0.06442 0.91757-0.11653 0.08432-0.11581-1.8517zm14.626 2.8533c0.01536-0.37278 0.09118-0.44861 0.19333-0.19333 0.09244 0.231 0.08107 0.507-0.02526 0.61333-0.10633 0.10633-0.18196-0.08267-0.16807-0.42zm8.6653-1.0933c0-0.44 0.07263-0.62 0.1614-0.4 0.08877 0.22 0.08877 0.58 0 0.8s-0.1614 0.04-0.1614-0.4zm43.212-0.16c7e-3 -0.528 0.0782-0.70526 0.15937-0.39391 0.0811 0.31135 0.0758 0.74335-0.0118 0.96-0.0877 0.21665-0.15404-0.03809-0.14752-0.56609zm-51.557-0.02667c0.01536-0.37278 0.09118-0.44861 0.19333-0.19333 0.09244 0.231 0.08107 0.507-0.02526 0.61333-0.10633 0.10633-0.18196-0.08267-0.16807-0.42zm34.597-0.29333c0.0065-0.528 0.07824-0.70526 0.15937-0.39391 0.08113 0.31135 0.0758 0.74335-0.01186 0.96-0.08766 0.21665-0.15404-0.03809-0.14752-0.56609zm-16.64-0.32c0.0065-0.528 0.07824-0.70526 0.15937-0.39391 0.08113 0.31135 0.0758 0.74335-0.01186 0.96-0.08765 0.21665-0.15404-0.03809-0.14752-0.56609zm45.748 0.16c0-0.44 0.0726-0.62 0.16141-0.4 0.0888 0.22 0.0888 0.58 0 0.8s-0.16141 0.04-0.16141-0.4zm-63.385-0.82666c0.01535-0.37278 0.09118-0.44861 0.19333-0.19333 0.09244 0.231 0.08107 0.507-0.02526 0.61333-0.10633 0.10633-0.18196-0.08267-0.16807-0.42zm8.3453-0.77333c0-0.44 0.07263-0.62 0.1614-0.4 0.08877 0.22 0.08877 0.58 0 0.8s-0.1614 0.04-0.1614-0.4zm43.212-0.16c7e-3 -0.528 0.0782-0.70526 0.15937-0.39391 0.0811 0.31135 0.0758 0.74335-0.0118 0.96-0.0877 0.21665-0.15404-0.03809-0.14752-0.56609zm-16.96-0.32c0.0065-0.528 0.07824-0.70526 0.15937-0.39391 0.08113 0.31135 0.0758 0.74335-0.01186 0.96-0.08766 0.21665-0.15404-0.03809-0.14752-0.56609zm-34.302 0.16c0-0.23467 0.096-0.33067 0.21333-0.21333s0.11733 0.30933 0 0.42667c-0.11733 0.11733-0.21333 0.02133-0.21333-0.21333zm63.422-0.48c7e-3 -0.528 0.0782-0.70526 0.15937-0.39391 0.0811 0.31135 0.0758 0.74335-0.0118 0.96-0.0877 0.21665-0.15404-0.03809-0.14752-0.56609zm-45.772-0.16c0-0.44 0.07263-0.62 0.1614-0.4 0.08877 0.22 0.08877 0.58 0 0.8s-0.1614 0.04-0.1614-0.4zm-17.331-0.64c0-0.23467 0.096-0.33067 0.21333-0.21333s0.11733 0.30933 0 0.42667c-0.11733 0.11733-0.21333 0.02133-0.21333-0.21333zm8.0624-0.8c0.0065-0.528 0.07824-0.70526 0.15937-0.39391 0.08113 0.31135 0.0758 0.74335-0.01186 0.96-0.08765 0.21665-0.15404-0.03809-0.14752-0.56609zm43.163 0.29333c0.0154-0.37278 0.0912-0.44861 0.19333-0.19333 0.0924 0.231 0.0811 0.507-0.0253 0.61333-0.10633 0.10633-0.18196-0.08267-0.16807-0.42zm-16.935-0.45333c0-0.44 0.07263-0.62 0.1614-0.4 0.08877 0.22 0.08877 0.58 0 0.8s-0.1614 0.04-0.1614-0.4zm-33.945-0.18667c0.01535-0.37278 0.09118-0.44861 0.19333-0.19333 0.09244 0.231 0.08107 0.507-0.02526 0.61333-0.10633 0.10633-0.18196-0.08267-0.16807-0.42zm17.317-0.61333c0.0065-0.528 0.07824-0.70526 0.15937-0.39391 0.08113 0.31135 0.0758 0.74335-0.01186 0.96-0.08765 0.21665-0.15404-0.03809-0.14752-0.56609zm33.883-0.34667c0.0154-0.37278 0.0912-0.44861 0.19333-0.19333 0.0924 0.231 0.0811 0.507-0.0253 0.61333-0.10633 0.10633-0.18196-0.08267-0.16807-0.42zm-50.88-0.32c0.01535-0.37278 0.09118-0.44861 0.19333-0.19333 0.09244 0.231 0.08107 0.507-0.02526 0.61333-0.10633 0.10633-0.18196-0.08267-0.16807-0.42zm7.729-0.77333c0-0.616 0.06585-0.868 0.14634-0.56 0.08049 0.308 0.08049 0.812 0 1.12s-0.14634 0.056-0.14634-0.56zm26.191 0.45333c0.01535-0.37278 0.09118-0.44861 0.19333-0.19333 0.09244 0.231 0.08107 0.507-0.02526 0.61333-0.10633 0.10633-0.18196-0.08267-0.16807-0.42zm17.255-0.45333c0-0.23467 0.096-0.33067 0.21333-0.21333s0.11733 0.30933 0 0.42667c-0.11733 0.11733-0.21333 0.02133-0.21333-0.21333zm17.945-0.18667c0.0154-0.37278 0.0912-0.44861 0.19333-0.19333 0.0924 0.231 0.0811 0.507-0.0253 0.61333-0.10633 0.10633-0.18196-0.08267-0.16807-0.42zm-68.8-0.32c0.01535-0.37278 0.09118-0.44861 0.19333-0.19333 0.09244 0.231 0.08107 0.507-0.02526 0.61333-0.10633 0.10633-0.18196-0.08267-0.16807-0.42zm17.037-1.7333c0-1.144 0.05808-1.612 0.12906-1.04 0.07098 0.572 0.07098 1.508 0 2.08-0.07099 0.572-0.12906 0.104-0.12906-1.04zm16.858 1.6c0-0.23467 0.096-0.33067 0.21333-0.21333s0.11733 0.30933 0 0.42667c-0.11733 0.11733-0.21333 0.02133-0.21333-0.21333zm17.293-0.09589c-0.0258-0.51457 0.90145-2.0024 1.6344-2.6226l0.75276-0.63696-0.68109 0.79771c-0.3746 0.43874-0.90884 1.2297-1.1872 1.7577s-0.51186 0.84485-0.51891 0.70411zm17.147-0.71648c-0.30879-0.8047-0.2177-1.0123 0.15953-0.36363 0.18678 0.3212 0.27219 0.65141 0.1898 0.7338-0.0824 0.08239-0.23959-0.08419-0.34933-0.37017zm-68.04-0.14763c0-0.23467 0.096-0.33067 0.21333-0.21333s0.11733 0.30933 0 0.42667c-0.11733 0.11733-0.21333 0.02133-0.21333-0.21333zm33.93 0.08505c-0.0054-0.21722 0.38627-0.80016 0.87027-1.2954 0.484-0.49526 0.64766-0.60553 0.3637-0.24505-0.28396 0.36048-0.67558 0.94342-0.87027 1.2954-0.19468 0.352-0.35835 0.46227-0.3637 0.24505zm-33.61-1.365c0-0.23467 0.096-0.33067 0.21333-0.21333s0.11733 0.30933 0 0.42667c-0.11733 0.11733-0.21333 0.02133-0.21333-0.21333zm66.462-0.49011c-0.49381-0.43444-0.77091-0.78989-0.61578-0.78989 0.15514 0 0.62027 0.36 1.0336 0.8 0.95636 1.018 0.74496 1.0129-0.41785-0.01011zm-42.462-0.46989c0-0.23467 0.096-0.33067 0.21333-0.21333 0.11733 0.11733 0.11733 0.30933 0 0.42667-0.11733 0.11733-0.21333 0.02133-0.21333-0.21333zm-23.68-0.32c0-0.23467 0.096-0.33067 0.21333-0.21333s0.11733 0.30933 0 0.42667c-0.11733 0.11733-0.21333 0.02133-0.21333-0.21333zm35.52 0.16c0-0.088 0.072-0.16 0.16-0.16s0.16 0.072 0.16 0.16-0.072 0.16-0.16 0.16-0.16-0.072-0.16-0.16zm17.28 0c0-0.088 0.072-0.16 0.16-0.16s0.16 0.072 0.16 0.16-0.072 0.16-0.16 0.16-0.16-0.072-0.16-0.16zm-34.468-0.39682c1.0184-0.0637 2.6024-0.06311 3.52 0.0013 0.91757 0.06442 0.08432 0.11653-1.8517 0.11581-1.936-7.22e-4 -2.6867-0.05343-1.6683-0.11712zm21.092-0.0012c1.5311-0.05853 4.1231-0.05881 5.76-6.1e-4 1.6369 0.05819 0.38419 0.10608-2.7838 0.10642-3.168 3.35e-4 -4.5073-0.04728-2.9762-0.10581zm17.296-2.37e-4c1.54-0.05866 4.06-0.05866 5.6 0s0.28 0.10666-2.8 0.10666-4.34-0.048-2.8-0.10666zm-56.338-1.2017c0.0065-0.528 0.07824-0.70526 0.15937-0.39391 0.08113 0.31135 0.0758 0.74335-0.01186 0.96-0.08765 0.21665-0.15404-0.03809-0.14752-0.56609z" fill="#d5b397"/>
  <path d="m26.554 116.17c0.55445-0.70006 2.0963-2.2756 3.4264-3.5012 2.3763-2.1896 2.4287-2.2717 3.0163-4.7272 0.32889-1.3744 0.59911-3.2399 0.60048-4.1457 0.0023-1.4846-0.10846-1.7443-1.1235-2.6355-0.61932-0.54377-2.9233-2.1635-5.12-3.5994-2.1967-1.4359-3.994-2.7116-3.994-2.8349s0.30979-0.4985 0.68842-0.83378c1.1696-1.0356 2.5117-3.4057 2.5099-4.4322-9.27e-4 -0.53754-0.55569-3.0986-1.2328-5.6912-0.67712-2.5926-1.1558-4.7892-1.0637-4.8813 0.2191-0.2191 2.5903 9.3263 2.6061 10.491 0.01505 1.1097-0.71417 2.56-2.1097 4.1956l-1.0677 1.2515 4.2348 2.775c5.5889 3.6623 5.9948 4.089 5.9948 6.3025 0 0.95326-0.23467 2.7696-0.52149 4.0364-0.51845 2.2897-0.54022 2.3214-3.7294 5.4271-1.7644 1.7182-3.135 3.1968-3.0459 3.2859 0.0891 0.0891 1.4951-0.35287 3.1245-0.98214s3.0156-1.091 3.0806-1.0261c0.12143 0.12143-6.6167 2.7984-7.0438 2.7984-0.13104 0 0.21538-0.57277 0.76983-1.2728zm6.7538-1.7288c0.24788-0.26513 4.7851-1.8052 5.228-1.7745 0.18917 0.0131-0.61591 0.35954-1.7891 0.76987-2.9472 1.0308-3.6573 1.2383-3.4389 1.0047zm103.01-1.9584c-1.672-0.58836-2.8852-1.081-2.696-1.0949 0.18917-0.0138 1.4015 0.33456 2.694 0.77418s2.4062 0.74317 2.4748 0.67455c0.0686-0.0686-1.1034-1.1369-2.6044-2.374-2.8456-2.3452-6.9941-5.0463-10.36-6.7455-1.9214-0.96993-2.0792-0.99443-6.4033-0.99443-4.3133 0-4.4537-0.0216-5.1837-0.79874-0.4127-0.43931-0.65582-0.89329-0.54026-1.0088s0.51058 0.17187 0.87782 0.63874c0.66397 0.84409 0.69208 0.84885 5.0179 0.84885h4.3502l3.0666 1.6379c1.6866 0.90085 4.3286 2.502 5.8711 3.558 2.7502 1.883 7.426 5.9874 6.7955 5.9651-0.176-6e-3 -1.688-0.49269-3.36-1.081zm-96.32-0.32c0.616-0.23722 1.336-0.43131 1.6-0.43131s-0.024 0.19409-0.64 0.43131-1.336 0.43131-1.6 0.43131 0.024-0.19409 0.64-0.43131zm2.72-0.8c0.352-0.15126 0.856-0.27502 1.12-0.27502 0.30255 0 0.2434 0.10167-0.16 0.27502-0.352 0.15126-0.856 0.27501-1.12 0.27501-0.30255 0-0.2434-0.10166 0.16-0.27501zm88.96-0.32c-0.40341-0.17335-0.46256-0.27502-0.16-0.27502 0.264 0 0.768 0.12376 1.12 0.27502 0.4034 0.17335 0.46255 0.27501 0.16 0.27501-0.264 0-0.768-0.12375-1.12-0.27501zm-86.94-0.2186c0.231-0.0924 0.507-0.0811 0.61333 0.0253 0.10633 0.10634-0.08267 0.18197-0.42 0.16807-0.37278-0.0153-0.44861-0.0912-0.19333-0.19333zm1.28-0.32c0.231-0.0924 0.507-0.0811 0.61333 0.0253 0.10633 0.10634-0.08267 0.18197-0.42 0.16807-0.37278-0.0154-0.44861-0.0912-0.19333-0.19333zm82.62-0.2614c-0.792-0.22944-1.152-0.42024-0.8-0.42399 0.352-4e-3 1.216 0.18301 1.92 0.41503 1.6572 0.54615 0.75911 0.55334-1.12 9e-3zm-81.34-0.0586c0.231-0.0924 0.507-0.0811 0.61333 0.0253 0.10633 0.10634-0.08267 0.18197-0.42 0.16807-0.37278-0.0153-0.44861-0.0912-0.19333-0.19333zm1.28-0.32c0.231-0.0924 0.507-0.0811 0.61333 0.0253 0.10633 0.10634-0.08267 0.18197-0.42 0.16807-0.37278-0.0154-0.44861-0.0912-0.19333-0.19333zm1.28-0.32c0.231-0.0924 0.507-0.0811 0.61333 0.0253 0.10633 0.10634-0.08267 0.18197-0.42 0.16807-0.37278-0.0153-0.44861-0.0912-0.19333-0.19333zm76.48 0c0.231-0.0924 0.507-0.0811 0.61333 0.0253 0.10633 0.10634-0.0827 0.18197-0.42 0.16807-0.37278-0.0153-0.44861-0.0912-0.19333-0.19333zm-75.22-0.31333c0.22-0.0888 0.58-0.0888 0.8 0s0.04 0.1614-0.4 0.1614-0.62-0.0726-0.4-0.1614zm73.94-0.00667c0.231-0.0924 0.507-0.0811 0.61333 0.0253 0.10633 0.10634-0.0827 0.18197-0.42 0.16807-0.37278-0.0154-0.44861-0.0912-0.19333-0.19333zm-72.32-0.32c0.231-0.0924 0.507-0.0811 0.61333 0.0253 0.10633 0.10634-0.08267 0.18197-0.42 0.16807-0.37278-0.0153-0.44861-0.0912-0.19333-0.19333zm68.06-0.44535c-1.4992-0.34807-1.9633-0.52754-1.12-0.43313 1.7264 0.19328 5.2298 1.0261 4.32 1.0269-0.352 3.2e-4 -1.792-0.26688-3.2-0.59376zm-66.8 0.13202c0.22-0.0888 0.58-0.0888 0.8 0s0.04 0.1614-0.4 0.1614-0.62-0.0726-0.4-0.1614zm1.6-0.32c0.22-0.0888 0.58-0.0888 0.8 0s0.04 0.1614-0.4 0.1614-0.62-0.0726-0.4-0.1614zm2.16-0.42807c0.528-0.13436 1.392-0.24476 1.92-0.24534 0.80715-8.9e-4 0.7562 0.0411-0.32 0.2637-1.621 0.33528-2.9308 0.32026-1.6-0.0184zm59.126-0.22176c0.31135-0.0811 0.74335-0.0758 0.96 0.0119 0.21665 0.0876-0.0381 0.15404-0.56609 0.14751-0.528-7e-3 -0.70526-0.0782-0.39391-0.15937zm-55.68-0.32c0.31135-0.0811 0.74335-0.0758 0.96 0.0119 0.21665 0.0876-0.03809 0.15404-0.56609 0.14751-0.528-7e-3 -0.70526-0.0782-0.39391-0.15937zm53.434 1e-3c0.308-0.0805 0.812-0.0805 1.12 0s0.056 0.14635-0.56 0.14635-0.868-0.0659-0.56-0.14635zm-51.52-0.32c0.308-0.0805 0.812-0.0805 1.12 0s0.056 0.14635-0.56 0.14635-0.868-0.0659-0.56-0.14635zm49.28 0c0.308-0.0805 0.812-0.0805 1.12 0s0.056 0.14635-0.56 0.14635-0.868-0.0659-0.56-0.14635zm-47.04-0.32c0.308-0.0805 0.812-0.0805 1.12 0s0.056 0.14635-0.56 0.14635-0.868-0.0659-0.56-0.14635zm44.8 0c0.308-0.0805 0.812-0.0805 1.12 0s0.056 0.14635-0.56 0.14635-0.868-0.0659-0.56-0.14635zm-42.24-0.32c0.308-0.0805 0.812-0.0805 1.12 0s0.056 0.14635-0.56 0.14635-0.868-0.0659-0.56-0.14635zm39.68 0c0.308-0.0805 0.812-0.0805 1.12 0s0.056 0.14635-0.56 0.14635-0.868-0.0659-0.56-0.14635zm-36.96-0.32525c0.396-0.0763 1.044-0.0763 1.44 0s0.072 0.13868-0.72 0.13868-1.116-0.0624-0.72-0.13868zm33.764-4e-3c0.48642-0.0735 1.2064-0.0716 1.6 4e-3 0.39358 0.076-4e-3 0.13614-0.8844 0.13373-0.88-2e-3 -1.202-0.0645-0.7156-0.1381zm-64.34-0.47399c-0.44773-0.44773-0.51174-1.216-0.10132-1.216 0.15547 0 0.35799 0.288 0.45004 0.64 0.15392 0.5886 0.43648 0.64 3.5181 0.64 2.2945 0 3.4529-0.12609 3.6747-0.4 0.17817-0.22 1.5998-5.0602 3.1592-10.756s2.8825-10.12 2.9404-9.8313c0.15202 0.75866-5.3778 20.782-5.8167 21.062-0.63731 0.40663-7.3989 0.28642-7.8245-0.1391zm14.416 0.17207c-0.45158-0.18222-0.5535-1.3881-0.11732-1.3881 0.15547 0 0.35799 0.288 0.45004 0.64 0.15461 0.59122 0.43648 0.64 3.6984 0.64 2.2896 0 3.61-0.12774 3.7556-0.36333 0.1235-0.19983 0.62574-1.949 1.1161-3.887 0.49034-1.938 1.0818-3.6443 1.3143-3.7918 0.23254-0.14744 0.7828-0.25325 1.2228-0.23512 0.72702 0.02995 0.71335 0.05153-0.14985 0.23648-0.90984 0.19495-0.99073 0.3585-1.92 3.8821-0.53358 2.0232-1.0866 3.8586-1.229 4.0786-0.18443 0.28495-1.3349 0.39273-4 0.37473-2.0576-0.0139-3.9211-0.0979-4.1411-0.18666zm19.686-0.02c0.57515-0.0712 1.4392-0.0697 1.92 3e-3 0.48085 0.073 0.01027 0.13129-1.0457 0.12949-1.056-2e-3 -1.4494-0.0615-0.87427-0.13276zm26.24 0c0.57515-0.0712 1.4392-0.0697 1.92 3e-3 0.48085 0.073 0.0103 0.13129-1.0457 0.12949-1.056-2e-3 -1.4494-0.0615-0.87427-0.13276zm-21.113-0.32533c1.1069-0.0627 2.8349-0.0622 3.84 1e-3 1.0051 0.0633 0.09946 0.11457-2.0125 0.11393-2.112-6.3e-4 -2.9344-0.0524-1.8275-0.11508zm14.08 0c1.1069-0.0627 2.8349-0.0622 3.84 1e-3 1.0051 0.0633 0.09946 0.11457-2.0125 0.11393-2.112-6.3e-4 -2.9344-0.0524-1.8275-0.11508zm-6.5629-0.31836c0.84131-0.0661 2.1373-0.0653 2.88 2e-3 0.74269 0.0671 0.05434 0.12123-1.5297 0.12025-1.584-9.7e-4 -2.1917-0.0559-1.3503-0.12202zm-18.821-2.0229c-0.12144-0.19649-0.06055-0.51751 0.13532-0.71337 0.26149-0.26149 0.35612-0.21157 0.35612 0.18788 0 0.48078 0.432 0.544 3.7173 0.544h3.7173l-0.16306-0.85297c-0.17392-0.90983 0.46596-5.5034 0.8541-6.1315 0.12766-0.20656 0.61962-0.35596 1.0932-0.33199 0.78235 0.03959 0.79346 0.0565 0.12155 0.18482-0.96343 0.184-1.0561 0.48232-1.2973 4.1784l-0.20317 3.1132-4.0553 0.0894c-2.7302 0.0602-4.1275-0.0274-4.2761-0.26788zm9.4514-0.30148c0-0.352 0.144-0.64 0.32-0.64s0.32 0.216 0.32 0.48c0 0.41357 1.0819 0.48 7.8173 0.48h7.8173l0.39965-1.84c0.2198-1.012 0.41001-2.4515 0.42269-3.199 0.01267-0.74744 0.15193-1.3594 0.30945-1.36 0.34717-0.0012 0.03364 3.8427-0.45016 5.519l-0.34633 1.2h-8.305c-8.0916 0-8.305-0.0164-8.305-0.64zm19.672-0.13881c-0.43566-0.43565-0.7921-0.97474-0.7921-1.198 0-0.22323 0.42388 0.0582 0.94196 0.62545l0.94196 1.0313h12.145l0.16483-0.88c0.0907-0.484 0.25493-1.564 0.36504-2.4 0.18367-1.3946 0.27119-1.5181 1.0606-1.4975 0.7527 0.01968 0.78029 0.05373 0.2204 0.27208-0.50335 0.19629-0.70833 0.72102-0.96 2.4575l-0.32 2.2079-12.976 0.1733zm-30.232-5.4249c0-0.06802 0.42439-0.18597 0.9431-0.2621 0.5187-0.07613 0.87021-0.02047 0.78112 0.12368-0.15856 0.25656-1.7242 0.38225-1.7242 0.13842zm19.089-1.5563c0.08191-0.132 2.2644-0.21579 4.85-0.18621 5.1276 0.05867 4.5938 0.20115-1.2689 0.3387-2.0515 0.04813-3.663-0.02049-3.5811-0.15249zm-38.097-16.24c0.18615-6.2225 0.32695-7.4312 0.78087-6.7033 0.55503 0.89009 1.4055-0.18237 2.5162-3.1729 0.59898-1.6128 1.1431-2.8783 1.2091-2.8123 0.14429 0.14429-1.3907 4.4865-2.0251 5.7285-0.2472 0.484-0.71736 0.88-1.0448 0.88-0.54631 0-0.6148 0.42813-0.83179 5.2-0.13005 2.86-0.35695 5.488-0.50421 5.84-0.14939 0.35708-0.1937-1.8356-0.10023-4.96zm-18.865 0.17671c0.85045-0.37004 1.0621-0.69426 1.36-2.0832 0.19403-0.90474 0.35279-1.9174 0.35279-2.2503 0-1.2571 0.64882-0.91386 1.9445 1.0288 0.73664 1.1045 1.564 2.1881 1.8386 2.4081s0.34036 0.4 0.14617 0.4-1.0433-0.9672-1.8868-2.1493l-1.5337-2.1493-0.36823 1.9093c-0.48298 2.5044-0.68834 2.9297-1.5226 3.1534-1.2089 0.32423-1.3774 0.18804-0.33065-0.26739zm-2.5272-0.06864c0.22-0.08877 0.58-0.08877 0.8 0s0.04 0.1614-0.4 0.1614-0.62-0.07263-0.4-0.1614zm-1.26-0.32667c0.231-0.09244 0.507-0.08107 0.61333 0.02526 0.10633 0.10633-0.08267 0.18196-0.42 0.16807-0.37278-0.01535-0.44861-0.09118-0.19333-0.19333zm10.22-0.31333c0.61374-0.24765 0.49443-3.6145-0.3889-10.974-0.43213-3.6003-0.7179-6.6138-0.63505-6.6967 0.08285-0.08285 0.55301 0.23487 1.0448 0.70604 1.234 1.1823 2.1903 1.1193 2.7816-0.18333 0.25967-0.572 1.1287-3.704 1.9311-6.96 2.0537-8.3329 2.083-8.433 2.3799-8.1207 0.14678 0.15439 1.025 2.4941 1.9515 5.1993 0.94952 2.7723 1.9749 5.1982 2.3498 5.5595l0.66521 0.64091-0.69652-0.35818c-0.71079-0.36552-1.1955-1.4633-3.0905-7.0004-0.55712-1.6278-1.1003-2.9598-1.207-2.96-0.10672-2.02e-4 -0.99937 3.1842-1.9837 7.0764-1.0126 4.004-2.0267 7.3387-2.3356 7.68-0.66928 0.73955-1.4981 0.76778-2.538 0.08644-0.76262-0.49969-0.78874-0.49142-0.78874 0.24956 0 0.4215 0.2117 2.4901 0.47045 4.5968 1.1835 9.6362 1.1975 11.718 0.07829 11.645-0.293-0.01904-0.29023-0.06501 0.01126-0.18667zm12.941-8.7481c-0.01337-0.792 0.09483-2.016 0.24044-2.72l0.26476-1.28 0.0088 1.12c0.0048 0.616-0.10338 1.84-0.24044 2.72l-0.24921 1.6zm4.0988-4.16c0-0.23467 0.096-0.33067 0.21333-0.21333 0.11733 0.11733 0.11733 0.30933 0 0.42667s-0.21333 0.02133-0.21333-0.21333zm0.32-0.96c0-0.23467 0.096-0.33067 0.21333-0.21333 0.11733 0.11733 0.11733 0.30933 0 0.42667s-0.21333 0.02133-0.21333-0.21333zm-4.2241-0.91361c0.40225-0.25515 1.5372-8.6 1.2137-8.9235-0.0797-0.0797-0.44588 0.44505-0.81373 1.1661s-0.83222 1.311-1.0319 1.311c-0.22145 0-0.17092-0.21846 0.12952-0.56 0.27094-0.308 0.86255-1.28 1.3147-2.16l0.82208-1.6 0.01227 1.28c0.0068 0.704-0.12793 2.576-0.29928 4.16-0.57211 5.2885-0.64028 5.6004-1.2228 5.5951-0.40703-0.0037-0.43776-0.07-0.1245-0.26871zm4.5441 0.11361c0-0.088 0.072-0.16 0.16-0.16s0.16 0.072 0.16 0.16-0.072 0.16-0.16 0.16-0.16-0.072-0.16-0.16z" fill="#e39b5f"/>
  <path d="m43.486 104.34c2.4811-0.13229 3.397-0.29935 3.604-0.65736 0.15265-0.264 1.5876-5.232 3.1887-11.04 1.6011-5.808 2.9837-10.81 3.0724-11.116 0.27044-0.93317 0.72848-0.28151 0.72848 1.0364 0 1.1985-0.45575 1.9928-0.70844 1.2347-0.06771-0.20312-1.3905 4.224-2.9396 9.838s-2.9636 10.387-3.1434 10.607c-0.23058 0.28211-1.3292 0.38154-3.7278 0.33736l-3.4008-0.0626zm14.526 0.0637c3.2668-0.0975 3.4672-0.14265 3.733-0.84189 0.15451-0.4064 1.3135-4.7575 2.5756-9.6691 4.1332-16.085 6.9805-26.833 7.3675-27.81 0.2091-0.528 0.49874-1.356 0.64364-1.84l0.26346-0.88h-6.0034l-0.23092 3.68-0.12102-4h6.7322l-0.19337 0.88c-0.10635 0.484-0.41008 1.4554-0.67494 2.1586-0.52054 1.382-3.8612 14.025-7.4621 28.241-1.2371 4.884-2.3885 9.204-2.5587 9.6-0.29735 0.69197-0.44981 0.71735-3.9163 0.65204l-3.6069-0.068zm13.908-2.5598 3.28-0.10371v-1.5865c0-1.2174 2.1026-17.165 4.0808-30.951l0.14923-1.04h-6.762l-0.22087 4.64-0.12716-4.96h7.4244l-0.1416 1.36c-0.07788 0.748-0.88169 6.76-1.7862 13.36-2.1222 15.484-2.2975 16.883-2.297 18.32l4.08e-4 1.2-6.88-0.135zm13.557-9.4e-4 7.5575-0.0918 0.40911-1.9943c0.42389-2.0664 0.9381-3.4274 0.93479-2.4743-0.0023 0.66273-0.82107 4.0305-1.0829 4.4541-0.14557 0.23553-2.6324 0.32229-7.7949 0.27195l-7.5811-0.0739zm11.691-3.5e-4c-0.08186-0.132 2.7076-0.1957 6.1987-0.14156l6.3476 0.0984 0.21748-1.5384c0.43431-3.0722 0.78188-3.9017 0.59738-1.4257-0.0964 1.294-0.25255 2.554-0.34695 2.8-0.139 0.36223-1.3784 0.44728-6.5185 0.44728-3.4908 0-6.4139-0.108-6.4957-0.24zm17.28-0.64c-0.0818-0.132 2.7137-0.19825 6.2123-0.14721 7.0925 0.10346 7.7196-0.0325 8.8786-1.925 0.99057-1.6176 1.231-2.8814 2.6358-13.856 1.2305-9.6125 1.3936-12.585 0.78992-14.392-0.20086-0.60115-0.19093-0.60414 0.16346-0.0492 0.80353 1.2582 0.67517 4.2834-0.62056 14.625-0.71776 5.7289-1.5226 11.149-1.7885 12.044-0.33696 1.1346-0.87127 1.9785-1.7626 2.7838l-1.2791 1.1556h-6.5402c-3.5971 0-6.6072-0.108-6.689-0.24zm-1.6921-6c8.3e-4 -1.76 0.0546-2.4392 0.11942-1.5093 0.0648 0.9299 0.0642 2.3699-2e-3 3.2-0.0657 0.8301-0.11873 0.06927-0.1179-1.6907zm-43.957 1.28c0-0.088 0.072-0.16 0.16-0.16s0.16 0.072 0.16 0.16-0.072 0.16-0.16 0.16-0.16-0.072-0.16-0.16zm33.626-0.45688c-0.29117-0.1843-0.43451-0.77319-0.40035-1.6448 0.10506-2.6814 2.3556-19.035 2.7272-19.818 0.37443-0.78875 0.43455-0.8 4.2771-0.8 4.46 0 4.0961 0.28109 4.4539-3.44l0.20766-2.16h-6.0828c-5.6091 0-6.1465 0.05011-6.9008 0.64344-0.9859 0.77551-1.6928 2.5391-2.3073 5.7566-0.43002 2.2515-0.4475 2.2841-0.28248 0.52641 0.27224-2.8996 1.0234-5.0123 2.2006-6.1896l1.0568-1.0568h12.639l-0.20348 2.48c-0.33482 4.0809 0.0317 3.7715-4.4618 3.7654-3.8621-0.0053-3.8982 0.0015-4.2895 0.81172-0.45307 0.93803-2.7372 18.528-2.5946 19.98l0.0945 0.9627 7.36 0.35234-3.52 0.05893c-1.936 0.03241-3.7241-0.07026-3.9736-0.22816zm7.6536-0.02311c0-0.23467 0.096-0.33067 0.21333-0.21333 0.11733 0.11733 0.11733 0.30933 0 0.42667-0.11733 0.11733-0.21333 0.02133-0.21333-0.21333zm8.9626-0.31506c-0.25554-0.47749 0.0166-3.1766 1.0968-10.879 0.79013-5.634 1.5911-10.532 1.7799-10.885 0.29157-0.54481 0.66921-0.64138 2.508-0.64138 1.257 0 2.3258 0.16102 2.5487 0.384 0.44463 0.44463 0.47077 2.1006 0.0621 3.936-0.23643 1.0619-0.25565 0.94311-0.11277-0.69726 0.26966-3.0961 0.12602-3.3027-2.2957-3.3027-1.7225 0-2.1017 0.10192-2.3911 0.64267-0.18917 0.35347-0.90879 4.7095-1.5992 9.68s-1.325 9.5136-1.4102 10.096c-0.25828 1.7639-0.0193 1.9821 2.165 1.9766 1.0812-0.0027 2.1561-0.12556 2.3887-0.27303s0.61382-1.4053 0.84719-2.7951 0.43907-2.1506 0.45711-1.6906c0.0609 1.5516-0.61033 4.2808-1.1519 4.6837-0.2962 0.22036-1.4393 0.4-2.5452 0.4-1.6749 0-2.0639-0.10525-2.3474-0.63506zm-49.862-0.32495c-0.0072-0.44 0.10222-1.448 0.24315-2.24 0.19214-1.0798 0.26163-1.1999 0.27784-0.48 0.01189 0.528-0.09753 1.536-0.24315 2.24-0.16573 0.80122-0.26965 0.98076-0.27784 0.48zm15.939-0.01529c0-0.73752 3.1404-24.021 3.4076-25.265 0.09455-0.44 0.24022-1.052 0.32372-1.36 0.13761-0.50758-0.1647-0.56-3.2297-0.56h-3.3816l-0.02372 1.52c-0.01305 0.836-0.15108 2.168-0.30674 2.96-0.28205 1.4351-0.28252 1.434-0.13906-0.32 0.07918-0.968 0.14521-2.372 0.14674-3.12l0.0028-1.36h7.3995l-0.18726 1.2c-0.103 0.66-0.24937 1.416-0.32528 1.68-0.36681 1.2757-3.3707 24.695-3.2025 24.967 0.10632 0.17203 0.04081 0.31278-0.14558 0.31278-0.18639 0-0.33889-0.29488-0.33889-0.65529zm-6.72 0.17529c0-0.088 0.072-0.16 0.16-0.16s0.16 0.072 0.16 0.16-0.072 0.16-0.16 0.16-0.16-0.072-0.16-0.16zm17.022-0.96c0.0065-0.528 0.07824-0.70526 0.15937-0.39391 0.08113 0.31135 0.0758 0.74335-0.01186 0.96s-0.15404-0.03809-0.14752-0.56609zm-16.628-0.48c0-0.616 0.06585-0.868 0.14634-0.56 0.08049 0.308 0.08049 0.812 0 1.12s-0.14634 0.056-0.14634-0.56zm16.947-1.6c-0.0071-0.616 0.17506-2.272 0.40478-3.68s0.42232-2.128 0.42798-1.6c0.0057 0.528-0.17649 2.184-0.40478 3.68s-0.42088 2.216-0.42798 1.6zm-16.639-0.48c-0.0078-0.528 0.17371-2.112 0.40344-3.52s0.42409-2.128 0.43192-1.6c0.0078 0.528-0.17371 2.112-0.40344 3.52s-0.42409 2.128-0.43192 1.6zm33.938-1.28c4e-3 -0.704 0.0691-0.95432 0.14562-0.55627 0.0765 0.39805 0.0736 0.97405-6e-3 1.28-0.0801 0.30595-0.14272-0.01973-0.13916-0.72373zm-43.2-0.32c0.0036-0.704 0.06908-0.95432 0.14562-0.55627 0.07654 0.39805 0.07364 0.97405-0.0065 1.28-0.08009 0.30595-0.14272-0.01973-0.13917-0.72373zm55.354-1.12c0-0.616 0.0659-0.868 0.14634-0.56 0.0805 0.308 0.0805 0.812 0 1.12s-0.14634 0.056-0.14634-0.56zm-11.85-0.8c-9e-3 -0.528 0.099-1.608 0.23989-2.4 0.189-1.0622 0.26052-1.1881 0.27256-0.48 9e-3 0.528-0.099 1.608-0.23989 2.4-0.18899 1.0622-0.26051 1.1881-0.27256 0.48zm-43.19-0.48c0-0.616 0.06585-0.868 0.14634-0.56 0.08049 0.308 0.08049 0.812 0 1.12s-0.14634 0.056-0.14634-0.56zm55.36-0.96c0-0.616 0.0658-0.868 0.14634-0.56 0.0805 0.308 0.0805 0.812 0 1.12s-0.14634 0.056-0.14634-0.56zm-78.329-6.88c0.26747-9.3171 0.71473-15.236 1.1837-15.666 0.26732-0.24458 0.30808-0.1722 0.15168 0.26936-0.37668 1.0635-0.87424 11.708-0.79068 16.915 0.06125 3.8172-0.02058 5.136-0.33755 5.44-0.34429 0.33017-0.38098-0.90252-0.20712-6.9588zm12.899-4.72-0.08389-11.92h-3.25c-1.7875 0-3.183-0.108-3.1011-0.24 0.0819-0.132 1.565-0.24 3.2958-0.24 2.5743 0 3.1822 0.09209 3.3411 0.50617 0.10683 0.27839 0.19424 5.3904 0.19424 11.36 0 6.8146 0.11576 10.854 0.31106 10.854 0.27788 0 0.8734-1.7192 1.4739-4.2549 0.11656-0.4922 0.2747-0.83213 0.35142-0.7554 0.38418 0.38418-1.6571 6.6103-2.1672 6.6103-0.15528 0-0.31896-5.3416-0.36526-11.92zm10.39 10.32c0-0.616 0.06585-0.868 0.14634-0.56 0.08049 0.308 0.08049 0.812 0 1.12s-0.14634 0.056-0.14634-0.56zm26.24-0.64c0-0.616 0.06585-0.868 0.14634-0.56 0.08049 0.308 0.08049 0.812 0 1.12s-0.14634 0.056-0.14634-0.56zm-16.65-0.16c-9e-3 -0.528 0.09897-1.608 0.23989-2.4 0.189-1.0622 0.26051-1.1881 0.27256-0.48 9e-3 0.528-0.09897 1.608-0.23989 2.4-0.189 1.0622-0.26051 1.1881-0.27256 0.48zm45.759 0c-8e-3 -0.528 0.17371-2.112 0.40343-3.52 0.22973-1.408 0.4241-2.128 0.43193-1.6 8e-3 0.528-0.17371 2.112-0.40344 3.52s-0.42409 2.128-0.43192 1.6zm-55.047-1.28c-0.0092-0.528 0.31664-3.192 0.72417-5.92s0.75228-4.6 0.76611-4.16c0.01383 0.44-0.31205 3.104-0.72417 5.92s-0.75687 4.688-0.76611 4.16zm43.21 0c-0.01-0.528 0.16835-2.184 0.39597-3.68 0.22763-1.496 0.42192-2.288 0.43176-1.76 0.01 0.528-0.16834 2.184-0.39597 3.68-0.22762 1.496-0.42191 2.288-0.43176 1.76zm-16.962-0.64c-9e-3 -0.528 0.09897-1.608 0.23989-2.4 0.189-1.0622 0.26051-1.1881 0.27256-0.48 9e-3 0.528-0.09897 1.608-0.23989 2.4-0.189 1.0622-0.26051 1.1881-0.27256 0.48zm-16.31-3.04c0-0.616 0.06585-0.868 0.14634-0.56 0.08049 0.308 0.08049 0.812 0 1.12s-0.14634 0.056-0.14634-0.56zm-17.994 0.20175c0-0.56016 1.379-5.6495 1.4984-5.53 0.14054 0.14054-1.1345 5.3901-1.3654 5.6216-0.07313 0.07333-0.13296 0.03212-0.13296-0.09158zm34.954-2.1218c0-0.616 0.06585-0.868 0.14634-0.56 0.08049 0.308 0.08049 0.812 0 1.12s-0.14634 0.056-0.14634-0.56zm-16.65-0.16c-9e-3 -0.528 0.09897-1.608 0.23989-2.4 0.189-1.0622 0.26051-1.1881 0.27256-0.48 9e-3 0.528-0.09897 1.608-0.23989 2.4-0.189 1.0622-0.26051 1.1881-0.27256 0.48zm33.883-1.44c-0.0276-1.2395 0.86058-4.684 1.5625-6.0598 1.281-2.511 1.5428-2.5888 8.4534-2.5135l6.1168 0.06671-6.2719 0.17329c-4.7752 0.13194-6.4035 0.28273-6.8234 0.63188-0.93632 0.77861-1.8405 2.9136-2.443 5.7686-0.3172 1.5031-0.58472 2.3728-0.59451 1.9328zm-50.562-2.7467c0.01535-0.37278 0.09118-0.44861 0.19333-0.19333 0.09244 0.231 0.08107 0.507-0.02526 0.61333-0.10633 0.10633-0.18196-0.08267-0.16807-0.42zm0.29474-0.89158c0-0.56016 1.379-5.6495 1.4984-5.53 0.14054 0.14054-1.1345 5.3901-1.3654 5.6216-0.07313 0.07333-0.13296 0.03212-0.13296-0.09158zm67.228-3.8439-0.77248-0.99783 0.91551 0.8703c0.50354 0.47867 0.85115 0.92769 0.77249 0.99783-0.0787 0.07014-0.49065-0.3215-0.91552-0.8703z" fill="#a49e93"/>
  <path d="m27.445 115.61c0.57213-0.72237 2.0235-2.1851 3.2253-3.2506 2.1394-1.8967 2.1962-1.9878 2.7174-4.3597 0.29277-1.3324 0.53231-3.1908 0.53231-4.1298 0-2.1838-0.42013-2.6236-5.9948-6.2766l-4.2348-2.775 1.0677-1.2515c1.3625-1.597 2.1218-3.0756 2.1218-4.1319 0-0.45769-0.504-2.8335-1.12-5.2796-0.616-2.4461-1.12-4.5744-1.12-4.7295 0-0.15513 0.89964-0.09665 1.9992 0.12994 3.2655 0.67294 3.5709 0.4624 4.2213-2.9098l0.36823-1.9093 1.5337 2.1493c1.6201 2.2704 2.7171 2.7807 3.367 1.5664 0.32838-0.61358 0.08907-4.0197-0.77899-11.088-0.25875-2.1067-0.47045-4.1753-0.47045-4.5968 0-0.74098 0.02612-0.74924 0.78874-0.24956 1.0399 0.68134 1.8687 0.65311 2.538-0.08644 0.30888-0.34131 1.323-3.676 2.3356-7.68 0.9843-3.8922 1.877-7.0758 1.9837-7.0746 0.10672 0.0012 0.89947 2.0386 1.7617 4.5276s1.8235 4.7813 2.1363 5.0941c0.82815 0.82815 1.8192 0.42139 2.5729-1.056 0.35632-0.69845 0.71306-1.2047 0.79276-1.125 0.18754 0.18754-0.73786 8.5721-0.97193 8.8062-0.09769 0.09769-0.17762-0.13813-0.17762-0.52405 0-0.69526-0.04431-0.70086-4.8527-0.61333l-4.8527 0.08834 0.09025 9.6c0.21716 23.098 0.48024 32.365 0.93438 32.911 0.36063 0.434 1.0761 0.52765 4 0.52363 1.9584-3e-3 3.7265-0.1107 3.929-0.24 0.20252-0.12931 1.5943-4.6991 3.0927-10.155l2.7245-9.92 0.10727 9.852c0.09068 8.3286 0.18149 9.8989 0.58727 10.155 0.74678 0.47155 7.8578 0.39628 8.2279-0.0871 0.16847-0.22 0.70631-1.984 1.1952-3.92 0.48888-1.936 0.98068-3.6191 1.0929-3.7403s0.95999-0.3197 1.884-0.44123l1.68-0.22096-0.01404 0.92123c-0.0077 0.50667-0.21586 1.4877-0.46252 2.1801-0.24666 0.69236-0.35215 1.4124-0.23441 1.6 0.11773 0.18764 0.21787 0.55716 0.22252 0.82116 0.0071 0.40162 0.68777 0.48 4.1685 0.48h4.16l0.20317-3.1132c0.23037-3.53 0.3757-4.0868 1.0668-4.0868 0.63204 0 0.63756 1.2192 0.01633 3.6042-0.26054 1.0003-0.38654 2.2545-0.28 2.7872l0.19371 0.96854h16.535l0.3102-1.2c0.17061-0.66 0.44874-1.848 0.61806-2.64 0.16932-0.792 0.32328-1.2059 0.34213-0.91982 0.06804 1.0329 1.6252 4.0924 2.2541 4.429 0.41396 0.22154 2.9006 0.31342 6.9718 0.25758l6.3284-0.08679 0.32286-2.2362c0.39802-2.7568 1.0353-3.1072 1.9219-1.0568 1.1989 2.7727 1.289 2.813 6.3001 2.813 4.3241 0 4.4819 0.0245 6.4033 0.99443 3.3661 1.6992 7.5146 4.4002 10.36 6.7455 1.501 1.2371 2.6798 2.2986 2.6195 2.3588s-1.6536-0.38035-3.5407-0.97922c-19.51-6.1915-45.368-8.2542-67.907-5.4171-14.175 1.7843-26.242 4.8594-40.424 10.302-0.32973 0.12653-0.13678-0.29371 0.50954-1.1098zm66.955-19.455c0-0.264 0.144-0.48 0.32-0.48s0.32 0.216 0.32 0.48-0.144 0.48-0.32 0.48-0.32-0.216-0.32-0.48zm-6.4693-0.39629c0.9299-0.06484 2.3699-0.06416 3.2 0.0015 0.8301 0.06568 0.06927 0.11873-1.6907 0.1179-1.76-8.33e-4 -2.4392-0.05457-1.5093-0.11942zm-39.495-16.373c0.11252-1.655 0.20459-3.697 0.20459-4.5377 0-1.3356 0.08978-1.5415 0.71129-1.6308 0.5365-0.07713 0.92717-0.61339 1.5898-2.1823 0.48318-1.144 0.8831-1.9899 0.88871-1.8797 0.02061 0.40464-3.259 12.925-3.4262 13.08-0.09505 0.088-0.08076-1.1941 0.03177-2.8492zm3.4046-10.911c0-0.23467 0.096-0.33067 0.21333-0.21333 0.11733 0.11733 0.11733 0.30933 0 0.42667-0.11733 0.11733-0.21333 0.02133-0.21333-0.21333z" fill="#e58a25"/>
  <path d="m39.231 85.84c-0.11322-10.164-0.23844-19.488-0.27827-20.72l-0.07242-2.24 4.88-0.08834c4.7166-0.08538 4.88-0.06663 4.88 0.56 0 0.35658-0.1525 0.64834-0.33889 0.64834s-0.25921-0.12891-0.16184-0.28647c0.09738-0.15756-0.0499-0.37356-0.32729-0.48-0.61109-0.2345-7.586-0.26014-8.1858-0.03009-0.33388 0.12805-0.38071 0.8037-0.21623 3.12 0.11547 1.6261 0.23205 10.157 0.25908 18.957 0.02703 8.8 0.16172 16.684 0.29933 17.52 0.18444 1.1205 0.14743 1.52-0.1408 1.52-0.30111 0-0.43832-4.2486-0.59685-18.48zm14.605 8.16 0.0752-10.32 0.0895 9.8929c0.06008 6.6411 0.20602 10.033 0.44398 10.32 0.27082 0.32632 0.23195 0.42713-0.1647 0.42713-0.46973 0-0.51202-0.98295-0.44398-10.32zm13.881 7.8188c-0.08877-0.14364 0.04041-0.82764 0.28707-1.52 0.24666-0.69236 0.4548-1.7183 0.46252-2.28 0.0077-0.56161 0.15804-1.1101 0.33404-1.2189 0.4545-0.2809 0.39684 0.69054-0.17021 2.8676-0.39527 1.5176-0.41077 1.9324-0.08 2.1423 0.30431 0.1931 0.27051 0.26156-0.13091 0.2652-0.29761 3e-3 -0.61375-0.11262-0.70252-0.25626zm9.5666-0.77884c0.13361-0.572 0.4038-1.9282 0.60043-3.0138 0.19662-1.0856 0.4653-2.0816 0.59707-2.2133 0.36591-0.36591 0.28892 0.61515-0.25486 3.2478-0.27194 1.3165-0.40744 2.5345-0.30112 2.7065s-0.04918 0.3128-0.34556 0.3128c-0.44447 0-0.49632-0.18221-0.29595-1.04zm18.892-0.33298c-1.0181-1.5539-1.5202-4.7509-0.81449-5.187 0.1981-0.12243 0.32 0.45412 0.32 1.5135 0 1.0751 0.23611 2.1743 0.63516 2.9571 0.72551 1.423 0.63254 1.8966-0.14067 0.71651zm16.934-0.88872c-0.27921-0.53993-0.45447-1.1412-0.38948-1.3362 0.065-0.19499 0.41568 0.24677 0.77929 0.98169 0.75331 1.5226 0.38665 1.856-0.38981 0.35453zm-19.062-3.1517c-0.12935-0.36055-1.0106-0.45015-4.3049-0.43769l-4.1422 0.01566 4.32-0.24518c2.376-0.13485 4.3687-0.20116 4.4283-0.14735 0.05956 0.05381 0.05275 0.3611-0.01514 0.68288-0.09177 0.43501-0.16514 0.46878-0.28607 0.13169zm-45.94-12.347c0.24216-1.5814 3.7912-15.518 4.7127-18.506 1.4899-4.8314 0.77505-1.3844-1.8169 8.761-2.5856 10.12-3.3443 12.674-2.8958 9.7454z" fill="#a57033"/>
  <path d="m40.208 104.08c-0.08212-0.132 1.2673-0.19466 2.9987-0.13923 2.7762 0.0889 3.1842 0.0322 3.4543-0.48 0.16844-0.31943 1.6394-5.4768 3.2689-11.461s3.1105-11.208 3.2913-11.608c0.86012-1.9063 1.0204-0.34583 1.1783 11.475l0.16 11.973h6.6991l1.5352-5.92c0.84435-3.256 2.8349-10.96 4.4235-17.12 2.9961-11.618 4.7093-17.44 5.1318-17.44 0.25443 0-0.0023 1.0558-0.66133 2.72-0.38699 0.9772-3.2343 11.725-7.3675 27.81-1.2621 4.9116-2.423 9.2676-2.5798 9.68-0.27361 0.71964-0.4182 0.74985-3.589 0.74985-2.143 0-3.4388-0.13493-3.6879-0.384-0.28393-0.28393-0.384-3.2811-0.384-11.501 0-6.1144-0.11975-11.191-0.26611-11.282-0.33408-0.20647-0.6867 0.94205-3.9197 12.767-1.4436 5.28-2.766 9.78-2.9387 10-0.34617 0.44105-6.4817 0.58655-6.7471 0.16zm-0.38346-14.16c0-6.6 0.04255-9.3 0.09456-6s0.05201 8.7 0 12-0.09456 0.6-0.09456-6zm28.357 11.44c0.01237-0.22 0.15858-0.688 0.32492-1.04 0.2503-0.52969 0.27295-0.48833 0.13141 0.24l-0.17102 0.88 6.2522-0.00168 0.0599-1.8392c0.07038-2.1612 3.4552-27.443 3.9435-29.456 0.18373-0.75703 0.24962-1.513 0.14643-1.68-0.10319-0.16697-0.01937-0.30359 0.18627-0.30359 0.23911 0 0.3201 0.37492 0.22467 1.04-1.9838 13.825-4.0808 29.736-4.0808 30.962v1.5976h-3.52c-2.6147 0-3.5142-0.10288-3.4975-0.4zm16.937 0.0889 7.5193-0.16891 0.52016-2.4668c0.37396-1.7735 0.41912-2.5084 0.16069-2.6147-0.25103-0.10328-0.2445-0.15551 0.02164-0.17316 0.73215-0.04853 0.78441 0.65243 0.23737 3.1843l-0.55106 2.5505-15.427-0.1422zm12.021-0.19386c-0.69287-0.69288-1.2318-1.7507-1.0067-1.9758 0.10226-0.10226 0.18593-0.01138 0.18593 0.20195 0 0.21333 0.35345 0.74133 0.78545 1.1733 0.77545 0.77546 0.85842 0.78546 6.5154 0.78546h5.73l0.20179-1.68c0.40625-3.3822 0.68168-3.12-3.2772-3.12-2.9096 0-3.6048-0.09737-4.2133-0.59014l-0.7288-0.59014 1.3147-10.318c0.89196-7.0001 1.4774-10.566 1.8207-11.09 0.48815-0.74501 0.6411-0.77233 4.3242-0.77233h3.8181l0.21659-1.1545c0.11913-0.635 0.23365-1.7861 0.2545-2.558 0.0209-0.77192 0.16659-1.4044 0.32386-1.4055 0.16025-0.0011 0.19466 0.94755 0.0783 2.158-0.35775 3.7211 6e-3 3.44-4.4539 3.44-3.8425 0-3.9026 0.01125-4.2771 0.8-0.37166 0.78292-2.6222 17.137-2.7272 19.818-0.034 0.86819 0.11033 1.4646 0.40035 1.654 0.24946 0.16292 2.1096 0.27919 4.1336 0.25837l3.68-0.03784-0.0266 1.2336c-0.0147 0.67849-0.13148 1.9176-0.25961 2.7536l-0.23296 1.52h-6.0375c-5.0726 0-6.1182-0.0807-6.5425-0.50495zm-19.381-0.45504c0-0.23467 0.096-0.33067 0.21333-0.21334 0.11733 0.11734 0.11733 0.30934 0 0.42667-0.11733 0.11733-0.21333 0.0213-0.21333-0.21333zm36.183-0.52316c-0.36477-0.46373-0.65884-1.0037-0.65349-1.2 5e-3 -0.19626 0.16725-0.06884 0.35978 0.28316 0.74967 1.3706 1.1063 1.44 7.4022 1.44 9.0797 0 8.5882 0.7102 10.63-15.36 1.2934-10.18 1.3919-13.286 0.48453-15.285-0.34087-0.75098-0.94971-1.4979-1.353-1.6597-0.45682-0.18336-0.54314-0.30194-0.22899-0.31458 1.2858-0.05173 2.8558 3.1228 2.8558 5.7745 0 1.6962-2.4993 21.268-2.9164 22.837-0.18819 0.7083-0.6309 1.7593-0.98379 2.3356-1.1288 1.8434-1.779 1.9922-8.7007 1.9922h-6.2327zm-35.838-0.62351c0.01535-0.37278 0.09118-0.44861 0.19333-0.19333 0.09244 0.231 0.08107 0.507-0.02526 0.61333-0.10633 0.10633-0.18196-0.08267-0.16807-0.42zm-9.2547-0.77333c0-0.44 0.07263-0.62 0.1614-0.4 0.08877 0.22 0.08877 0.58 0 0.8s-0.1614 0.04-0.1614-0.4zm9.6119-0.8c0.0065-0.528 0.07824-0.70526 0.15937-0.39391 0.08113 0.31135 0.0758 0.74335-0.01186 0.96-0.08765 0.21665-0.15404-0.03809-0.14752-0.56609zm17.263-1.332c-0.04495-2.2616 2.1288-19.381 2.9863-23.519 0.67334-3.2491 1.899-5.0941 3.3594-5.0566 0.26884 0.0069 0.0454 0.20559-0.4965 0.44155-1.0289 0.44802-1.749 1.641-2.3333 3.8659-0.47033 1.7907-2.9053 19.485-3.2148 23.36-0.25056 3.1381-0.25639 3.1557-0.30106 0.908zm17.284-0.89564c-0.0513-2.945 1.8175-18.379 2.6856-22.179 0.76639-3.3553 2.2167-5.5375 3.6556-5.5007 0.26884 0.0069 0.0568 0.20195-0.4712 0.43347-1.2237 0.53658-2.1946 2.3066-2.827 5.154-0.70425 3.1708-2.4858 16.899-2.7615 21.28l-0.2316 3.68zm-43.89 1.4272c0-0.23492 0.1421-1.3029 0.31577-2.3733 0.91449-5.6363 3.2042-23.507 3.2042-25.008 0-0.95582 0.11756-1.7379 0.26124-1.7379 0.41726 0 0.11832 3.4067-1.0811 12.32-1.6003 11.892-2.3382 16.865-2.5315 17.058-0.09277 0.09277-0.16868-0.02352-0.16868-0.25844zm9.6289-0.722c-0.01587-0.13335 0.76301-6.0373 1.7308-13.12 0.96784-7.0826 1.7598-13.418 1.76-14.078s0.1121-1.2 0.24875-1.2c0.36069 0 0.20921 1.4258-1.5639 14.72-1.38 10.347-2.0619 14.634-2.1757 13.678zm42.916-0.2079c1.1796-0.10431 2.3114-0.35665 2.5151-0.56077 0.31965-0.32025 0.9931-4.5748 2.8953-18.291 0.53647-3.8684 0.4387-4.0288-2.5301-4.1514-2.0106-0.08302-2.3077-0.01934-2.6185 0.56138-0.19281 0.36026-0.99704 5.2646-1.7872 10.899-1.1251 8.0221-1.3586 10.389-1.0769 10.916 0.28618 0.53473 0.27159 0.64311-0.0714 0.53032-0.23709-0.07797-0.47188-0.63463-0.52174-1.237-0.13596-1.6423 2.6816-21.034 3.1357-21.581 0.49773-0.59973 5.1083-0.67258 5.691-0.08992 0.4652 0.46521 0.49152 2.2536 0.0716 4.8698-0.17179 1.0704-0.68077 4.6822-1.1311 8.0262s-0.90614 6.7189-1.013 7.4999c-0.30202 2.2078-1.2132 2.9117-3.6891 2.8498l-2.0145-0.050345zm-36.993-0.29896c-0.1605-0.25969 2.6002-21.321 3.3727-25.731 0.20814-1.188 0.51477-2.16 0.68141-2.16s0.21505 0.22917 0.10756 0.50927c-0.20639 0.53783-1.062 6.4352-2.7957 19.271-0.90864 6.7269-0.98769 7.8198-0.58411 8.0751 0.39222 0.24809 0.38034 0.29602-0.07436 0.30014-0.29761 0.0027-0.61601-0.11629-0.70756-0.26441zm-38.077-7.5965c-0.44293-1.1542 0.70607-23.861 1.2341-24.389 0.37393-0.37393 0.42554 0.16596 0.15453 1.6166-0.27701 1.4828-0.93337 15.152-0.93981 19.572-0.0035 2.3918 0.17005 2.4585 1.041 0.40011 0.56076-1.3253 0.56296-1.3266 0.36115-0.21344-0.50852 2.8051-1.3841 4.2309-1.851 3.0142zm13.467 0.30009c-0.12152-0.12152-0.22095-5.6064-0.22095-12.189 0-8.0727-0.11426-12.181-0.35107-12.624-0.27716-0.51788-0.26032-0.62575 0.08-0.51238 0.34909 0.1163 0.44703 2.4056 0.51497 12.037 0.0463 6.5631 0.20999 11.893 0.36526 11.893 0.50143 0 1.2235-2.2971 3.6888-11.735 1.3491-5.1646 2.422-9.9349 2.422-10.769 0-0.82313 0.11482-1.4966 0.25515-1.4966 0.3961 0-0.14754 4.3881-0.85236 6.88-0.34846 1.232-1.3002 4.832-2.1151 8-2.2809 8.8682-3.1155 11.186-3.7868 10.514zm-11.396-5.101c0.01535-0.37278 0.09118-0.44861 0.19333-0.19333 0.09244 0.231 0.08107 0.507-0.02526 0.61333-0.10633 0.10633-0.18196-0.08267-0.16807-0.42zm0.32-1.28c0.01535-0.37278 0.09118-0.44861 0.19333-0.19333 0.09244 0.231 0.08107 0.507-0.02526 0.61333-0.10633 0.10633-0.18196-0.08267-0.16807-0.42zm0.32-1.28c0.01535-0.37278 0.09118-0.44861 0.19333-0.19333 0.09244 0.231 0.08107 0.507-0.02526 0.61333-0.10633 0.10633-0.18196-0.08267-0.16807-0.42zm0.32-1.28c0.01535-0.37278 0.09118-0.44861 0.19333-0.19333 0.09244 0.231 0.08107 0.507-0.02526 0.61333-0.10633 0.10633-0.18196-0.08267-0.16807-0.42zm0.29474-1.0933c0-0.23467 0.096-0.33067 0.21333-0.21333 0.11733 0.11733 0.11733 0.30933 0 0.42667-0.11733 0.11733-0.21333 0.02133-0.21333-0.21333zm0.34526-1.4667c0.01535-0.37278 0.09118-0.44861 0.19333-0.19333 0.09244 0.231 0.08107 0.507-0.02526 0.61333-0.10633 0.10633-0.18196-0.08267-0.16807-0.42zm0.32-1.28c0.01535-0.37278 0.09118-0.44861 0.19333-0.19333 0.09244 0.231 0.08107 0.507-0.02526 0.61333-0.10633 0.10633-0.18196-0.08267-0.16807-0.42zm0.29474-1.0933c0-0.23467 0.096-0.33067 0.21333-0.21333 0.11733 0.11733 0.11733 0.30933 0 0.42667-0.11733 0.11733-0.21333 0.02133-0.21333-0.21333zm0.32-1.28c0-0.23467 0.096-0.33067 0.21333-0.21333 0.11733 0.11733 0.11733 0.30933 0 0.42667-0.11733 0.11733-0.21333 0.02133-0.21333-0.21333zm0.34526-1.1467c0.01535-0.37278 0.09118-0.44861 0.19333-0.19333 0.09244 0.231 0.08107 0.507-0.02526 0.61333-0.10633 0.10633-0.18196-0.08267-0.16807-0.42zm0.29474-1.4133c0-0.23467 0.096-0.33067 0.21333-0.21333 0.11733 0.11733 0.11733 0.30933 0 0.42667-0.11733 0.11733-0.21333 0.02133-0.21333-0.21333zm0.34526-1.1467c0.01535-0.37278 0.09118-0.44861 0.19333-0.19333 0.09244 0.231 0.08107 0.507-0.02526 0.61333-0.10633 0.10633-0.18196-0.08267-0.16807-0.42zm0.32-1.28c0.01535-0.37278 0.09118-0.44861 0.19333-0.19333 0.09244 0.231 0.08107 0.507-0.02526 0.61333-0.10633 0.10633-0.18196-0.08267-0.16807-0.42zm-13.04-2.2133c0.0014-1.232 0.05926-1.6968 0.12853-1.0329 0.06927 0.66392 0.06811 1.6719-0.0026 2.24-0.07069 0.56807-0.12737 0.02486-0.12595-1.2071zm13.36 0.93333c0.01535-0.37278 0.09118-0.44861 0.19333-0.19333 0.09244 0.231 0.08107 0.507-0.02526 0.61333-0.10633 0.10633-0.18196-0.08267-0.16807-0.42zm0.32-1.28c0.01535-0.37278 0.09118-0.44861 0.19333-0.19333 0.09244 0.231 0.08107 0.507-0.02526 0.61333-0.10633 0.10633-0.18196-0.08267-0.16807-0.42zm0.46699-1.5727c0.20639-0.99118 0.38398-1.3248 0.58235-1.094 0.06303 0.07333-0.08716 0.56533-0.33375 1.0933l-0.44836 0.96zm-14.572-0.96066c0-0.088 0.072-0.16 0.16-0.16s0.16 0.072 0.16 0.16-0.072 0.16-0.16 0.16-0.16-0.072-0.16-0.16zm8.96 0c0-0.088 0.072-0.16 0.16-0.16s0.16 0.072 0.16 0.16-0.072 0.16-0.16 0.16-0.16-0.072-0.16-0.16zm-6.3067-0.3976c1.1953-0.06174 3.0673-0.06128 4.16 1e-3 1.0927 0.0623 0.11469 0.11281-2.1733 0.11225s-3.182-0.05153-1.9867-0.11327z" fill="#5f6256"/>
  <path d="m40.177 103.6c-0.06775-0.22-0.21004-9.04-0.31621-19.6-0.10616-10.56-0.279-19.524-0.38409-19.92l-0.19107-0.72h4.3916c4.0519 0 4.3748 0.04332 4.1743 0.56-0.41154 1.0608-0.78255 6.0233-1.1215 15.001-0.32775 8.681-0.28021 10.039 0.35137 10.039 0.49 0 0.7916-1.0259 3.7991-12.923 1.5965-6.3154 3.0467-11.751 3.2226-12.08 0.26812-0.501 0.70367-0.59747 2.6972-0.59747 2.023 0 2.4269 0.09228 2.7087 0.61896 0.21146 0.39511 0.33126 4.9597 0.33126 12.621 0 6.6338 0.12691 12.081 0.28374 12.178 0.68174 0.42134 1.4689-1.7692 3.5565-9.8976 0.72325-2.816 1.6899-6.488 2.1481-8.16 0.45821-1.672 0.91828-3.976 1.0224-5.12l0.18926-2.08 2.48-0.09346c1.5103-0.05692 2.48 0.03229 2.48 0.22815 0 0.17689-0.26896 1.0109-0.59768 1.8535s-2.0546 7.1478-3.8353 14.012-3.9284 15.144-4.7728 18.4l-1.5352 5.92h-6.6991l-0.16-11.973c-0.15796-11.821-0.3182-13.381-1.1783-11.475-0.18073 0.40056-1.6618 5.6243-3.2913 11.608s-3.0955 11.132-3.2578 11.44c-0.24944 0.4733-0.7656 0.56-3.3339 0.56-2.152 0-3.0747-0.11673-3.162-0.4zm28.43-2.72c0.37211-1.2273 1.1724-5.5451 1.6167-8.7225 1.6639-11.899 2.741-20.296 2.8139-21.938l0.08443-1.8998 2.6894-0.09375c1.4792-0.05156 2.8182 0.03508 2.9757 0.19255 0.16841 0.16841 0.14553 0.86587-0.05556 1.6938-0.49373 2.0326-3.8803 27.305-3.9513 29.487l-0.0599 1.8392-3.1416 8.4e-4c-2.8435 7.6e-4 -3.1255-0.0523-2.9718-0.55916zm9.6336-0.95419c0.22744-0.8392 0.64732-2.8938 0.93307-4.5658 0.63328-3.7056 3.3134-23.598 3.4491-25.6l0.09762-1.44 5.688-0.1862-0.21423 1.2131c-0.67139 3.8019-3.663 26.476-3.5231 26.703 0.09191 0.14871 2.1576 0.27038 4.5905 0.27038h4.4234l-1.0461 4.96-14.812 0.1716zm19.155 1.0469c-1.175-0.82301-1.5038-2.1845-1.3018-5.39 0.25424-4.0327 2.6891-21.424 3.2968-23.547 1.0509-3.6726 1.6924-3.9515 8.7696-3.8126l4.96 0.09734-0.064 1.44c-0.0352 0.792-0.14973 1.908-0.2545 2.48l-0.19048 1.04h-3.8181c-3.6831 0-3.836 0.02732-4.3242 0.77233-0.34334 0.524-0.92876 4.0898-1.8207 11.09l-1.3147 10.318 0.7288 0.59014c0.60854 0.49277 1.3037 0.59014 4.2133 0.59014 3.9589 0 3.6834-0.26221 3.2772 3.12l-0.20181 1.68h-5.6442c-4.4308 0-5.7876-0.10046-6.3113-0.46726zm17.238-0.38692c-0.85758-0.34504-1.3533-1.9931-1.3533-4.4994 0-2.7677 1.9869-18.792 2.7684-22.326 0.64733-2.9278 1.724-4.7902 3.0332-5.2466 1.2648-0.4409 10.492-0.46931 11.632-0.03581 1.3081 0.49733 2.0709 2.5528 2.0791 5.6024 7e-3 2.4619-1.8813 18.5-2.5572 21.725-0.45553 2.1729-1.1985 3.6168-2.2444 4.3616-0.81475 0.58015-1.3995 0.63156-6.9206 0.60843-3.3168-0.0139-6.2136-0.0989-6.4373-0.18891zm9.656-4.686c0.44825-0.44825 0.81675-1.3001 0.93438-2.16 0.10683-0.78092 0.56267-4.1559 1.013-7.4999s0.95928-6.9558 1.1311-8.0262c0.41987-2.6162 0.39355-4.4046-0.0716-4.8698-0.5828-0.5828-5.1932-0.5098-5.6911 0.0901-0.39516 0.47614-3.182 19.11-3.1969 21.376-0.01 1.4665 0.559 1.7796 3.2866 1.8094 1.5277 0.01671 1.985-0.11016 2.5947-0.71986z" fill="#173425"/>
 </g>
</svg>
