<?xml version='1.0' encoding='utf-8'?>
<svg xmlns:ns0="http://www.w3.org/2000/svg" xmlns:ns1="http://sodipodi.sourceforge.net/DTD/sodipodi-0.dtd" xmlns:ns2="http://www.inkscape.org/namespaces/inkscape" xmlns="http://www.w3.org/2000/svg" version="1.2" baseProfile="tiny" width="512" height="512" viewBox="0 0 163.84 163.84" preserveAspectRatio="xMidYMid meet"><g><ns0:defs id="defs1" />
  <ns1:namedview id="namedview1" pagecolor="#ffffff" bordercolor="#000000" borderopacity="0.25" ns2:showpageshadow="2" ns2:pageopacity="0.0" ns2:pagecheckerboard="0" ns2:deskcolor="#d1d1d1" ns2:zoom="4.9255372" ns2:cx="121.6111" ns2:cy="81.919998" ns2:window-width="1920" ns2:window-height="1009" ns2:window-x="-8" ns2:window-y="-8" ns2:window-maximized="1" ns2:current-layer="g1" />
  <ns0:g ns2:groupmode="layer" ns2:label="Image" id="g1">
    <ns0:g id="g2" transform="translate(-2.2332531,1.6241883)">
      <ns0:path style="fill:#d5b397" d="m 24.96011,117.43979 c 0.188445,-0.35211 1.865416,-2.16299 3.726601,-4.02418 3.716075,-3.71607 4.047495,-4.36687 4.471039,-8.77962 0.195295,-2.0347 0.175763,-2.10773 -0.825573,-3.08672 -0.56408,-0.5515 -2.882433,-2.205692 -5.151896,-3.675995 -2.269463,-1.470302 -4.129443,-2.819917 -4.133289,-2.999143 -0.0038,-0.179226 0.547001,-0.996275 1.224104,-1.815663 2.283944,-2.763888 2.290845,-2.849692 0.722705,-8.985576 -0.758289,-2.967061 -1.31754,-5.455823 -1.24278,-5.530583 0.07476,-0.07476 1.245907,0.10495 2.602552,0.399353 3.074149,0.667116 3.252496,0.533271 3.84732,-2.88732 0.398022,-2.288866 0.671925,-3.080254 0.950984,-2.747678 0.06153,0.07333 0.857921,1.249333 1.769752,2.613333 2.270018,3.395702 2.75366,3.333694 2.495885,-0.32 -0.10865,-1.54 -0.517179,-5.496858 -0.907844,-8.793019 -0.390664,-3.296161 -0.615993,-6.087324 -0.500732,-6.202586 0.115262,-0.115261 0.723413,0.241598 1.351449,0.79302 1.354454,1.189226 1.921838,1.254853 2.443132,0.282586 0.212321,-0.396 1.261388,-4.166146 2.331259,-8.378101 1.069872,-4.211956 2.089221,-7.703463 2.265221,-7.758906 0.176,-0.05544 1.200598,2.454704 2.276884,5.578102 2.361529,6.853189 2.608625,7.060249 4.286477,3.591958 0.604935,-1.250464 1.307125,-2.444454 1.560422,-2.653312 0.396264,-0.326742 0.430537,-0.06711 0.245567,1.860259 -0.118235,1.232 -0.566895,5.834811 -0.997024,10.22847 -0.430129,4.393659 -0.714464,8.056059 -0.631856,8.138666 0.327677,0.327677 0.796296,-0.622086 2.337403,-4.73728 0.883644,-2.359579 1.794613,-4.412066 2.024376,-4.561082 0.685776,-0.444769 6.751517,-0.179715 6.847762,0.299226 0.04509,0.2244 0.0088,0.2604 -0.08068,0.08 -0.239168,-0.482257 -6.408709,-0.429699 -6.709604,0.05716 -0.130922,0.211837 -0.967586,2.320247 -1.859252,4.685356 -1.58644,4.207967 -2.447835,5.507732 -3.03085,4.573276 -0.229772,-0.368279 -0.299169,-0.368279 -0.445628,0 -0.263367,0.662252 -0.210955,-4.446939 0.06557,-6.391659 0.133564,-0.939328 0.418131,-1.816201 0.63237,-1.948608 C 49.31216,64.102352 50.245384,57.076267 50.22141,54.56 l -0.01219,-1.28 -0.919308,1.77982 c -1.053508,2.039638 -1.640806,2.631032 -2.344607,2.360959 -0.583859,-0.224048 -0.486947,0.0024 -2.525487,-5.900779 -0.881282,-2.552 -1.721782,-4.766317 -1.867778,-4.920705 -0.295342,-0.31232 -0.325301,-0.210031 -2.378436,8.120705 -0.802451,3.256 -1.671457,6.388 -1.931124,6.96 -0.591324,1.302582 -1.547595,1.365607 -2.781628,0.183328 -0.491794,-0.471169 -0.961956,-0.788887 -1.044803,-0.706039 -0.08285,0.08285 0.202925,3.096349 0.635051,6.696671 0.911656,7.595602 1.008291,10.71338 0.340008,10.969824 -0.631517,0.242336 -1.190957,-0.289463 -2.726615,-2.591896 -1.295666,-1.942611 -1.944489,-2.285878 -1.944489,-1.028754 0,0.33295 -0.157958,1.341899 -0.351018,2.242108 -0.466858,2.17688 -1.108506,2.477099 -3.937752,1.842424 -1.155514,-0.259212 -2.154018,-0.418212 -2.218897,-0.353333 -0.06488,0.06488 0.436046,2.239196 1.113168,4.831814 0.677121,2.592619 1.231888,5.15366 1.232815,5.691202 0.0018,1.026577 -1.340326,3.396597 -2.509893,4.432246 -0.378633,0.335278 -0.688423,0.71048 -0.688423,0.833782 0,0.123302 1.79728,1.398995 3.993954,2.834872 2.196675,1.435877 4.500675,3.055591 5.12,3.599361 1.01509,0.89127 1.1258,1.15096 1.123549,2.63554 -0.0014,0.90576 -0.261795,2.73022 -0.578716,4.05433 l -0.57622,2.40749 -3.468211,3.43892 c -1.907516,1.89141 -3.387279,3.51985 -3.288362,3.61877 0.09892,0.0989 2.244035,-0.61277 4.766928,-1.58153 5.729922,-2.2002 11.732835,-4.05308 18.347078,-5.66304 5.202435,-1.26633 13.852457,-2.89668 15.031914,-2.83322 0.356447,0.0192 -0.503914,0.23726 -1.911914,0.48464 -12.791918,2.24741 -22.902147,4.95601 -32.22101,8.63222 -4.937488,1.94779 -5.235629,2.01625 -4.738879,1.08806 z m 23.935055,-50.239792 -0.0088,-1.119999 -0.264758,1.279999 c -0.145618,0.704 -0.253818,1.928 -0.240444,2.72 l 0.02431,1.44 0.24921,-1.6 c 0.137066,-0.88 0.245266,-2.104 0.240444,-2.72 z M 136.96,113.06193 c -4.17504,-1.5065 -10.63778,-3.18197 -17.12,-4.43837 -2.992,-0.57991 -5.11694,-1.06545 -4.72209,-1.07897 2.2226,-0.0761 15.5425,3.02945 21.27855,4.96116 1.77925,0.59919 3.2878,1.03665 3.35231,0.97214 0.24485,-0.24485 -4.24831,-4.09089 -6.90091,-5.90701 -1.52232,-1.04227 -4.14784,-2.63211 -5.83448,-3.53296 L 123.94676,102.4 h -4.32379 c -3.71127,0 -4.39565,-0.0793 -4.83114,-0.56 -0.4819,-0.53191 -0.17214,-0.55537 6.1759,-0.46773 l 6.68325,0.0923 1.29268,-1.16785 c 0.90484,-0.817468 1.43775,-1.656369 1.77621,-2.796075 0.41056,-1.382532 2.77199,-19.16633 3.13115,-23.580617 0.0984,-1.208825 0.12614,-1.119854 0.17307,0.554203 0.0717,2.55632 -2.31284,21.463318 -2.99059,23.712761 -0.70738,2.347728 -2.16507,3.880378 -3.9137,4.114918 -0.74789,0.10031 -1.3598,0.30535 -1.3598,0.45565 0,0.15029 0.828,0.69254 1.84,1.205 4.42474,2.24062 12.5699,8.42357 12.82211,9.73322 0.13026,0.67639 0.20873,0.69076 -3.46211,-0.63382 z m -24.24,-5.76252 c 0.308,-0.0805 0.812,-0.0805 1.12,0 0.308,0.0805 0.056,0.14635 -0.56,0.14635 -0.616,0 -0.868,-0.0659 -0.56,-0.14635 z m -47.680001,-0.32 c 0.308,-0.0805 0.812,-0.0805 1.12,0 0.308,0.0805 0.056,0.14635 -0.56,0.14635 -0.616,0 -0.868,-0.0659 -0.56,-0.14635 z m 45.440001,0 c 0.308,-0.0805 0.812,-0.0805 1.12,0 0.308,0.0805 0.056,0.14635 -0.56,0.14635 -0.616,0 -0.868,-0.0659 -0.56,-0.14635 z m -42.000002,-0.40982 c 7.290583,-1.17082 24.742334,-1.42048 35.038842,-0.50126 3.34336,0.29848 6.15136,0.62195 6.24,0.71884 0.0886,0.0969 -0.84684,0.0834 -2.07884,-0.0299 -8.157073,-0.75028 -11.564376,-0.90785 -19.680002,-0.91009 -5.016,-10e-4 -10.92,0.1599 -13.12,0.35841 -2.2,0.1985 -4.936,0.4252 -6.08,0.50377 l -2.079999,0.14286 z m -27.946666,-1.18293 c -0.589169,-0.58916 0.06631,-0.74666 3.107485,-0.74666 2.268951,0 3.424376,-0.1267 3.64776,-0.4 0.179818,-0.22 1.598957,-5.008002 3.153642,-10.640002 1.554685,-5.632 2.877482,-9.979015 2.939549,-9.660033 0.132008,0.678431 -5.300345,20.668985 -5.777329,21.260035 -0.343624,0.4258 -6.665097,0.59267 -7.071107,0.18666 z m 14.4,0 c -0.593669,-0.59366 0.0853,-0.74666 3.313527,-0.74666 3.352478,0 3.542158,-0.0356 3.836258,-0.72 0.170168,-0.396 1.321567,-4.716004 2.558664,-9.600007 3.60087,-14.216072 6.941554,-26.859388 7.462099,-28.241427 0.264865,-0.703212 0.568589,-1.674567 0.674942,-2.158567 l 0.19337,-0.88 h -3.343841 c -3.091072,0 -3.354788,0.04875 -3.488673,0.644904 -0.120479,0.536461 -0.137673,0.523009 -0.102256,-0.08 0.0415,-0.706563 0.131394,-0.724904 3.552827,-0.724904 h 3.51025 l 0.05457,1.08511 c 0.03001,0.59681 -0.145598,1.564185 -0.39025,2.149722 -0.244653,0.585536 -0.444824,1.136667 -0.444824,1.224734 0,0.08807 1.681881,0.200693 3.737513,0.250278 l 3.737513,0.09015 0.258514,0.96 c 0.14489,0.538052 0.123279,1.381948 -0.04917,1.92 -0.169226,0.528 -0.957294,5.784 -1.751261,11.68 -0.793967,5.896 -1.530379,11.26 -1.63647,11.92 -0.187181,1.164456 -0.164256,1.2 0.773978,1.2 0.805661,0 0.991477,-0.146727 1.114445,-0.88 0.140216,-0.836127 0.145264,-0.832138 0.101255,0.08 -0.03838,0.795509 -0.197122,0.977351 -0.926441,1.061267 -1.104484,0.127082 -1.388325,0.668453 -1.676902,3.198367 -0.126705,1.1108 -0.306378,1.943633 -0.399274,1.850743 -0.206577,-0.20658 0.143322,-3.071889 2.231102,-18.270377 0.894537,-6.512 1.690154,-12.452 1.768037,-13.2 l 0.141604,-1.36 H 76.03222 72.319998 v 0.818886 c 0,0.450387 -0.136213,0.734701 -0.302697,0.631808 -0.166483,-0.102892 -0.432002,0.28461 -0.590042,0.861115 -2.232667,8.144423 -6.834213,26.547905 -6.677207,26.704911 0.114,0.114 1.030488,0.07587 2.036642,-0.08472 1.562972,-0.249475 1.861417,-0.408494 2.04944,-1.091996 0.194052,-0.705421 0.22384,-0.719511 0.251967,-0.119182 0.04455,0.950912 -0.527826,1.32404 -2.415126,1.574399 -0.897064,0.119 -1.803726,0.323098 -2.014805,0.453552 -0.211078,0.130454 -0.784969,1.822851 -1.275312,3.760884 -0.490344,1.93803 -0.992581,3.68719 -1.116082,3.88702 -0.243215,0.39353 -6.952677,0.53076 -7.333444,0.14999 z m 13.546666,-2.80729 c 0,-0.36838 0.737115,-0.48053 3.680629,-0.56 3.330076,-0.0899 3.680569,-0.046 3.68,0.46063 -5.62e-4,0.50083 -0.38944,0.56 -3.680629,0.56 -2.98899,0 -3.68,-0.0865 -3.68,-0.46063 z m 9.6,-0.0194 c 0,-0.41302 1.046791,-0.48 7.501115,-0.48 5.019879,0 7.571674,-0.11417 7.714425,-0.34515 0.117321,-0.18983 0.4823,-1.37783 0.811063,-2.639997 0.490237,-1.882088 0.57316,-2.035848 0.461029,-0.854855 -0.0752,0.792 -0.29961,2.196002 -0.498694,3.120002 l -0.361971,1.68 h -7.813483 c -6.731986,0 -7.813484,-0.0664 -7.813484,-0.48 z m 19.661161,0.0102 c -0.552885,-0.41818 0.09043,-0.47094 5.852741,-0.48 l 6.4739,-0.0102 0.22755,-0.88 c 0.12515,-0.484 0.23589,-1.888002 0.24609,-3.120002 0.0182,-2.200494 0.027,-2.223405 0.49856,-1.299056 0.88198,1.728949 1.24373,1.378579 1.36174,-1.318897 l 0.10946,-2.502047 0.0644,2.64 c 0.0635,2.602583 0.0533,2.64 -0.716,2.64 -0.68956,0 -0.80369,0.17691 -0.98058,1.52 -0.11011,0.836002 -0.27437,1.916002 -0.36504,2.400002 l -0.16483,0.88 h -5.99342 c -4.774389,0 -6.119749,-0.0956 -6.614571,-0.46983 z m 4.745401,-7.126157 c -0.28609,-0.745545 2.05359,-19.470255 2.56522,-20.529704 0.40169,-0.831795 0.41465,-0.834294 4.29776,-0.828949 4.48146,0.0062 4.11154,0.309707 4.46344,-3.662532 0.15145,-1.709567 0.28194,-2.184298 0.46465,-1.690399 0.21807,0.589494 -0.006,2.839294 -0.54105,5.427569 -0.14472,0.700353 -0.25798,0.72 -4.1506,0.72 -3.85731,0 -4.0115,0.026 -4.26979,0.72 -0.40772,1.095484 -2.68106,19.397277 -2.47584,19.932062 0.0988,0.257366 0.10756,0.467938 0.0196,0.467938 -0.088,0 -0.25601,-0.250193 -0.37335,-0.555985 z m 7.0601,0.342652 c 0.11734,-0.117334 0.30934,-0.117334 0.42667,0 0.11733,0.117333 0.0213,0.213333 -0.21333,0.213333 -0.23467,0 -0.33067,-0.096 -0.21334,-0.213333 z m 9.7047,-0.248214 c -0.0974,-0.253851 -0.10737,-0.937851 -0.0221,-1.52 0.0852,-0.582149 0.71983,-5.125252 1.41019,-10.095784 0.69036,-4.970532 1.40998,-9.326532 1.59915,-9.68 0.28905,-0.540104 0.66863,-0.642669 2.37845,-0.642669 1.56,0 2.07981,0.118053 2.22874,0.506172 0.29612,0.771687 0.2339,0.94149 -0.18976,0.517828 -0.58436,-0.584361 -2.9599,-0.472333 -3.73205,0.176 -0.58275,0.489303 -0.83268,1.751757 -1.97968,10 -0.72201,5.192 -1.25477,9.836 -1.18393,10.32 0.13547,0.925444 -0.20654,1.206614 -0.50898,0.418453 z M 123.2,95.839998 c 0,-0.088 0.072,-0.16 0.16,-0.16 0.088,0 0.16,0.072 0.16,0.16 0,0.088 -0.072,0.16 -0.16,0.16 -0.088,0 -0.16,-0.072 -0.16,-0.16 z M 85.439998,95.437639 c 0,-0.565082 2.871658,-21.632833 3.260115,-23.917641 0.209461,-1.232 0.353624,-2.348 0.320362,-2.48 -0.03326,-0.132 0.08352,-0.24 0.259523,-0.24 0.399978,0 0.405394,0.789035 0.01538,2.24 -0.329639,1.226342 -3.215376,22.148968 -3.215376,23.312629 0,0.718326 0.01241,0.719995 4.640498,0.623812 2.552274,-0.05304 4.640274,0.01156 4.64,0.143559 -2.74e-4,0.132 -2.004721,0.24 -4.454326,0.24 -2.449605,0 -4.681605,0.08741 -4.96,0.194236 -0.278395,0.10683 -0.506172,0.05436 -0.506172,-0.116595 z M 123.84,95.359998 c 0,-0.234667 0.096,-0.330667 0.21333,-0.213333 0.11733,0.117333 0.11733,0.309333 0,0.426666 -0.11733,0.117334 -0.21333,0.02133 -0.21333,-0.213333 z m 0.34526,-1.146667 c 0.0154,-0.372782 0.0912,-0.448608 0.19333,-0.193333 0.0924,0.231 0.0811,0.507 -0.0253,0.613333 -0.10633,0.106334 -0.18196,-0.08267 -0.16807,-0.42 z M 69.182382,93.279998 c 0.0065,-0.528 0.07824,-0.705259 0.159373,-0.39391 0.08113,0.31135 0.0758,0.74335 -0.01186,0.96 -0.08765,0.21665 -0.154037,-0.03809 -0.147516,-0.56609 z m 26.251857,-0.48 c 0,-0.616 0.06585,-0.868 0.146343,-0.56 0.08049,0.308 0.08049,0.812 0,1.12 -0.08049,0.308 -0.146343,0.056 -0.146343,-0.56 z m -16.651857,-0.48 c 0.0065,-0.528 0.07824,-0.705259 0.159373,-0.39391 0.08113,0.31135 0.0758,0.74335 -0.01186,0.96 -0.08765,0.216651 -0.154038,-0.03809 -0.147516,-0.56609 z m 45.759998,-0.32 c 0.007,-0.528 0.0782,-0.705259 0.15937,-0.39391 0.0811,0.31135 0.0758,0.74335 -0.0119,0.96 -0.0877,0.216651 -0.15404,-0.03809 -0.14752,-0.56609 z m -11.82814,-0.8 c 0,-0.616 0.0658,-0.868 0.14634,-0.56 0.0805,0.308 0.0805,0.812 0,1.12 -0.0805,0.308 -0.14634,0.056 -0.14634,-0.56 z m -43.211858,-0.16 c 0.0065,-0.528 0.07824,-0.705259 0.159373,-0.39391 0.08113,0.31135 0.0758,0.74335 -0.01186,0.96 -0.08765,0.216651 -0.154037,-0.03809 -0.147516,-0.56609 z m 26.228142,-0.8 c 0,-0.44 0.07263,-0.62 0.161404,-0.4 0.08877,0.22 0.08877,0.58 0,0.8 -0.08877,0.22 -0.161404,0.04 -0.161404,-0.4 z m -16.639999,-0.32 c 0,-0.44 0.07263,-0.62 0.161403,-0.4 0.08877,0.22 0.08877,0.58 0,0.8 -0.08877,0.22 -0.161403,0.04 -0.161403,-0.4 z m 45.771855,-0.16 c 0.007,-0.528 0.0782,-0.705259 0.15937,-0.39391 0.0811,0.31135 0.0758,0.74335 -0.0118,0.96 -0.0877,0.216651 -0.15404,-0.03809 -0.14752,-0.56609 z m -11.84,-0.96 c 0.007,-0.528 0.0782,-0.705259 0.15937,-0.39391 0.0811,0.31135 0.0758,0.74335 -0.0118,0.96 -0.0877,0.216651 -0.15404,-0.03809 -0.14752,-0.56609 z m -43.211855,-0.16 c 0,-0.44 0.07263,-0.62 0.161403,-0.4 0.08877,0.22 0.08877,0.58 0,0.8 -0.08877,0.22 -0.161403,0.04 -0.161403,-0.4 z m 26.239999,-0.64 c 0,-0.44 0.07263,-0.62 0.161404,-0.4 0.08877,0.22 0.08877,0.58 0,0.8 -0.08877,0.22 -0.161404,0.04 -0.161404,-0.4 z m -16.639999,-0.32 c 0,-0.44 0.07263,-0.62 0.161403,-0.4 0.08877,0.22 0.08877,0.58 0,0.8 -0.08877,0.22 -0.161403,0.04 -0.161403,-0.4 z m 45.771855,-0.16 c 0.007,-0.528 0.0782,-0.705259 0.15937,-0.39391 0.0811,0.31135 0.0758,0.74335 -0.0119,0.96 -0.0877,0.216651 -0.15404,-0.03809 -0.14752,-0.56609 z m -55.039998,-1.28 c 0.0065,-0.528 0.07824,-0.705259 0.159373,-0.39391 0.08113,0.31135 0.0758,0.74335 -0.01186,0.96 -0.08765,0.216651 -0.154037,-0.03809 -0.147516,-0.56609 z m 43.199998,0 c 0.007,-0.528 0.0782,-0.705259 0.15937,-0.39391 0.0811,0.31135 0.0758,0.74335 -0.0118,0.96 -0.0877,0.216651 -0.15404,-0.03809 -0.14752,-0.56609 z m -16.959999,-0.64 c 0.0065,-0.528 0.07824,-0.705259 0.159374,-0.39391 0.08113,0.31135 0.0758,0.74335 -0.01186,0.96 -0.08766,0.216651 -0.154038,-0.03809 -0.147517,-0.56609 z m -16.639999,-0.32 c 0.0065,-0.528 0.07824,-0.705259 0.159373,-0.39391 0.08113,0.31135 0.0758,0.74335 -0.01186,0.96 -0.08765,0.216651 -0.154038,-0.03809 -0.147516,-0.56609 z m 45.759998,0 c 0.007,-0.528 0.0782,-0.705259 0.15937,-0.39391 0.0811,0.31135 0.0758,0.74335 -0.0118,0.96 -0.0877,0.216651 -0.15404,-0.03809 -0.14752,-0.56609 z m -64.947039,-10.48 0.07534,-10.959999 0.08915,10.159999 c 0.05619,6.403217 0.205815,10.16 0.404658,10.16 0.173527,0 0.315505,-0.24 0.315505,-0.533333 0,-0.293334 0.08635,-0.446982 0.191892,-0.341441 0.268036,0.268036 -0.495885,2.474774 -0.856709,2.474774 -0.175965,0 -0.264754,-4.426502 -0.219841,-10.96 z m 9.907041,9.2 c 0.0065,-0.528 0.07824,-0.705259 0.159373,-0.39391 0.08113,0.31135 0.0758,0.74335 -0.01186,0.96 -0.08765,0.216651 -0.154037,-0.03809 -0.147516,-0.56609 z m 43.199998,0 c 0.007,-0.528 0.0782,-0.705259 0.15937,-0.39391 0.0811,0.31135 0.0758,0.74335 -0.0118,0.96 -0.0877,0.216651 -0.15404,-0.03809 -0.14752,-0.56609 z m -16.959999,-0.64 c 0.0065,-0.528 0.07824,-0.705259 0.159374,-0.39391 0.08113,0.31135 0.0758,0.74335 -0.01186,0.96 -0.08766,0.216651 -0.154038,-0.03809 -0.147517,-0.56609 z m -16.639999,-0.64 c 0.0065,-0.528 0.07824,-0.705259 0.159373,-0.39391 0.08113,0.31135 0.0758,0.74335 -0.01186,0.96 -0.08765,0.216651 -0.154038,-0.03809 -0.147516,-0.56609 z m 45.748138,0.16 c 0,-0.44 0.0726,-0.62 0.16141,-0.4 0.0888,0.22 0.0888,0.58 0,0.8 -0.0888,0.22 -0.16141,0.04 -0.16141,-0.4 z m -64.050521,-0.32 c 0,-0.234667 0.096,-0.330667 0.213333,-0.213333 0.117333,0.117333 0.117333,0.309333 0,0.426666 -0.117333,0.117334 -0.213333,0.02133 -0.213333,-0.213333 z m 9.022383,-1.12 c 0.0065,-0.528 0.07824,-0.705259 0.159373,-0.39391 0.08113,0.31135 0.0758,0.74335 -0.01186,0.96 -0.08765,0.216651 -0.154037,-0.03809 -0.147516,-0.56609 z m 43.199998,0 c 0.007,-0.528 0.0782,-0.705259 0.15937,-0.39391 0.0811,0.31135 0.0758,0.74335 -0.0118,0.96 -0.0877,0.216651 -0.15404,-0.03809 -0.14752,-0.56609 z m -51.902381,-0.16 c 0,-0.234666 0.096,-0.330666 0.213333,-0.213333 0.117333,0.117333 0.117333,0.309333 0,0.426667 -0.117333,0.117333 -0.213333,0.02133 -0.213333,-0.213334 z m 34.942382,-0.48 c 0.0065,-0.528 0.07824,-0.705259 0.159374,-0.39391 0.08113,0.31135 0.0758,0.74335 -0.01186,0.96 -0.08766,0.216651 -0.154038,-0.03809 -0.147517,-0.56609 z m -16.651856,-0.16 c 0,-0.44 0.07263,-0.62 0.161403,-0.4 0.08877,0.22 0.08877,0.58 0,0.8 -0.08877,0.22 -0.161403,0.04 -0.161403,-0.4 z m 45.759995,0 c 0,-0.44 0.0726,-0.62 0.16141,-0.4 0.0888,0.22 0.0888,0.58 0,0.8 -0.0888,0.22 -0.16141,0.04 -0.16141,-0.4 z m -78.33082,-3.36 c 7.22e-4,-1.936 0.05343,-2.686742 0.117124,-1.668316 0.0637,1.018427 0.06311,2.602427 -0.0013,3.52 -0.06442,0.917574 -0.116533,0.08432 -0.115811,-1.851684 z m 14.625562,2.853334 c 0.01536,-0.372782 0.09118,-0.448608 0.193333,-0.193334 0.09244,0.231 0.08107,0.507 -0.02526,0.613334 -0.106333,0.106333 -0.181965,-0.08267 -0.16807,-0.42 z m 8.665263,-1.093334 c 0,-0.44 0.07263,-0.62 0.161403,-0.4 0.08877,0.22 0.08877,0.58 0,0.8 -0.08877,0.22 -0.161403,0.04 -0.161403,-0.4 z m 43.211855,-0.16 c 0.007,-0.528 0.0782,-0.705259 0.15937,-0.39391 0.0811,0.31135 0.0758,0.74335 -0.0118,0.96 -0.0877,0.216651 -0.15404,-0.03809 -0.14752,-0.56609 z m -51.557118,-0.02667 c 0.01536,-0.372782 0.09118,-0.448608 0.193333,-0.193334 0.09244,0.231 0.08107,0.507 -0.02526,0.613334 -0.106333,0.106333 -0.181965,-0.08267 -0.16807,-0.42 z m 34.597119,-0.293334 c 0.0065,-0.528 0.07824,-0.705259 0.159374,-0.39391 0.08113,0.31135 0.0758,0.74335 -0.01186,0.96 -0.08766,0.216651 -0.154038,-0.03809 -0.147517,-0.56609 z m -16.639999,-0.32 c 0.0065,-0.528 0.07824,-0.705259 0.159373,-0.39391 0.08113,0.31135 0.0758,0.74335 -0.01186,0.96 -0.08765,0.216651 -0.154038,-0.03809 -0.147516,-0.56609 z m 45.748138,0.16 c 0,-0.44 0.0726,-0.62 0.16141,-0.4 0.0888,0.22 0.0888,0.58 0,0.8 -0.0888,0.22 -0.16141,0.04 -0.16141,-0.4 z M 63.065262,77.573332 c 0.01535,-0.372782 0.09118,-0.448608 0.193333,-0.193334 0.09244,0.231 0.08107,0.507 -0.02526,0.613334 -0.106333,0.106333 -0.181965,-0.08267 -0.16807,-0.42 z m 8.345263,-0.773334 c 0,-0.44 0.07263,-0.62 0.161403,-0.4 0.08877,0.22 0.08877,0.58 0,0.8 -0.08877,0.22 -0.161403,0.04 -0.161403,-0.4 z m 43.211855,-0.16 c 0.007,-0.528 0.0782,-0.705259 0.15937,-0.393909 0.0811,0.311349 0.0758,0.743349 -0.0118,0.959999 -0.0877,0.216651 -0.15404,-0.03809 -0.14752,-0.56609 z m -16.959999,-0.32 c 0.0065,-0.528 0.07824,-0.705259 0.159374,-0.393909 0.08113,0.311349 0.0758,0.743349 -0.01186,0.959999 -0.08766,0.216651 -0.154038,-0.03809 -0.147517,-0.56609 z m -34.302382,0.16 c 0,-0.234666 0.096,-0.330666 0.213333,-0.213333 0.117333,0.117333 0.117333,0.309333 0,0.426667 -0.117333,0.117333 -0.213333,0.02133 -0.213333,-0.213334 z m 63.422381,-0.48 c 0.007,-0.528 0.0782,-0.705259 0.15937,-0.393909 0.0811,0.311349 0.0758,0.743349 -0.0118,0.959999 -0.0877,0.216651 -0.15404,-0.03809 -0.14752,-0.56609 z m -45.771855,-0.16 c 0,-0.44 0.07263,-0.62 0.161403,-0.4 0.08877,0.22 0.08877,0.58 0,0.8 -0.08877,0.22 -0.161403,0.04 -0.161403,-0.4 z m -17.330526,-0.64 c 0,-0.234666 0.096,-0.330666 0.213333,-0.213333 0.117333,0.117333 0.117333,0.309333 0,0.426667 -0.117333,0.117333 -0.213333,0.02133 -0.213333,-0.213334 z m 8.062383,-0.8 c 0.0065,-0.528 0.07824,-0.705259 0.159373,-0.393909 0.08113,0.311349 0.0758,0.743349 -0.01186,0.96 -0.08765,0.21665 -0.154038,-0.03809 -0.147516,-0.566091 z m 43.162878,0.293334 c 0.0154,-0.372782 0.0912,-0.448608 0.19333,-0.193334 0.0924,0.231 0.0811,0.507 -0.0253,0.613334 -0.10633,0.106333 -0.18196,-0.08267 -0.16807,-0.42 z M 97.970524,74.239998 c 0,-0.44 0.07263,-0.62 0.161404,-0.4 0.08877,0.22 0.08877,0.58 0,0.8 -0.08877,0.22 -0.161404,0.04 -0.161404,-0.4 z M 64.025262,74.053332 c 0.01535,-0.372782 0.09118,-0.448608 0.193333,-0.193334 0.09244,0.231 0.08107,0.507 -0.02526,0.613334 -0.106333,0.106333 -0.181965,-0.08267 -0.16807,-0.42 z m 17.31712,-0.613334 c 0.0065,-0.528 0.07824,-0.705259 0.159373,-0.393909 0.08113,0.311349 0.0758,0.743349 -0.01186,0.96 -0.08765,0.21665 -0.154038,-0.03809 -0.147516,-0.566091 z m 33.882878,-0.346666 c 0.0154,-0.372782 0.0912,-0.448608 0.19333,-0.193334 0.0924,0.231 0.0811,0.507 -0.0253,0.613334 -0.10633,0.106333 -0.18196,-0.08267 -0.16807,-0.42 z m -50.879998,-0.32 c 0.01535,-0.372782 0.09118,-0.448608 0.193333,-0.193334 0.09244,0.231 0.08107,0.507 -0.02526,0.613334 -0.106333,0.106333 -0.181965,-0.08267 -0.16807,-0.42 z m 7.728977,-0.773334 c 0,-0.616 0.06585,-0.868 0.146344,-0.56 0.08049,0.308 0.08049,0.812 0,1.12 -0.08049,0.308 -0.146344,0.056 -0.146344,-0.56 z m 26.191022,0.453334 c 0.01535,-0.372782 0.09118,-0.448608 0.193333,-0.193334 0.09244,0.231 0.08107,0.507 -0.02526,0.613334 -0.106333,0.106333 -0.181965,-0.08267 -0.16807,-0.42 z M 115.52,71.999998 c 0,-0.234666 0.096,-0.330666 0.21333,-0.213333 0.11733,0.117333 0.11733,0.309333 0,0.426667 -0.11733,0.117333 -0.21333,0.02133 -0.21333,-0.213334 z m 17.94526,-0.186666 c 0.0154,-0.372782 0.0912,-0.448608 0.19333,-0.193334 0.0924,0.231 0.0811,0.507 -0.0253,0.613334 -0.10633,0.106333 -0.18196,-0.08267 -0.16807,-0.42 z m -68.799998,-0.32 c 0.01535,-0.372782 0.09118,-0.448608 0.193333,-0.193334 0.09244,0.231 0.08107,0.507 -0.02526,0.613334 -0.106333,0.106333 -0.181965,-0.08267 -0.16807,-0.42 z m 17.03716,-1.733334 c 0,-1.144 0.05808,-1.612 0.129063,-1.04 0.07098,0.572 0.07098,1.508 0,2.08 -0.07099,0.572 -0.129063,0.104 -0.129063,-1.04 z m 16.857576,1.6 c 0,-0.234666 0.096,-0.330666 0.213333,-0.213333 0.117333,0.117333 0.117333,0.309333 0,0.426667 -0.117333,0.117333 -0.213333,0.02133 -0.213333,-0.213334 z m 17.292812,-0.09589 c -0.0258,-0.514571 0.90145,-2.002357 1.63443,-2.622575 l 0.75276,-0.636955 -0.68109,0.797711 c -0.3746,0.438741 -0.90884,1.22971 -1.18719,1.75771 -0.27835,0.528 -0.51186,0.844849 -0.51891,0.704109 z m 17.14672,-0.71648 c -0.30879,-0.804702 -0.2177,-1.012337 0.15953,-0.363628 0.18678,0.321201 0.27219,0.651411 0.1898,0.733801 -0.0824,0.08239 -0.23959,-0.08419 -0.34933,-0.370173 z m -68.039531,-0.14763 c 0,-0.234666 0.096,-0.330666 0.213333,-0.213333 0.117333,0.117333 0.117333,0.309333 0,0.426667 -0.117333,0.117333 -0.213333,0.02133 -0.213333,-0.213334 z m 33.92973,0.08505 c -0.0054,-0.217223 0.386269,-0.80016 0.870269,-1.295415 0.484002,-0.495255 0.647662,-0.605527 0.363702,-0.245049 -0.283964,0.360479 -0.675585,0.943415 -0.870269,1.295415 -0.194685,0.352 -0.358351,0.462272 -0.363702,0.245049 z m -33.60973,-1.365049 c 0,-0.234666 0.096,-0.330666 0.213333,-0.213333 0.117333,0.117333 0.117333,0.309333 0,0.426667 -0.117333,0.117333 -0.213333,0.02133 -0.213333,-0.213334 z m 66.462151,-0.490112 c -0.49381,-0.434438 -0.77091,-0.789888 -0.61578,-0.789888 0.15514,0 0.62027,0.36 1.03363,0.8 0.95636,1.017998 0.74496,1.012882 -0.41785,-0.01011 z M 89.279998,68.159998 c 0,-0.234666 0.096,-0.330666 0.213333,-0.213333 0.117334,0.117333 0.117334,0.309333 0,0.426667 -0.117333,0.117333 -0.213333,0.02133 -0.213333,-0.213334 z m -23.679999,-0.32 c 0,-0.234666 0.096,-0.330666 0.213333,-0.213333 0.117333,0.117333 0.117333,0.309333 0,0.426667 -0.117333,0.117333 -0.213333,0.02133 -0.213333,-0.213334 z m 35.520001,0.16 c 0,-0.088 0.072,-0.16 0.16,-0.16 0.088,0 0.16,0.072 0.16,0.16 0,0.088 -0.072,0.16 -0.16,0.16 -0.088,0 -0.16,-0.072 -0.16,-0.16 z m 17.28,0 c 0,-0.088 0.072,-0.16 0.16,-0.16 0.088,0 0.16,0.072 0.16,0.16 0,0.088 -0.072,0.16 -0.16,0.16 -0.088,0 -0.16,-0.072 -0.16,-0.16 z M 83.931682,67.603174 c 1.018426,-0.0637 2.602426,-0.06311 3.52,0.0013 0.917574,0.06442 0.08432,0.116533 -1.851684,0.115811 -1.936,-7.22e-4 -2.686742,-0.05343 -1.668316,-0.117123 z m 21.092128,-0.0012 c 1.5311,-0.05853 4.1231,-0.05881 5.76,-6.1e-4 1.6369,0.05819 0.38419,0.106083 -2.78381,0.106419 -3.168,3.35e-4 -4.50729,-0.04728 -2.97619,-0.105809 z M 122.32,67.601737 c 1.54,-0.05866 4.06,-0.05866 5.6,0 1.54,0.05866 0.28,0.106655 -2.8,0.106655 -3.08,0 -4.34,-0.048 -2.8,-0.106655 z M 65.982382,66.399999 c 0.0065,-0.528 0.07824,-0.70526 0.159374,-0.39391 0.08113,0.311349 0.0758,0.743349 -0.01186,0.96 -0.08765,0.21665 -0.154037,-0.03809 -0.147516,-0.56609 z" id="path8" />
      <ns0:path style="fill:#e39b5f" d="m 26.554314,116.16718 c 0.554452,-0.70006 2.096334,-2.27557 3.426405,-3.50115 2.376328,-2.18964 2.428693,-2.27171 3.016299,-4.72718 0.328893,-1.37437 0.599111,-3.23994 0.600484,-4.1457 0.0023,-1.48458 -0.108459,-1.74427 -1.123549,-2.63554 -0.619325,-0.54377 -2.923325,-2.163485 -5.12,-3.599362 -2.196674,-1.435877 -3.993954,-2.71157 -3.993954,-2.834872 0,-0.123302 0.30979,-0.498504 0.688423,-0.833782 1.169567,-1.035649 2.511662,-3.405669 2.509893,-4.432246 -9.27e-4,-0.537542 -0.555694,-3.098583 -1.232815,-5.691202 -0.677122,-2.592618 -1.155788,-4.789194 -1.063703,-4.881279 0.2191,-0.2191 2.59026,9.326328 2.606054,10.491022 0.01505,1.10972 -0.714167,2.559954 -2.109657,4.195601 l -1.067739,1.251492 4.234772,2.774965 c 5.588852,3.662263 5.994772,4.089023 5.994772,6.302513 0,0.95326 -0.234671,2.76962 -0.521491,4.03637 -0.518447,2.28972 -0.540221,2.32141 -3.729413,5.42709 -1.764357,1.71815 -3.135025,3.19681 -3.04593,3.28591 0.0891,0.0891 1.495133,-0.35287 3.124527,-0.98214 1.629394,-0.62927 3.015647,-1.09102 3.080563,-1.0261 0.121431,0.12143 -6.61669,2.79841 -7.043771,2.79841 -0.131045,0 0.215379,-0.57277 0.76983,-1.27282 z m 6.753752,-1.72883 c 0.247878,-0.26513 4.78512,-1.8052 5.227982,-1.77453 0.189173,0.0131 -0.61591,0.35954 -1.789074,0.76987 -2.947219,1.03083 -3.657339,1.23829 -3.438908,1.00466 z M 136.32,112.48 c -1.672,-0.58836 -2.88522,-1.08105 -2.69605,-1.09487 0.18917,-0.0138 1.40148,0.33456 2.69402,0.77418 1.29254,0.43962 2.40621,0.74317 2.47483,0.67455 0.0686,-0.0686 -1.10337,-1.1369 -2.6044,-2.37397 -2.84564,-2.34522 -6.9941,-5.04626 -10.3602,-6.74546 -1.92141,-0.96993 -2.07919,-0.99443 -6.4033,-0.99443 -4.31328,0 -4.45366,-0.0216 -5.18372,-0.79874 -0.4127,-0.43931 -0.65582,-0.89329 -0.54026,-1.00885 0.11556,-0.11556 0.51058,0.17187 0.87782,0.63874 0.66397,0.84409 0.69208,0.84885 5.01786,0.84885 h 4.35016 l 3.06662,1.63792 c 1.68664,0.90085 4.32863,2.50197 5.87109,3.55803 2.75025,1.883 7.42602,5.98737 6.79553,5.96509 -0.176,-0.006 -1.688,-0.49269 -3.36,-1.08104 z m -96.320001,-0.32 c 0.616,-0.23722 1.336,-0.43131 1.6,-0.43131 0.264,0 -0.024,0.19409 -0.64,0.43131 -0.616,0.23722 -1.336,0.43131 -1.6,0.43131 -0.264,0 0.024,-0.19409 0.64,-0.43131 z m 2.72,-0.8 c 0.352,-0.15126 0.856,-0.27502 1.12,-0.27502 0.302553,0 0.243404,0.10167 -0.16,0.27502 -0.352,0.15126 -0.856,0.27501 -1.12,0.27501 -0.302553,0 -0.243404,-0.10166 0.16,-0.27501 z M 131.68,111.04 c -0.40341,-0.17335 -0.46256,-0.27502 -0.16,-0.27502 0.264,0 0.768,0.12376 1.12,0.27502 0.4034,0.17335 0.46255,0.27501 0.16,0.27501 -0.264,0 -0.768,-0.12375 -1.12,-0.27501 z m -86.940001,-0.2186 c 0.231,-0.0924 0.507,-0.0811 0.613333,0.0253 0.106334,0.10634 -0.08267,0.18197 -0.42,0.16807 -0.372781,-0.0153 -0.448607,-0.0912 -0.193333,-0.19333 z m 1.28,-0.32 c 0.231,-0.0924 0.507,-0.0811 0.613333,0.0253 0.106334,0.10634 -0.08267,0.18197 -0.42,0.16807 -0.372781,-0.0154 -0.448607,-0.0912 -0.193333,-0.19333 z M 128.64,110.24 c -0.792,-0.22944 -1.152,-0.42024 -0.8,-0.42399 0.352,-0.004 1.216,0.18301 1.92,0.41503 1.65716,0.54615 0.75911,0.55334 -1.12,0.009 z m -81.340001,-0.0586 c 0.231,-0.0924 0.507,-0.0811 0.613333,0.0253 0.106334,0.10634 -0.08267,0.18197 -0.42,0.16807 -0.372781,-0.0153 -0.448608,-0.0912 -0.193333,-0.19333 z m 1.28,-0.32 c 0.231,-0.0924 0.507,-0.0811 0.613333,0.0253 0.106334,0.10634 -0.08267,0.18197 -0.42,0.16807 -0.372782,-0.0154 -0.448608,-0.0912 -0.193333,-0.19333 z m 1.28,-0.32 c 0.231,-0.0924 0.507,-0.0811 0.613333,0.0253 0.106334,0.10634 -0.08267,0.18197 -0.42,0.16807 -0.372782,-0.0153 -0.448608,-0.0912 -0.193333,-0.19333 z m 76.480001,0 c 0.231,-0.0924 0.507,-0.0811 0.61333,0.0253 0.10633,0.10634 -0.0827,0.18197 -0.42,0.16807 -0.37278,-0.0153 -0.44861,-0.0912 -0.19333,-0.19333 z m -75.220001,-0.31333 c 0.22,-0.0888 0.58,-0.0888 0.8,0 0.22,0.0888 0.04,0.1614 -0.4,0.1614 -0.44,0 -0.62,-0.0726 -0.4,-0.1614 z M 125.06,109.2214 c 0.231,-0.0924 0.507,-0.0811 0.61333,0.0253 0.10633,0.10634 -0.0827,0.18197 -0.42,0.16807 -0.37278,-0.0154 -0.44861,-0.0912 -0.19333,-0.19333 z m -72.320001,-0.32 c 0.231,-0.0924 0.507,-0.0811 0.613333,0.0253 0.106333,0.10634 -0.08267,0.18197 -0.42,0.16807 -0.372782,-0.0153 -0.448608,-0.0912 -0.193333,-0.19333 z M 120.8,108.45605 c -1.49921,-0.34807 -1.96331,-0.52754 -1.12,-0.43313 1.72636,0.19328 5.22978,1.02606 4.32,1.02689 -0.352,3.2e-4 -1.792,-0.26688 -3.2,-0.59376 z m -66.800001,0.13202 c 0.22,-0.0888 0.58,-0.0888 0.8,0 0.22,0.0888 0.04,0.1614 -0.4,0.1614 -0.44,0 -0.62,-0.0726 -0.4,-0.1614 z m 1.6,-0.32 c 0.22,-0.0888 0.58,-0.0888 0.8,0 0.22,0.0888 0.04,0.1614 -0.4,0.1614 -0.44,0 -0.62,-0.0726 -0.4,-0.1614 z m 2.16,-0.42807 c 0.528,-0.13436 1.392,-0.24476 1.92,-0.24534 0.80715,-8.9e-4 0.7562,0.0411 -0.32,0.2637 -1.620981,0.33528 -2.93075,0.32026 -1.6,-0.0184 z m 59.126091,-0.22176 c 0.31135,-0.0811 0.74335,-0.0758 0.96,0.0119 0.21665,0.0876 -0.0381,0.15404 -0.56609,0.14751 -0.528,-0.007 -0.70526,-0.0782 -0.39391,-0.15937 z m -55.680001,-0.32 c 0.311349,-0.0811 0.743349,-0.0758 0.96,0.0119 0.21665,0.0876 -0.03809,0.15404 -0.56609,0.14751 -0.528,-0.007 -0.70526,-0.0782 -0.39391,-0.15937 z m 53.433911,10e-4 c 0.308,-0.0805 0.812,-0.0805 1.12,0 0.308,0.0805 0.056,0.14635 -0.56,0.14635 -0.616,0 -0.868,-0.0659 -0.56,-0.14635 z m -51.520001,-0.32 c 0.308,-0.0805 0.812,-0.0805 1.12,0 0.308,0.0805 0.056,0.14635 -0.56,0.14635 -0.616,0 -0.868,-0.0659 -0.56,-0.14635 z m 49.280001,0 c 0.308,-0.0805 0.812,-0.0805 1.12,0 0.308,0.0805 0.056,0.14635 -0.56,0.14635 -0.616,0 -0.868,-0.0659 -0.56,-0.14635 z m -47.040001,-0.32 c 0.308,-0.0805 0.812,-0.0805 1.12,0 0.308,0.0805 0.056,0.14635 -0.56,0.14635 -0.616,0 -0.868,-0.0659 -0.56,-0.14635 z m 44.800001,0 c 0.308,-0.0805 0.812,-0.0805 1.12,0 0.308,0.0805 0.056,0.14635 -0.56,0.14635 -0.616,0 -0.868,-0.0659 -0.56,-0.14635 z m -42.240002,-0.32 c 0.308,-0.0805 0.812,-0.0805 1.12,0 0.308,0.0805 0.056,0.14635 -0.56,0.14635 -0.616,0 -0.868,-0.0659 -0.56,-0.14635 z m 39.680002,0 c 0.308,-0.0805 0.812,-0.0805 1.12,0 0.308,0.0805 0.056,0.14635 -0.56,0.14635 -0.616,0 -0.868,-0.0659 -0.56,-0.14635 z m -36.960002,-0.32525 c 0.396,-0.0763 1.044,-0.0763 1.44,0 0.396,0.0763 0.072,0.13868 -0.72,0.13868 -0.792,0 -1.116,-0.0624 -0.72,-0.13868 z m 33.764402,-0.004 c 0.48642,-0.0735 1.20642,-0.0716 1.6,0.004 0.39358,0.076 -0.004,0.13614 -0.8844,0.13373 -0.88,-0.002 -1.20202,-0.0645 -0.7156,-0.1381 z M 40.063999,105.536 c -0.447729,-0.44773 -0.511744,-1.216 -0.101322,-1.216 0.155473,0 0.357992,0.288 0.450042,0.64 0.153922,0.5886 0.436485,0.64 3.518139,0.64 2.294514,0 3.452895,-0.12609 3.674728,-0.4 0.178173,-0.22 1.599805,-5.06021 3.159182,-10.756018 1.559377,-5.695808 2.882548,-10.119871 2.940379,-9.831251 0.152015,0.758659 -5.377819,20.782359 -5.816677,21.062369 -0.637306,0.40663 -7.398949,0.28642 -7.824471,-0.1391 z m 14.416,0.17207 C 54.028424,105.52585 53.926503,104.32 54.362677,104.32 c 0.155473,0 0.357991,0.288 0.450041,0.64 0.154609,0.59122 0.436485,0.64 3.698437,0.64 2.289588,0 3.610021,-0.12774 3.755621,-0.36333 0.123501,-0.19983 0.625738,-1.94899 1.116082,-3.88702 0.490343,-1.938032 1.081795,-3.64433 1.314337,-3.791773 0.232542,-0.147444 0.782804,-0.253247 1.222804,-0.235118 0.727017,0.02995 0.713347,0.05153 -0.149854,0.236485 -0.909836,0.194949 -0.990726,0.358505 -1.92,3.882136 -0.53358,2.02324 -1.086645,3.85862 -1.229032,4.07862 -0.184426,0.28495 -1.334887,0.39273 -4,0.37473 -2.057613,-0.0139 -3.921114,-0.0979 -4.141114,-0.18666 z m 19.68573,-0.02 c 0.575152,-0.0712 1.439152,-0.0697 1.92,0.003 0.480848,0.073 0.01027,0.13129 -1.045731,0.12949 -1.056,-0.002 -1.449421,-0.0615 -0.874269,-0.13276 z m 26.240001,0 c 0.57515,-0.0712 1.43915,-0.0697 1.92,0.003 0.48085,0.073 0.0103,0.13129 -1.04573,0.12949 -1.056,-0.002 -1.449423,-0.0615 -0.87427,-0.13276 z m -21.113192,-0.32533 c 1.106897,-0.0627 2.834897,-0.0622 3.84,0.001 1.005103,0.0633 0.09946,0.11457 -2.01254,0.11393 -2.112,-6.3e-4 -2.934357,-0.0524 -1.82746,-0.11508 z m 14.08,0 c 1.106897,-0.0627 2.834897,-0.0622 3.84,0.001 1.005103,0.0633 0.09946,0.11457 -2.01254,0.11393 -2.112,-6.3e-4 -2.934357,-0.0524 -1.82746,-0.11508 z m -6.562885,-0.31836 c 0.841311,-0.0661 2.137311,-0.0653 2.88,0.002 0.74269,0.0671 0.05434,0.12123 -1.529655,0.12025 -1.584,-9.7e-4 -2.191655,-0.0559 -1.350345,-0.12202 z m -18.821092,-2.0229 c -0.121439,-0.19649 -0.06055,-0.51751 0.13532,-0.71337 0.26149,-0.26149 0.356117,-0.21157 0.356117,0.18788 0,0.48078 0.431999,0.544 3.717305,0.544 h 3.717305 l -0.163055,-0.85297 c -0.173925,-0.90983 0.465957,-5.503432 0.854103,-6.131465 0.127662,-0.206562 0.619615,-0.355957 1.093228,-0.331989 0.782346,0.03959 0.793464,0.0565 0.121547,0.184821 -0.963431,0.183995 -1.056051,0.482316 -1.297259,4.178353 l -0.203174,3.11325 -4.055319,0.0894 c -2.730153,0.0602 -4.127471,-0.0274 -4.276118,-0.26788 z M 77.439998,102.72 c 0,-0.352 0.144,-0.64 0.32,-0.64 0.176,0 0.32,0.216 0.32,0.48 0,0.41357 1.081924,0.48 7.817313,0.48 h 7.817312 l 0.399646,-1.84 c 0.219805,-1.012 0.410014,-2.451543 0.422687,-3.198983 0.01267,-0.747439 0.151927,-1.359439 0.309454,-1.36 0.34717,-0.0012 0.03364,3.842683 -0.450161,5.518983 l -0.346334,1.2 h -8.304958 c -8.091625,0 -8.304959,-0.0164 -8.304959,-0.64 z m 19.672105,-0.13881 c -0.435658,-0.43565 -0.792105,-0.97474 -0.792105,-1.19796 0,-0.22323 0.423882,0.0582 0.941961,0.62545 L 98.20392,103.04 h 6.07261 6.07262 l 0.16483,-0.88 c 0.0907,-0.484 0.25493,-1.564 0.36504,-2.400002 0.18367,-1.394566 0.27119,-1.518144 1.06058,-1.497509 0.7527,0.01968 0.78029,0.05373 0.2204,0.272075 -0.50335,0.196292 -0.70833,0.721021 -0.96,2.457506 l -0.32,2.20793 -6.4879,0.0866 -6.487891,0.0867 z M 66.879999,97.156318 c 0,-0.06802 0.424394,-0.185969 0.943099,-0.262098 0.518705,-0.07613 0.870207,-0.02047 0.781115,0.12368 -0.158565,0.256563 -1.724214,0.382252 -1.724214,0.138418 z m 19.088838,-1.55632 c 0.08191,-0.132 2.264433,-0.215793 4.850046,-0.186207 5.127589,0.05867 4.593792,0.201151 -1.268932,0.338696 -2.051526,0.04813 -3.663027,-0.02049 -3.581114,-0.152489 z m -38.09683,-16.24 c 0.18615,-6.222522 0.326954,-7.431245 0.780869,-6.70331 0.555026,0.890086 1.4055,-0.182366 2.51618,-3.172914 0.598981,-1.61278 1.143069,-2.878316 1.209083,-2.812302 0.14429,0.14429 -1.390733,4.486481 -2.025112,5.728526 -0.247205,0.484 -0.717361,0.88 -1.044792,0.88 -0.546314,0 -0.614797,0.428131 -0.831788,5.2 -0.130052,2.86 -0.356948,5.488 -0.504213,5.84 -0.14939,0.357079 -0.193697,-1.835559 -0.100227,-4.96 z m -18.864794,0.176708 c 0.850454,-0.370035 1.062121,-0.694263 1.36,-2.083225 0.194033,-0.904741 0.352786,-1.917398 0.352786,-2.250348 0,-1.257124 0.648823,-0.913857 1.944489,1.028754 0.736645,1.104461 1.564012,2.188111 1.838594,2.408111 0.274582,0.22 0.340358,0.4 0.146168,0.4 -0.19419,0 -1.043257,-0.967205 -1.886814,-2.149346 l -1.533742,-2.149346 -0.368226,1.909346 c -0.482983,2.504392 -0.688336,2.929697 -1.522605,3.153443 -1.208936,0.324231 -1.377354,0.188035 -0.33065,-0.267389 z m -2.527214,-0.06864 c 0.22,-0.08877 0.58,-0.08877 0.8,0 0.22,0.08877 0.04,0.161404 -0.4,0.161404 -0.44,0 -0.62,-0.07263 -0.4,-0.161404 z m -1.26,-0.326666 c 0.231,-0.09244 0.507,-0.08107 0.613334,0.02526 0.106333,0.106333 -0.08267,0.181965 -0.42,0.16807 -0.372782,-0.01535 -0.448608,-0.09118 -0.193334,-0.193333 z m 10.22,-0.313334 c 0.613742,-0.24765 0.494427,-3.614498 -0.388904,-10.974109 -0.432126,-3.600322 -0.717899,-6.613824 -0.635051,-6.696671 0.08285,-0.08285 0.553009,0.23487 1.044803,0.706039 1.234033,1.182279 2.190304,1.119254 2.781628,-0.183328 0.259667,-0.572 1.128673,-3.704 1.931124,-6.96 2.053669,-8.332901 2.082993,-8.432963 2.379861,-8.120705 0.146779,0.154388 1.024951,2.494065 1.951493,5.199282 0.949519,2.772302 1.974895,5.198247 2.349834,5.559491 l 0.665212,0.640914 -0.696519,-0.358183 c -0.710794,-0.365525 -1.195454,-1.463336 -3.090539,-7.000434 -0.557118,-1.627798 -1.100256,-2.959798 -1.206972,-2.959999 -0.106717,-2.02e-4 -0.99937,3.184176 -1.983673,7.076395 -1.012577,4.004023 -2.026683,7.338688 -2.335565,7.68 -0.669283,0.739549 -1.498132,0.767777 -2.53799,0.08644 -0.762622,-0.499688 -0.788742,-0.491424 -0.788742,0.249555 0,0.421497 0.211702,2.490059 0.470449,4.596803 1.183495,9.636161 1.197492,11.717916 0.07829,11.645182 -0.293004,-0.01904 -0.290231,-0.06501 0.01126,-0.186667 z m 12.941198,-8.74807 c -0.01337,-0.792 0.09483,-2.016 0.240444,-2.72 l 0.264758,-1.279999 0.0088,1.119999 c 0.0048,0.616 -0.103378,1.84 -0.240444,2.72 l -0.24921,1.6 z m 4.098802,-4.159999 c 0,-0.234667 0.096,-0.330667 0.213333,-0.213334 0.117333,0.117334 0.117333,0.309334 0,0.426667 -0.117333,0.117333 -0.213333,0.02133 -0.213333,-0.213333 z m 0.32,-0.96 c 0,-0.234667 0.096,-0.330667 0.213333,-0.213334 0.117333,0.117334 0.117333,0.309334 0,0.426667 -0.117333,0.117333 -0.213333,0.02133 -0.213333,-0.213333 z M 48.575892,64.04639 c 0.40225,-0.255153 1.537201,-8.599963 1.213658,-8.923507 -0.0797,-0.0797 -0.445876,0.445051 -0.813731,1.166106 -0.367855,0.721055 -0.832219,1.31101 -1.03192,1.31101 -0.221448,0 -0.170921,-0.218459 0.129522,-0.56 0.270937,-0.308 0.862551,-1.28 1.314696,-2.16 l 0.822083,-1.6 0.01227,1.28 c 0.0068,0.704 -0.127928,2.576 -0.299285,4.16 -0.572107,5.28846 -0.640277,5.600382 -1.222797,5.595099 -0.407031,-0.0037 -0.437756,-0.07 -0.1245,-0.268708 z m 4.544107,0.113609 c 0,-0.088 0.072,-0.16 0.16,-0.16 0.088,0 0.16,0.072 0.16,0.16 0,0.088 -0.072,0.16 -0.16,0.16 -0.088,0 -0.16,-0.072 -0.16,-0.16 z" id="path7" />
      <ns0:path style="fill:#a49e93" d="m 43.486451,104.33736 c 2.481089,-0.13229 3.396983,-0.29935 3.60399,-0.65736 0.152646,-0.264 1.587554,-5.232002 3.188683,-11.040002 1.60113,-5.808 2.983705,-10.81038 3.07239,-11.116401 0.270435,-0.933172 0.728485,-0.281514 0.728485,1.036401 0,1.198462 -0.45575,1.992751 -0.70844,1.234681 -0.06771,-0.203118 -1.390513,4.223984 -2.939571,9.838006 C 48.88293,99.246707 47.468395,104.02 47.288577,104.24 c -0.230585,0.28211 -1.329246,0.38154 -3.72776,0.33736 l -3.400818,-0.0626 z m 14.525631,0.0637 c 3.26677,-0.0975 3.467163,-0.14265 3.733012,-0.84189 0.154511,-0.4064 1.313533,-4.757468 2.575603,-9.669051 4.133199,-16.085112 6.980544,-26.832955 7.367535,-27.81015 0.2091,-0.528 0.498736,-1.356 0.643636,-1.84 l 0.263455,-0.88 H 69.59363 66.591937 l -0.115462,1.84 -0.115462,1.84 -0.06051,-2 -0.06051,-2 h 3.366096 3.366097 l -0.19337,0.88 c -0.106353,0.484 -0.410077,1.455355 -0.674942,2.158567 -0.520545,1.382039 -3.861229,14.025355 -7.462099,28.241427 -1.237097,4.884003 -2.388496,9.204007 -2.558664,9.600007 -0.297353,0.69197 -0.449808,0.71735 -3.916258,0.65204 l -3.60686,-0.068 z m 13.907916,-2.55977 3.28,-0.10371 v -1.58646 c 0,-1.217363 2.1026,-17.16473 4.080792,-30.951152 l 0.149228,-1.04 h -3.380991 -3.380991 l -0.110436,2.32 -0.110436,2.32 -0.06358,-2.48 -0.06358,-2.48 h 3.712222 3.712222 l -0.141604,1.36 c -0.07788,0.748 -0.881694,6.76 -1.786248,13.36 -2.12219,15.48439 -2.297489,16.882511 -2.297,18.320002 l 4.08e-4,1.2 -3.44,-0.0675 -3.44,-0.0675 z m 13.557482,-9.4e-4 7.557482,-0.0918 0.409114,-1.994313 c 0.423893,-2.066353 0.938105,-3.427423 0.934792,-2.474309 -0.0023,0.66273 -0.82107,4.030512 -1.082875,4.454122 -0.145567,0.23553 -2.632419,0.32229 -7.79488,0.27195 l -7.581115,-0.0739 z M 97.168931,101.84 c -0.08186,-0.132 2.707573,-0.1957 6.198739,-0.14156 l 6.34758,0.0984 0.21748,-1.53845 c 0.43431,-3.072198 0.78188,-3.901728 0.59738,-1.425716 -0.0964,1.293996 -0.25255,2.553996 -0.34695,2.799996 -0.139,0.36223 -1.37844,0.44728 -6.51851,0.44728 -3.49079,0 -6.413858,-0.108 -6.495719,-0.24 z m 17.280049,-0.64 c -0.0818,-0.132 2.71369,-0.19825 6.21227,-0.14721 7.09249,0.10346 7.71965,-0.0325 8.87858,-1.925034 0.99057,-1.617592 1.23098,-2.881352 2.63576,-13.855586 1.23048,-9.612505 1.39364,-12.585268 0.78992,-14.392172 -0.20086,-0.601151 -0.19093,-0.604137 0.16346,-0.0492 0.80353,1.258215 0.67517,4.283379 -0.62056,14.625399 -0.71776,5.72891 -1.5226,11.148898 -1.78854,12.044417 -0.33696,1.134648 -0.87127,1.978515 -1.76262,2.783806 l -1.2791,1.15558 h -6.54019 c -3.59711,0 -6.60715,-0.108 -6.68898,-0.24 z m -1.69211,-6.000002 c 8.3e-4,-1.76 0.0546,-2.439173 0.11942,-1.509273 0.0648,0.9299 0.0642,2.3699 -0.002,3.2 -0.0657,0.8301 -0.11873,0.06927 -0.1179,-1.690727 z m -43.956872,1.28 c 0,-0.088 0.072,-0.16 0.16,-0.16 0.088,0 0.16,0.072 0.16,0.16 0,0.088 -0.072,0.16 -0.16,0.16 -0.088,0 -0.16,-0.072 -0.16,-0.16 z m 33.626442,-0.456885 c -0.29117,-0.184303 -0.43451,-0.77319 -0.40035,-1.644844 0.10506,-2.681394 2.35555,-19.035348 2.72721,-19.818271 0.37443,-0.788754 0.43455,-0.8 4.27708,-0.8 4.46003,0 4.09611,0.281087 4.45386,-3.44 l 0.20766,-2.16 h -6.0828 c -5.60909,0 -6.14649,0.05011 -6.9008,0.643441 -0.9859,0.775513 -1.692783,2.539146 -2.307286,5.756559 -0.430024,2.251518 -0.447501,2.284086 -0.282477,0.526412 0.272239,-2.899635 1.023377,-5.012328 2.200613,-6.189562 l 1.05685,-1.05685 h 6.31943 6.31943 l -0.20348,2.48 c -0.33482,4.080888 0.0317,3.771548 -4.46184,3.765362 -3.86214,-0.0053 -3.89817,0.0015 -4.2895,0.811717 -0.45307,0.938027 -2.73717,18.52752 -2.59455,19.980224 l 0.0945,0.962697 3.68,0.176171 3.68,0.176171 -3.52,0.05893 c -1.936,0.03241 -3.7241,-0.07026 -3.97356,-0.228156 z m 7.65356,-0.02311 c 0,-0.234667 0.096,-0.330667 0.21333,-0.213333 0.11733,0.117333 0.11733,0.309333 0,0.426666 C 110.176,96.33067 110.08,96.234666 110.08,96.000003 Z m 8.96264,-0.315055 c -0.25554,-0.477493 0.0166,-3.176555 1.09675,-10.878618 0.79013,-5.63396 1.59108,-10.532185 1.77987,-10.884945 0.29157,-0.544807 0.66921,-0.641382 2.508,-0.641382 1.25702,0 2.32576,0.161019 2.54874,0.384 0.44463,0.444634 0.47077,2.10062 0.0621,3.936 -0.23643,1.061913 -0.25565,0.943114 -0.11277,-0.697262 0.26966,-3.096095 0.12602,-3.302738 -2.29566,-3.302738 -1.7225,0 -2.10172,0.101924 -2.39112,0.642669 -0.18917,0.353468 -0.90879,4.709468 -1.59915,9.68 -0.69036,4.970532 -1.32495,9.513635 -1.41019,10.095784 -0.25828,1.763886 -0.0193,1.982092 2.165,1.976647 1.08117,-0.0027 2.15607,-0.12556 2.38866,-0.273033 0.23259,-0.147473 0.61382,-1.405268 0.84719,-2.7951 0.23337,-1.389832 0.43907,-2.150622 0.45711,-1.690644 0.0609,1.55159 -0.61033,4.280796 -1.15186,4.683677 -0.2962,0.220361 -1.43926,0.4 -2.54524,0.4 -1.67486,0 -2.0639,-0.105248 -2.34745,-0.635055 z m -49.862122,-0.32495 c -0.0072,-0.44 0.102222,-1.448 0.243147,-2.24 0.192141,-1.079838 0.261632,-1.199892 0.277839,-0.48 0.01189,0.528 -0.09753,1.536 -0.243147,2.24 -0.165726,0.801216 -0.269652,0.98076 -0.277839,0.48 z m 15.93948,-0.01529 c 0,-0.737518 3.140412,-24.021364 3.407581,-25.264709 0.09455,-0.44 0.240224,-1.052 0.323725,-1.36 0.137611,-0.507582 -0.164701,-0.56 -3.229742,-0.56 h -3.381564 l -0.02372,1.52 c -0.01305,0.836 -0.151078,2.168 -0.306738,2.96 -0.28205,1.435074 -0.282525,1.43398 -0.139062,-0.32 0.07918,-0.968 0.145208,-2.372 0.146738,-3.12 l 0.0028,-1.36 h 3.699739 3.699738 l -0.187265,1.2 c -0.102996,0.66 -0.249373,1.416 -0.325283,1.68 -0.366808,1.275685 -3.370725,24.694973 -3.202465,24.967222 0.106319,0.172028 0.04081,0.312778 -0.145578,0.312778 -0.186387,0 -0.338886,-0.294881 -0.338886,-0.655291 z m -6.72,0.175291 c 0,-0.088 0.072,-0.16 0.16,-0.16 0.088,0 0.16,0.072 0.16,0.16 0,0.088 -0.072,0.16 -0.16,0.16 -0.088,0 -0.16,-0.072 -0.16,-0.16 z m 17.022383,-0.96 c 0.0065,-0.528 0.07824,-0.70526 0.159374,-0.39391 0.08113,0.31135 0.0758,0.74335 -0.01186,0.96 -0.08766,0.21665 -0.154038,-0.03809 -0.147517,-0.56609 z m -16.628142,-0.48 c 0,-0.616 0.06585,-0.868 0.146343,-0.56 0.08049,0.308 0.08049,0.812 0,1.12 -0.08049,0.308 -0.146343,0.056 -0.146343,-0.56 z m 16.946734,-1.6 c -0.0071,-0.616 0.175057,-2.272 0.404782,-3.68 0.229725,-1.408 0.422315,-2.128 0.427978,-1.6 0.0057,0.528 -0.176489,2.184 -0.404782,3.68 -0.228293,1.496 -0.420883,2.216 -0.427978,1.6 z m -16.638657,-0.48 c -0.0078,-0.528 0.173714,-2.112 0.403439,-3.52 0.229725,-1.408 0.424092,-2.128 0.431925,-1.6 0.0078,0.528 -0.173714,2.112 -0.403439,3.52 -0.229725,1.408 -0.424091,2.128 -0.431925,1.6 z m 33.938384,-1.28 c 0.004,-0.704 0.0691,-0.954321 0.14562,-0.556269 0.0765,0.398052 0.0736,0.974052 -0.006,1.28 -0.0801,0.305948 -0.14272,-0.01973 -0.13916,-0.723731 z m -43.200003,-0.32 c 0.0036,-0.704 0.06908,-0.954321 0.145625,-0.556269 0.07654,0.398052 0.07364,0.974052 -0.0065,1.28 -0.08009,0.305948 -0.142719,-0.01973 -0.139167,-0.723731 z m 55.353543,-1.12 c 0,-0.616 0.0659,-0.868 0.14634,-0.56 0.0805,0.308 0.0805,0.812 0,1.12 -0.0805,0.308 -0.14634,0.056 -0.14634,-0.56 z m -11.85047,-0.8 c -0.009,-0.528 0.099,-1.608 0.23989,-2.4 0.189,-1.062161 0.26052,-1.188107 0.27256,-0.48 0.009,0.528 -0.099,1.608 -0.23989,2.4 -0.18899,1.062161 -0.26051,1.188107 -0.27256,0.48 z m -43.189531,-0.48 c 0,-0.616 0.06585,-0.868 0.146344,-0.56 0.08049,0.308 0.08049,0.812 0,1.12 -0.08049,0.308 -0.146344,0.056 -0.146344,-0.56 z m 55.360001,-0.96 c 0,-0.616 0.0658,-0.868 0.14634,-0.56 0.0805,0.308 0.0805,0.812 0,1.12 -0.0805,0.308 -0.14634,0.056 -0.14634,-0.56 z m -78.329272,-6.88 c 0.267469,-9.317109 0.714734,-15.236498 1.183677,-15.665549 0.267319,-0.244578 0.308079,-0.172197 0.151683,0.269358 -0.376677,1.063478 -0.874239,11.707727 -0.790684,16.914943 0.06125,3.817171 -0.02058,5.136028 -0.337554,5.439999 -0.344289,0.330171 -0.380979,-0.902521 -0.207122,-6.958751 z m 12.898925,-4.72 L 60.000003,63.52 h -3.250028 c -1.787515,0 -3.183016,-0.108 -3.101114,-0.24 0.0819,-0.132 1.565008,-0.24 3.295791,-0.24 2.574344,0 3.182217,0.09209 3.341114,0.506172 0.10683,0.278394 0.194237,5.390394 0.194237,11.359999 0,6.81461 0.11576,10.853828 0.31106,10.853828 0.277876,0 0.873401,-1.719206 1.473879,-4.254902 0.116557,-0.492197 0.274699,-0.832126 0.351425,-0.7554 0.384179,0.384179 -1.657082,6.610302 -2.167215,6.610302 -0.155276,0 -0.318955,-5.341626 -0.365255,-11.92 z m 10.390346,10.32 c 0,-0.616 0.06585,-0.868 0.146344,-0.56 0.08049,0.308 0.08049,0.812 0,1.12 -0.08049,0.308 -0.146344,0.056 -0.146344,-0.56 z m 26.24,-0.64 c 0,-0.616 0.06585,-0.868 0.146343,-0.56 0.08049,0.308 0.08049,0.812 0,1.12 -0.08049,0.308 -0.146343,0.056 -0.146343,-0.56 z m -16.650468,-0.16 c -0.009,-0.528 0.09897,-1.608 0.239893,-2.4 0.188997,-1.062161 0.260513,-1.188107 0.272562,-0.48 0.009,0.528 -0.09897,1.608 -0.239894,2.4 -0.188996,1.062161 -0.260513,1.188107 -0.272561,0.48 z m 45.758549,0 c -0.008,-0.528 0.17371,-2.112 0.40343,-3.52 0.22973,-1.408 0.4241,-2.128 0.43193,-1.6 0.008,0.528 -0.17371,2.112 -0.40344,3.52 -0.22973,1.408 -0.42409,2.128 -0.43192,1.6 z m -55.046522,-1.28 c -0.0092,-0.528 0.316638,-3.192 0.724171,-5.92 0.407533,-2.728 0.752282,-4.6 0.766108,-4.16 0.01383,0.44 -0.312051,3.104 -0.724171,5.92 -0.41212,2.816 -0.756868,4.688 -0.766108,4.16 z m 43.210332,0 c -0.01,-0.528 0.16835,-2.184 0.39597,-3.68 0.22763,-1.496 0.42192,-2.288 0.43176,-1.76 0.01,0.528 -0.16834,2.184 -0.39597,3.68 -0.22762,1.496 -0.42191,2.288 -0.43176,1.76 z m -16.962359,-0.64 c -0.009,-0.528 0.09897,-1.608 0.239893,-2.4 0.188996,-1.062161 0.260513,-1.188107 0.272561,-0.48 0.009,0.528 -0.09897,1.608 -0.239893,2.4 -0.188997,1.062161 -0.260513,1.188107 -0.272561,0.48 z m -16.309532,-3.04 c 0,-0.616 0.06585,-0.868 0.146343,-0.56 0.08049,0.308 0.08049,0.812 0,1.12 -0.08049,0.308 -0.146343,0.056 -0.146343,-0.56 z m -17.99424,0.201753 c 0,-0.560163 1.378961,-5.649458 1.498382,-5.530037 0.140536,0.140536 -1.134508,5.390055 -1.365422,5.621618 -0.07313,0.07333 -0.13296,0.03212 -0.13296,-0.09158 z m 34.95424,-2.121753 c 0,-0.616 0.06585,-0.868 0.146343,-0.56 0.08049,0.308 0.08049,0.812 0,1.12 -0.08049,0.308 -0.146343,0.056 -0.146343,-0.56 z m -16.650468,-0.16 c -0.009,-0.528 0.09897,-1.608 0.239893,-2.4 0.188997,-1.062161 0.260513,-1.188107 0.272562,-0.48 0.009,0.528 -0.09897,1.608 -0.239894,2.4 -0.188996,1.062161 -0.260513,1.188108 -0.272561,0.48 z m 33.883469,-1.44 c -0.0276,-1.239499 0.86058,-4.684012 1.56247,-6.059825 1.28101,-2.510996 1.54279,-2.588831 8.45344,-2.513467 l 6.11685,0.06671 -6.27191,0.173293 c -4.77523,0.131939 -6.40352,0.282728 -6.82339,0.631885 -0.93632,0.778613 -1.84046,2.913577 -2.44295,5.768571 -0.3172,1.50306 -0.58472,2.372836 -0.59451,1.932836 z M 64.345262,73.733332 c 0.01535,-0.372782 0.09118,-0.448608 0.193333,-0.193334 0.09244,0.231 0.08107,0.507 -0.02526,0.613334 -0.106333,0.106333 -0.181965,-0.08267 -0.16807,-0.42 z m 0.294737,-0.891581 c 0,-0.560162 1.378961,-5.649458 1.498382,-5.530037 0.140536,0.140536 -1.134508,5.390055 -1.365422,5.621618 -0.07313,0.07333 -0.13296,0.03212 -0.13296,-0.09158 z m 67.227511,-3.843923 -0.77248,-0.99783 0.91551,0.870303 c 0.50354,0.478667 0.85115,0.92769 0.77249,0.99783 -0.0787,0.07014 -0.49065,-0.321497 -0.91552,-0.870303 z" id="path6" />
      <ns0:path style="fill:#e58a25" d="m 27.445062,115.61461 c 0.572128,-0.72237 2.023503,-2.18513 3.225277,-3.25059 2.139385,-1.8967 2.196169,-1.98781 2.717353,-4.3597 0.292769,-1.33238 0.532307,-3.19078 0.532307,-4.12978 0,-2.18376 -0.420132,-2.62364 -5.994772,-6.276593 l -4.234772,-2.774965 1.067739,-1.251492 c 1.362494,-1.596973 2.121805,-3.075612 2.121805,-4.131879 0,-0.457694 -0.504,-2.833519 -1.12,-5.279613 -0.616,-2.446093 -1.12,-4.574365 -1.12,-4.729493 0,-0.155127 0.899645,-0.09665 1.99921,0.129938 3.26549,0.672937 3.570917,0.462401 4.221259,-2.909791 l 0.368226,-1.909346 1.533742,2.149346 c 1.62009,2.270353 2.717135,2.780737 3.367003,1.566449 0.328378,-0.613581 0.08907,-4.019671 -0.778991,-11.087548 -0.258747,-2.106744 -0.470449,-4.175306 -0.470449,-4.596803 0,-0.740979 0.02612,-0.749243 0.788742,-0.249555 1.039858,0.681342 1.868707,0.653114 2.53799,-0.08644 0.308882,-0.341312 1.322988,-3.675977 2.335565,-7.68 0.984303,-3.892219 1.876956,-7.075775 1.983673,-7.074571 0.106716,0.0012 0.899468,2.038643 1.76167,4.52764 0.862202,2.488997 1.823515,4.781325 2.136252,5.094062 0.828147,0.828147 1.819186,0.42139 2.572898,-1.056007 0.356321,-0.698448 0.713064,-1.204698 0.792761,-1.125001 0.187542,0.187542 -0.737857,8.572088 -0.971933,8.806164 -0.09769,0.09769 -0.177618,-0.138132 -0.177618,-0.52405 0,-0.695261 -0.04431,-0.700861 -4.852728,-0.613333 l -4.852728,0.08834 0.09025,9.599999 c 0.217159,23.098423 0.480244,32.364952 0.934384,32.911472 0.36063,0.434 1.076071,0.52765 4,0.52363 1.95845,-0.003 3.726517,-0.1107 3.929039,-0.24 0.202521,-0.12931 1.594251,-4.6991 3.092732,-10.155102 l 2.724511,-9.92 0.107268,9.852002 c 0.09068,8.32856 0.181491,9.89887 0.587268,10.1551 0.746775,0.47155 7.857786,0.39628 8.227947,-0.0871 0.168471,-0.22 0.706307,-1.984 1.19519,-3.92 0.488884,-1.936002 0.980676,-3.619122 1.092871,-3.740268 0.112195,-0.121146 0.959992,-0.319698 1.883992,-0.441226 l 1.679999,-0.22096 -0.01404,0.921226 c -0.0077,0.506674 -0.215859,1.487704 -0.46252,2.180068 -0.246661,0.69236 -0.352147,1.41236 -0.234412,1.6 0.117734,0.18764 0.217868,0.55716 0.22252,0.82116 0.0071,0.40162 0.687772,0.48 4.168457,0.48 h 4.16 l 0.203174,-3.11325 c 0.230372,-3.529997 0.375704,-4.086752 1.066783,-4.086752 0.632037,0 0.637562,1.219172 0.01633,3.604226 -0.26054,1.000276 -0.38654,2.254536 -0.28,2.787236 l 0.193708,0.96854 h 8.267666 8.267666 l 0.310202,-1.2 c 0.170612,-0.66 0.448741,-1.848 0.618065,-2.640002 0.169324,-0.792 0.323283,-1.205918 0.342131,-0.919818 0.06804,1.032852 1.625195,4.09244 2.254115,4.42903 0.413958,0.22154 2.900621,0.31342 6.971811,0.25758 L 110.88,103.2 l 0.32286,-2.23617 c 0.39802,-2.756785 1.03532,-3.10722 1.9219,-1.05681 1.1989,2.77273 1.28905,2.81298 6.30014,2.81298 4.32411,0 4.48189,0.0245 6.4033,0.99443 3.3661,1.6992 7.51456,4.40024 10.3602,6.74546 1.50103,1.23707 2.67982,2.29855 2.61952,2.35885 -0.0603,0.0603 -1.65362,-0.38035 -3.54072,-0.97922 -19.50998,-6.19148 -45.368187,-8.25423 -67.907202,-5.41706 -14.174833,1.78429 -26.241619,4.85944 -40.424475,10.30191 -0.329732,0.12653 -0.136782,-0.29371 0.509539,-1.10976 z M 94.399998,96.159998 c 0,-0.264 0.144,-0.48 0.32,-0.48 0.176,0 0.32,0.216 0.32,0.48 0,0.264 -0.144,0.48 -0.32,0.48 -0.176,0 -0.32,-0.216 -0.32,-0.48 z m -6.469273,-0.39629 c 0.9299,-0.06484 2.3699,-0.06416 3.2,0.0015 0.8301,0.06568 0.06927,0.118734 -1.690727,0.117901 -1.76,-8.33e-4 -2.439173,-0.05457 -1.509273,-0.119416 z M 48.435409,79.390838 c 0.112525,-1.655038 0.20459,-3.697022 0.20459,-4.537743 0,-1.33565 0.08978,-1.541491 0.71129,-1.63084 0.5365,-0.07713 0.927171,-0.613388 1.589797,-2.182257 0.483179,-1.144 0.883098,-1.989877 0.88871,-1.879726 0.02061,0.404645 -3.25901,12.924985 -3.426153,13.079726 -0.09505,0.088 -0.08076,-1.194122 0.03177,-2.84916 z m 3.40459,-10.91084 c 0,-0.234666 0.096,-0.330666 0.213333,-0.213333 0.117334,0.117333 0.117334,0.309333 0,0.426667 -0.117333,0.117333 -0.213333,0.02133 -0.213333,-0.213334 z" id="path5" />
      <ns0:path style="fill:#a57033" d="m 39.230688,85.839998 c -0.113219,-10.164 -0.238441,-19.487999 -0.278271,-20.719999 l -0.07242,-2.24 4.88,-0.08834 c 4.716645,-0.08538 4.88,-0.06663 4.88,0.56 0,0.356584 -0.152499,0.648335 -0.338886,0.648335 -0.186387,0 -0.259214,-0.128911 -0.161837,-0.286469 0.09738,-0.157558 -0.0499,-0.373558 -0.327287,-0.48 -0.611092,-0.234498 -7.585966,-0.260139 -8.185818,-0.03009 -0.333882,0.128046 -0.380708,0.803699 -0.216233,3.12 0.115466,1.626108 0.23205,10.15656 0.259075,18.95656 0.02703,8.8 0.161724,16.684005 0.29933,17.520005 0.184437,1.12051 0.147431,1.52 -0.140804,1.52 -0.301107,0 -0.438324,-4.24857 -0.596851,-18.480005 z m 14.604513,8.16 0.0752,-10.32 0.0895,9.892876 c 0.06008,6.641146 0.206015,10.033266 0.44398,10.319996 0.270818,0.32632 0.231946,0.42713 -0.164701,0.42713 -0.469732,0 -0.512019,-0.98295 -0.443979,-10.320002 z m 13.881163,7.818842 c -0.08877,-0.14364 0.04041,-0.82764 0.287069,-1.52 0.246661,-0.692364 0.454795,-1.718344 0.46252,-2.279957 0.0077,-0.561613 0.158045,-1.110111 0.334045,-1.218885 0.454499,-0.280896 0.396839,0.690535 -0.170208,2.867574 -0.395274,1.517558 -0.410767,1.932448 -0.08,2.142328 0.304306,0.1931 0.27051,0.26156 -0.130906,0.2652 -0.297613,0.003 -0.613747,-0.11262 -0.70252,-0.25626 z M 77.28293,101.04 c 0.133612,-0.572 0.403804,-1.928194 0.600426,-3.013762 0.196623,-1.085568 0.465303,-2.081568 0.597069,-2.213333 0.36591,-0.365911 0.288924,0.615153 -0.254861,3.247785 -0.271939,1.31654 -0.407441,2.53447 -0.301115,2.70651 0.106326,0.17204 -0.04918,0.3128 -0.345565,0.3128 -0.444472,0 -0.496324,-0.18221 -0.295954,-1.04 z m 18.891559,-0.33298 c -1.018147,-1.553885 -1.520157,-4.750897 -0.814491,-5.187022 0.198095,-0.12243 0.32,0.454123 0.32,1.513453 0,1.075105 0.236111,2.174342 0.635162,2.957057 0.725508,1.423042 0.63254,1.896582 -0.140671,0.716512 z m 16.934291,-0.888715 c -0.27921,-0.539932 -0.45447,-1.141233 -0.38948,-1.336225 0.065,-0.194992 0.41568,0.24677 0.77929,0.981693 0.75331,1.522577 0.38665,1.856047 -0.38981,0.354532 z M 94.047072,96.666641 c -0.129352,-0.360554 -1.010559,-0.45015 -4.30486,-0.437693 l -4.142214,0.01566 4.32,-0.245183 c 2.376,-0.13485 4.368729,-0.201159 4.428287,-0.147352 0.05956,0.05381 0.05275,0.3611 -0.01514,0.682876 -0.09177,0.435013 -0.165137,0.468784 -0.286072,0.131689 z M 48.106946,84.319998 c 0.242156,-1.58135 3.791192,-15.518048 4.712725,-18.506382 1.48989,-4.831396 0.775046,-1.384423 -1.816883,8.760987 -2.585563,10.120494 -3.344271,12.673781 -2.895842,9.745395 z" id="path4" />
      <ns0:path style="fill:#5f6256" d="m 40.208459,104.08 c -0.08212,-0.132 1.267311,-0.19466 2.998739,-0.13923 2.776214,0.0889 3.184223,0.0322 3.454298,-0.48 0.168436,-0.31943 1.639449,-5.476772 3.268918,-11.460772 1.629469,-5.984 3.11054,-11.207729 3.291268,-11.608286 0.860117,-1.906319 1.020359,-0.345827 1.178317,11.474804 l 0.16,11.973484 h 3.349551 3.349551 l 1.535189,-5.920002 c 0.844354,-3.256 2.834933,-10.96 4.423507,-17.12 2.996112,-11.617994 4.709251,-17.439999 5.131761,-17.439999 0.254431,0 -0.0023,1.055823 -0.661326,2.72 -0.386991,0.977195 -3.234336,11.725038 -7.367535,27.81015 -1.26207,4.911583 -2.422965,9.267581 -2.579766,9.680001 -0.273606,0.71964 -0.418199,0.74985 -3.589012,0.74985 -2.143049,0 -3.438843,-0.13493 -3.68792,-0.384 -0.283929,-0.28393 -0.384,-3.28114 -0.384,-11.501117 0,-6.114413 -0.119748,-11.191122 -0.266107,-11.281577 -0.334077,-0.206471 -0.686698,0.942048 -3.919652,12.766692 -1.443595,5.28 -2.765993,9.780002 -2.938662,10.000002 -0.346168,0.44105 -6.481747,0.58655 -6.747119,0.16 z M 39.824996,89.919998 c 0,-6.6 0.04255,-9.3 0.09456,-6 0.05201,3.3 0.05201,8.7 0,12 -0.05201,3.3 -0.09456,0.6 -0.09456,-6 z M 68.18249,101.36 c 0.01237,-0.22 0.158583,-0.688 0.324918,-1.04 0.250301,-0.529694 0.272951,-0.488328 0.131412,0.24 l -0.171015,0.88 3.126097,-8.4e-4 3.126096,-8.4e-4 0.0599,-1.839163 c 0.07038,-2.161186 3.455188,-27.44346 3.943529,-29.455573 0.183731,-0.757028 0.249625,-1.513028 0.14643,-1.68 -0.103194,-0.166972 -0.01937,-0.303586 0.18627,-0.303586 0.239108,0 0.320099,0.374915 0.224667,1.04 -1.983798,13.82549 -4.080792,29.736092 -4.080792,30.962352 V 101.76 h -3.52 c -2.614662,0 -3.514215,-0.10288 -3.497508,-0.4 z m 16.936819,0.0889 7.519311,-0.16891 0.520158,-2.466846 c 0.373957,-1.773485 0.419122,-2.508412 0.160689,-2.614737 -0.251031,-0.103279 -0.244501,-0.155514 0.02164,-0.173156 0.732153,-0.04853 0.784406,0.652427 0.23737,3.184264 L 93.02742,101.76 l -7.713711,-0.0711 -7.713711,-0.0711 z m 12.021451,-0.19386 c -0.692872,-0.69288 -1.231824,-1.750657 -1.006689,-1.975792 0.10226,-0.10226 0.185927,-0.01138 0.185927,0.201952 0,0.213333 0.353454,0.74133 0.785454,1.17333 0.775453,0.77546 0.85842,0.78546 6.515428,0.78546 h 5.72997 l 0.20179,-1.680002 c 0.40625,-3.382213 0.68168,-3.12 -3.27719,-3.12 -2.90963,0 -3.6048,-0.09737 -4.21334,-0.590142 l -0.7288,-0.590142 1.31467,-10.317527 c 0.89196,-7.0001 1.47738,-10.565858 1.82072,-11.089858 0.48815,-0.745013 0.6411,-0.772331 4.32417,-0.772331 h 3.81813 l 0.21659,-1.154547 c 0.11913,-0.635001 0.23365,-1.786122 0.2545,-2.558047 0.0209,-0.771924 0.16659,-1.404378 0.32386,-1.405452 0.16025,-0.0011 0.19466,0.947551 0.0783,2.158046 -0.35775,3.721087 0.006,3.44 -4.45386,3.44 -3.84253,0 -3.90265,0.01125 -4.27708,0.8 -0.37166,0.782923 -2.62215,17.136877 -2.72721,19.818271 -0.034,0.868188 0.11033,1.464566 0.40035,1.653974 0.24946,0.162919 2.10956,0.279187 4.13356,0.258373 l 3.68,-0.03784 -0.0266,1.233613 c -0.0147,0.678486 -0.13148,1.917612 -0.25961,2.753611 l -0.23296,1.52 h -6.03753 c -5.072633,0 -6.118238,-0.0807 -6.54249,-0.50495 z M 77.759998,100.8 c 0,-0.23467 0.096,-0.33067 0.213334,-0.21334 0.117333,0.11734 0.117333,0.30934 0,0.42667 -0.117334,0.11733 -0.213334,0.0213 -0.213334,-0.21333 z m 36.183222,-0.52316 c -0.36477,-0.463732 -0.65884,-1.003732 -0.65349,-1.199997 0.005,-0.196265 0.16725,-0.06884 0.35978,0.283155 0.74967,1.370622 1.1063,1.440002 7.40225,1.440002 9.07968,0 8.58819,0.7102 10.6299,-15.360002 1.29343,-10.180484 1.39188,-13.286371 0.48453,-15.285422 -0.34087,-0.750982 -0.94971,-1.497854 -1.35298,-1.659716 -0.45682,-0.183358 -0.54314,-0.30194 -0.22899,-0.314578 1.28582,-0.05173 2.85578,3.122775 2.85578,5.774492 0,1.696228 -2.49931,21.267714 -2.91638,22.837396 -0.18819,0.708305 -0.6309,1.759319 -0.98379,2.335586 -1.12884,1.843374 -1.77897,1.992244 -8.70072,1.992244 h -6.23266 z M 78.105261,99.653331 c 0.01535,-0.372782 0.09118,-0.448608 0.193334,-0.193333 0.09244,0.231 0.08107,0.507 -0.02526,0.613332 -0.106334,0.10633 -0.181965,-0.08267 -0.168071,-0.419999 z m -9.254736,-0.773333 c 0,-0.44 0.07263,-0.62 0.161403,-0.4 0.08877,0.22 0.08877,0.58 0,0.8 -0.08877,0.22 -0.161403,0.04 -0.161403,-0.4 z m 9.611857,-0.8 c 0.0065,-0.528 0.07824,-0.70526 0.159373,-0.39391 0.08113,0.31135 0.0758,0.74335 -0.01186,0.96 -0.08765,0.21665 -0.154038,-0.03809 -0.147516,-0.56609 z M 95.725548,96.748 c -0.04495,-2.26165 2.128754,-19.380963 2.986272,-23.518846 0.673337,-3.249127 1.89901,-5.094052 3.35938,-5.05663 0.26884,0.0069 0.0454,0.205586 -0.4965,0.44155 -1.02891,0.448018 -1.748979,1.641042 -2.333341,3.865924 -0.470328,1.790712 -2.905323,19.484583 -3.214756,23.36 -0.250565,3.138133 -0.256386,3.155687 -0.301055,0.908002 z m 17.284392,-0.895635 c -0.0513,-2.944992 1.81753,-18.378578 2.68563,-22.17919 0.76639,-3.355291 2.21666,-5.537525 3.65563,-5.500651 0.26884,0.0069 0.0568,0.201949 -0.4712,0.433467 -1.22372,0.536577 -2.1946,2.306604 -2.82704,5.154007 -0.70425,3.170763 -2.48579,16.899282 -2.76148,21.28 l -0.2316,3.68 z m -43.889942,1.427178 c 0,-0.234916 0.142097,-1.302916 0.315771,-2.373333 0.91449,-5.636338 3.204229,-23.507289 3.204229,-25.008354 0,-0.955822 0.117558,-1.737858 0.261239,-1.737858 0.417261,0 0.118317,3.406748 -1.081085,12.32 -1.6003,11.892487 -2.338198,16.864711 -2.531473,17.057986 -0.09277,0.09277 -0.168681,-0.02352 -0.168681,-0.258441 z m 9.62886,-0.721999 c -0.01587,-0.133349 0.763008,-6.037349 1.730845,-13.12 0.967838,-7.08265 1.759838,-13.417546 1.76,-14.077546 1.62e-4,-0.66 0.1121,-1.2 0.248751,-1.2 0.360686,0 0.209208,1.425779 -1.563879,14.72 -1.379957,10.346615 -2.061906,14.633661 -2.175717,13.677546 z m 42.915832,-0.207896 c 1.17958,-0.104307 2.31138,-0.356653 2.51512,-0.560768 0.31965,-0.320251 0.9931,-4.57479 2.89531,-18.291099 0.53647,-3.86841 0.4387,-4.028843 -2.53009,-4.151427 -2.01064,-0.08302 -2.30768,-0.01934 -2.61847,0.561382 -0.19281,0.360264 -0.99704,5.264629 -1.78717,10.898589 -1.12507,8.02209 -1.35861,10.389314 -1.07693,10.915643 0.28618,0.534726 0.27159,0.643107 -0.0714,0.530319 -0.23709,-0.07797 -0.47188,-0.63463 -0.52174,-1.237025 -0.13596,-1.642268 2.68165,-21.034228 3.13572,-21.581348 0.49773,-0.599731 5.10829,-0.672577 5.69095,-0.08992 0.4652,0.465207 0.49152,2.25361 0.0716,4.869788 -0.17179,1.070417 -0.68077,4.682212 -1.13107,8.026212 -0.4503,3.344 -0.90614,6.718935 -1.01297,7.499855 -0.30202,2.207795 -1.2132,2.911675 -3.68907,2.849795 L 119.52,96.539299 Z M 84.671329,96.050692 c -0.160498,-0.25969 2.60023,-21.321332 3.37274,-25.730694 0.208135,-1.188 0.514771,-2.16 0.681414,-2.16 0.166643,0 0.215046,0.229173 0.107562,0.509272 -0.206386,0.537834 -1.061957,6.435248 -2.79569,19.270586 -0.90864,6.726925 -0.987694,7.819817 -0.584111,8.0751 0.392215,0.248093 0.38034,0.296024 -0.07436,0.300142 -0.297613,0.0027 -0.616013,-0.116288 -0.707555,-0.264406 z M 46.594377,88.454195 c -0.442926,-1.154246 0.706074,-23.861315 1.234125,-24.389366 0.373926,-0.373926 0.425535,0.165964 0.154531,1.616577 -0.277008,1.482753 -0.933369,15.151742 -0.939809,19.571925 -0.0035,2.391774 0.170051,2.458474 1.040964,0.400106 0.56076,-1.325335 0.562955,-1.326632 0.36115,-0.213439 -0.50852,2.805092 -1.384073,4.230887 -1.850961,3.014197 z m 13.466574,0.300089 c -0.121524,-0.121524 -0.220952,-5.606419 -0.220952,-12.188656 0,-8.072698 -0.114261,-12.181201 -0.351074,-12.623691 -0.277161,-0.51788 -0.260318,-0.625752 0.08,-0.512376 0.349088,0.116298 0.44703,2.405606 0.514968,12.037024 0.0463,6.563083 0.209994,11.893413 0.365255,11.893413 0.501428,0 1.223513,-2.297084 3.688849,-11.734894 1.349081,-5.16456 2.422002,-9.934893 2.422002,-10.768512 0,-0.823126 0.114816,-1.496593 0.255147,-1.496593 0.396099,0 -0.147544,4.388101 -0.852365,6.879999 -0.348465,1.232 -1.300245,4.832 -2.115067,8 -2.280935,8.868195 -3.115529,11.18552 -3.786763,10.514286 z M 48.665262,83.653331 c 0.01535,-0.372781 0.09118,-0.448607 0.193333,-0.193333 0.09244,0.231 0.08107,0.507 -0.02526,0.613333 -0.106333,0.106334 -0.181965,-0.08267 -0.16807,-0.42 z m 0.32,-1.28 c 0.01535,-0.372781 0.09118,-0.448607 0.193333,-0.193333 0.09244,0.231 0.08107,0.507 -0.02526,0.613333 -0.106333,0.106334 -0.181965,-0.08267 -0.16807,-0.42 z m 0.32,-1.279999 c 0.01535,-0.372782 0.09118,-0.448608 0.193333,-0.193334 0.09244,0.231 0.08107,0.507 -0.02526,0.613334 -0.106333,0.106333 -0.181965,-0.08267 -0.16807,-0.42 z m 0.32,-1.28 c 0.01535,-0.372782 0.09118,-0.448608 0.193333,-0.193334 0.09244,0.231 0.08107,0.507 -0.02526,0.613334 -0.106333,0.106333 -0.181965,-0.08267 -0.16807,-0.42 z m 0.294737,-1.093334 c 0,-0.234666 0.096,-0.330666 0.213333,-0.213333 0.117334,0.117333 0.117334,0.309333 0,0.426667 -0.117333,0.117333 -0.213333,0.02133 -0.213333,-0.213334 z m 0.345263,-1.466666 c 0.01535,-0.372782 0.09118,-0.448608 0.193333,-0.193334 0.09244,0.231 0.08107,0.507 -0.02526,0.613334 -0.106333,0.106333 -0.181965,-0.08267 -0.16807,-0.42 z m 0.32,-1.28 c 0.01535,-0.372782 0.09118,-0.448608 0.193333,-0.193334 0.09244,0.231 0.08107,0.507 -0.02526,0.613334 -0.106333,0.106333 -0.181965,-0.08267 -0.16807,-0.42 z m 0.294737,-1.093334 c 0,-0.234666 0.096,-0.330666 0.213333,-0.213333 0.117334,0.117333 0.117334,0.309333 0,0.426667 -0.117333,0.117333 -0.213333,0.02133 -0.213333,-0.213334 z m 0.32,-1.28 c 0,-0.234666 0.096,-0.330666 0.213333,-0.213333 0.117334,0.117333 0.117334,0.309333 0,0.426667 -0.117333,0.117333 -0.213333,0.02133 -0.213333,-0.213334 z m 0.345263,-1.146666 c 0.01535,-0.372782 0.09118,-0.448608 0.193333,-0.193334 0.09244,0.231 0.08107,0.507 -0.02526,0.613334 -0.106333,0.106333 -0.181965,-0.08267 -0.16807,-0.42 z m 0.294737,-1.413334 c 0,-0.234666 0.096,-0.330666 0.213333,-0.213333 0.117334,0.117333 0.117334,0.309333 0,0.426667 -0.117333,0.117333 -0.213333,0.02133 -0.213333,-0.213334 z m 0.345263,-1.146666 c 0.01535,-0.372782 0.09118,-0.448608 0.193333,-0.193334 0.09244,0.231 0.08107,0.507 -0.02526,0.613334 -0.106333,0.106333 -0.181965,-0.08267 -0.16807,-0.42 z m 0.32,-1.28 c 0.01535,-0.372782 0.09118,-0.448608 0.193333,-0.193334 0.09244,0.231 0.08107,0.507 -0.02526,0.613334 -0.106333,0.106333 -0.181965,-0.08267 -0.16807,-0.42 z M 39.465004,66.399999 c 0.0014,-1.232 0.05926,-1.696789 0.128531,-1.032863 0.06927,0.663925 0.06811,1.671925 -0.0026,2.24 -0.07069,0.568074 -0.127369,0.02486 -0.125949,-1.207137 z m 13.360258,0.933333 c 0.01535,-0.372782 0.09118,-0.448608 0.193333,-0.193334 0.09244,0.231 0.08107,0.507 -0.02526,0.613334 -0.106333,0.106333 -0.181965,-0.08267 -0.16807,-0.42 z m 0.32,-1.28 c 0.01535,-0.372782 0.09118,-0.448608 0.193333,-0.193333 0.09244,0.231 0.08107,0.507 -0.02526,0.613333 -0.106333,0.106333 -0.181965,-0.08267 -0.16807,-0.42 z m 0.466994,-1.572678 c 0.206393,-0.991175 0.383975,-1.324778 0.582349,-1.093989 0.06303,0.07333 -0.08716,0.565334 -0.333754,1.093334 l -0.44836,0.96 z M 39.039999,63.519999 c 0,-0.088 0.072,-0.16 0.16,-0.16 0.088,0 0.16,0.072 0.16,0.16 0,0.088 -0.072,0.16 -0.16,0.16 -0.088,0 -0.16,-0.072 -0.16,-0.16 z m 8.96,0 c 0,-0.088 0.072,-0.16 0.16,-0.16 0.088,0 0.16,0.072 0.16,0.16 0,0.088 -0.072,0.16 -0.16,0.16 -0.088,0 -0.16,-0.072 -0.16,-0.16 z m -6.306692,-0.3976 c 1.19532,-0.06174 3.06732,-0.06128 4.16,10e-4 1.092681,0.0623 0.114692,0.112809 -2.173308,0.112249 -2.288,-5.6e-4 -3.182011,-0.05153 -1.986692,-0.113267 z" id="path3" />
      <ns0:path style="fill:#173425" d="m 40.176727,103.6 c -0.06775,-0.22 -0.210045,-9.040002 -0.316206,-19.600002 -0.106162,-10.56 -0.279004,-19.523999 -0.384094,-19.919999 l -0.191072,-0.72 h 4.391558 c 4.051867,0 4.374754,0.04332 4.174306,0.56 -0.411543,1.060812 -0.782551,6.02326 -1.121494,15.000672 -0.327754,8.681024 -0.280214,10.039327 0.351371,10.039327 0.489996,0 0.791597,-1.025889 3.799094,-12.922525 1.596545,-6.315388 3.0467,-11.751388 3.222568,-12.08 0.268124,-0.500995 0.70367,-0.597474 2.697241,-0.597474 2.023041,0 2.426867,0.09228 2.708741,0.618962 0.211455,0.395108 0.331259,4.959678 0.331259,12.621115 0,6.633783 0.126913,12.080588 0.283741,12.177513 0.68174,0.421338 1.468865,-1.769179 3.556528,-9.897591 0.723248,-2.816 1.689898,-6.488 2.14811,-8.16 0.458211,-1.672 0.918276,-3.975999 1.022366,-5.119999 l 0.189255,-2.08 2.479999,-0.09346 c 1.510292,-0.05692 2.48,0.03229 2.48,0.228154 0,0.176887 -0.268958,1.010944 -0.597685,1.85346 -0.328727,0.842516 -2.054601,7.147846 -3.835276,14.011846 -1.780675,6.864 -3.928419,15.144 -4.772764,18.4 L 61.259101,103.84 H 57.90955 54.559999 l -0.16,-11.973484 c -0.157958,-11.820631 -0.3182,-13.381123 -1.178317,-11.474804 -0.180728,0.400557 -1.661799,5.624286 -3.291268,11.608286 -1.629469,5.984 -3.09548,11.132002 -3.257802,11.440002 -0.249438,0.4733 -0.765599,0.56 -3.333915,0.56 -2.151995,0 -3.074733,-0.11673 -3.16197,-0.4 z m 28.429929,-2.72 c 0.372111,-1.227332 1.172409,-5.545124 1.616709,-8.722519 1.66389,-11.899272 2.74098,-20.296398 2.813923,-21.937697 l 0.08443,-1.899786 2.689386,-0.09375 c 1.479163,-0.05156 2.818225,0.03508 2.975694,0.192554 0.16841,0.168411 0.145531,0.865874 -0.05556,1.693754 -0.493731,2.032641 -3.880279,27.304505 -3.951343,29.486604 l -0.0599,1.83916 -3.141564,8.4e-4 c -2.843523,7.6e-4 -3.125456,-0.0523 -2.971778,-0.55916 z m 9.633554,-0.954186 c 0.227444,-0.839199 0.647325,-2.893816 0.933071,-4.565816 0.633285,-3.705574 3.313371,-23.597775 3.4491,-25.6 l 0.09762,-1.44 2.843996,-0.0931 2.843995,-0.0931 -0.214228,1.2131 c -0.671391,3.801857 -3.66301,26.476334 -3.523097,26.702719 0.09191,0.148709 2.157617,0.270381 4.590465,0.270381 h 4.423359 l -0.523068,2.48 -0.523068,2.480002 -7.405837,0.0858 -7.405838,0.0858 z m 19.155091,1.046926 c -1.175019,-0.82301 -1.503839,-2.184523 -1.301754,-5.390032 0.254236,-4.032722 2.689098,-21.42372 3.296812,-23.547471 1.050911,-3.672588 1.692391,-3.951469 8.769641,-3.812578 l 4.96,0.09734 -0.064,1.44 c -0.0352,0.792 -0.14973,1.908 -0.2545,2.48 l -0.19048,1.04 h -3.81813 c -3.68307,0 -3.83602,0.02732 -4.32417,0.772331 -0.34334,0.524 -0.92876,4.089758 -1.82072,11.089858 l -1.31467,10.317527 0.7288,0.590142 c 0.60854,0.492774 1.30371,0.590142 4.21334,0.590142 3.95887,0 3.68344,-0.262213 3.27719,3.12 L 109.35085,101.44 h -5.64422 c -4.430761,0 -5.78765,-0.10046 -6.311329,-0.46726 z m 17.237959,-0.38692 c -0.85758,-0.34504 -1.35326,-1.99311 -1.35326,-4.499387 0,-2.767732 1.98694,-18.79192 2.7684,-22.326435 0.64733,-2.927847 1.72401,-4.790165 3.03325,-5.246568 1.26477,-0.440902 10.49191,-0.469306 11.6321,-0.03581 1.30808,0.497333 2.07088,2.552799 2.07907,5.602376 0.007,2.461897 -1.88129,18.500436 -2.55723,21.72474 -0.45553,2.172937 -1.19854,3.616816 -2.24444,4.361564 -0.81475,0.58015 -1.39954,0.63156 -6.92055,0.60843 -3.31683,-0.0139 -6.21363,-0.0989 -6.43734,-0.18891 z m 9.65597,-4.685967 c 0.44825,-0.448247 0.81675,-1.300106 0.93438,-2.16 0.10683,-0.78092 0.56267,-4.155855 1.01297,-7.499855 0.4503,-3.344 0.95928,-6.955795 1.13107,-8.026212 0.41987,-2.616178 0.39355,-4.404581 -0.0716,-4.869788 -0.5828,-0.582795 -5.19323,-0.509803 -5.69111,0.0901 -0.39516,0.47614 -3.18198,19.110238 -3.19692,21.376211 -0.01,1.466497 0.559,1.779572 3.28657,1.809404 1.52771,0.01671 1.98499,-0.110158 2.59469,-0.719861 z" id="path2" />
    </ns0:g>
  </ns0:g>
</g></svg>